<svg width="1440" height="250" viewBox="0 0 1440 250" xmlns="http://www.w3.org/2000/svg"><path d="M1440 14.087c-.25.47-.586.919-.731 1.42-.354 1.227-.636 2.475-.914 3.72-.169.767-.38 1.542-.398 2.319-.094 3.84-2.036 6.904-4.301 9.86-1.36 1.774-2.6 3.63-3.974 5.391-1.35 1.73-2.89 3.327-4.174 5.097-.666.921-.892 2.126-1.44 3.14-.659 1.212-1.439 2.361-2.185 3.528-.758 1.181-1.59 2.32-2.297 3.53a179.457 179.457 0 0 0-3.57 6.395 63.85 63.85 0 0 0-2.346 4.884c-.936 2.203-1.736 4.46-3.59 6.166a2.135 2.135 0 0 0-.594.922c-.922 3.184-1.8 6.38-2.716 9.567-.801 2.783-1.637 5.557-2.456 8.335-.586 1.983-1.993 3.671-2.02 5.886-.012.967-.8 1.905-1.099 2.895-.68 2.259-1.2 4.566-1.935 6.808-.664 2.018-1.542 3.972-2.292 5.966-.11.29-.035.645-.03.971.007.404.148.844.027 1.205-.979 2.958-1.963 5.916-3.033 8.844-.728 1.991-1.663 3.911-2.385 5.903-.64 1.768-1.077 3.602-1.675 5.386-1.132 3.37-2.35 6.713-3.46 10.089-.779 2.37-1.324 4.813-2.18 7.153-.685 1.87-1.782 3.596-2.507 5.454-.629 1.608-.95 3.324-1.483 4.97a110.284 110.284 0 0 1-1.778 5.001c-1.087 2.881-2.587 5.622-2.59 8.83-.003 1.418-.352 2.871-.769 4.245-1.48 4.872-3.102 9.705-4.577 14.58-.692 2.288-1.007 4.69-1.797 6.942-.622 1.77-1.902 3.323-2.547 5.087-.92 2.522-3.507 2.267-5.29 3.337-1.822 1.093-2.487 3.36-1.29 5.272.79 1.265.326 1.681-.762 2.194-1.37.644-2.27 2.66-1.936 4.113.095.419.296.84.269 1.25-.022.355-.296.696-.46 1.044-.336-.25-.89-.446-.974-.76-.785-2.88-1.707-5.62-.776-8.81.772-2.65.356-5.62.488-8.446.065-1.372.385-2.764.23-4.108-.336-2.942-1.056-5.845-1.338-8.79-.383-3.99-.49-8.003-.739-12.004-.108-1.753-.395-3.501-.392-5.252.006-3.075.215-6.15.257-9.226.028-1.996-.249-4.005-.1-5.987.158-2.114.672-4.203.993-6.307.056-.364-.075-.756-.136-1.131-.042-.254-.257-.615-.152-.738 1.285-1.52.015-3.38.847-5.067.782-1.586.83-3.504 1.235-5.27.71-3.092 1.583-6.158 2.128-9.278.446-2.553.971-5.035 2.209-7.353.181-.34.101-.816.117-1.23.076-2.125.598-4.148 1.278-6.173.284-.85-.087-1.894-.103-2.851-.01-.474-.047-1.047.196-1.41 1.076-1.61.914-3.433 1.224-5.198.348-1.979 1.276-3.857 1.806-5.815a65.713 65.713 0 0 0 1.334-6.096c.28-1.638.183-3.35.572-4.956.432-1.785 1.232-3.488 1.855-5.232.072-.2.04-.435.042-.655.004-.614-.112-1.252.024-1.837a36.626 36.626 0 0 1 1.095-3.768c1.034-2.975 2.061-5.956 3.203-8.894.813-2.096 1.81-4.128 2.724-6.188.602-1.354 1.238-2.696 1.8-4.064.702-1.698 1.326-3.425 2.018-5.126.85-2.093 1.709-4.185 2.63-6.25.274-.616.83-1.11 1.154-1.712 2.104-3.903 3.92-7.979 6.361-11.672 1.383-2.092 2.494-4.368 3.963-6.294 1.366-1.79 1.982-4.057 3.944-5.532 1.249-.938 1.92-2.565 2.938-3.817 1.913-2.353 3.7-4.792 6.139-6.738 1.965-1.569 3.693-3.42 5.47-5.197 1.13-1.13 5.38-2.166 6.916-1.547 2.754 1.111 5.607 1.614 8.582 1.292.644-.07 1.251-.4 1.894-.52 1.455-.269 2.918-.598 4.387-.65.476-.018 1.129.663 1.448 1.17 1.546 2.46 3.004 4.97 4.494 7.463v.325zM290.719 70.126c-.166.557-.175.834-.312 1.006-1.56 1.954-3.16 3.875-4.708 5.837-.922 1.172-1.866 2.343-2.633 3.618-2.133 3.544-4.14 7.165-6.276 10.71-1.027 1.703-2.747 2.794-3.911 4.498-1.47 2.151-2.806 4.26-3.673 6.89 1.15.153 2.193.328 3.245.427 2.73.259 5.465.48 8.196.73.197.018.383.144.58.19.754.172 1.503.404 2.266.484 2.978.313 5.964.546 8.942.866 1.913.205 3.812.574 5.729.716.437.031 1.321-.586 1.314-.888-.036-1.373-.33-2.74-.505-4.111-.259-2.048-.555-4.093-.723-6.149-.2-2.445-.167-4.912-.44-7.347-.268-2.385-.383-4.918-1.306-7.065-1.234-2.872-1.242-5.85-1.717-8.791-.055-.345.339-.763.524-1.148l.416.017c-.374 1.331-.332 2.227 1.31 1.699.314-.1.789.013 1.083.2 1.332.846 2.741 1.625 3.907 2.674 1.593 1.43 3.203 1.302 3.9-.736-1.074-.164-2.742.393-2.551-1.003-.916-.845-1.477-1.367-2.045-1.883-.295-.27-.585-.55-.905-.788-.744-.551-1.512-1.07-2.256-1.619-.649-.479-1.276-.985-1.921-1.468-.28-.208-.58-.388-.87-.581.022-.178.042-.357.062-.535.598 0 1.217.1 1.785-.026.63-.139 1.214-.484 1.872-.762-2.156-2.005-5.187-2.556-6.394-1.164l.913.792c-.357.79-.634 1.55-1.031 2.24-.322.558-.701 1.264-1.222 1.466-.347.134-.99-.504-1.817-.978-.266.513-.693 1.121-.876 1.799-.068.245.45.65.69.971l1.358-.788M543.214 39.89c-1.63.731-3.298 1.616-5.064 2.205-.78.26-1.785.023-2.626-.214-.24-.068-.258-.929-.44-1.69-.859-.682-1.832-1.644-3.581-1.306-.804.154-1.774-.877-2.73-1.147-3.641-1.032-7.354-1.372-11.15-1.425-3.516-.05-7.024-.661-10.534-1.05-3.873-.429-7.735-1.084-11.62-1.26-2.467-.113-4.96.583-7.45.709-3.022.151-6.059.012-9.083.137-1.7.07-3.39.622-5.081.6-3.12-.04-5.472 2.07-8.315 2.725-2.996.691-5.908 1.554-9.145.848-1.605-.35-3.536.5-5.25 1.032-3.31 1.027-6.703 1.93-9.816 3.407-3.63 1.721-7.582 2.569-11.056 4.808-2.215 1.429-5.154 1.727-7.773 2.518-3.257.986-6.528 1.928-9.775 2.95-1.544.486-3.046 1.11-4.552 1.666-.67 2.684 1.361 3.965 2.775 5.551a24.817 24.817 0 0 0 1.792 1.834c2.15 1.965 4.301 3.93 6.494 5.848 1.888 1.651 3.796 3.283 5.764 4.835 1.464 1.152 3.08 2.108 4.557 3.245 2.788 2.147 5.711 4.168 8.225 6.61 2.115 2.055 4.748 3.13 7.076 4.75 1.881 1.306 3.736 2.655 5.66 3.893 2.5 1.61 5.169 2.98 7.561 4.732 2.067 1.514 3.894 3.376 5.747 5.167a208.022 208.022 0 0 1 6.719 6.771 354.98 354.98 0 0 1 8.414 9.198c1.06 1.205 2.227 2.401 2.313 4.232.02.406.694.967 1.165 1.098.296.082.776-.505 1.423-.972 2.06 2.208 4.315 4.601 6.54 7.02.82.89 1.669 1.778 2.337 2.779 1.397 2.091 2.66 4.272 4.025 6.388.543.843 1.226 1.593 1.81 2.411.812 1.138 1.591 2.3 2.385 3.453.475.69.914 1.408 1.43 2.067 1.24 1.586 2.595 3.086 3.762 4.723 2.377 3.337 4.805 6.651 6.93 10.148 1.456 2.397 2.4 5.105 3.636 7.642.77 1.578 1.758 3.05 2.47 4.652 1.073 2.418 2.238 4.843 2.886 7.389.427 1.674 1.537 2.19 2.704 2.86 1.195.685 2.537 1.142 3.644 1.94 2.601 1.871 2.796 4.087.715 6.62-.566.69-1.281 1.26-1.79 1.982-.311.441-.335 1.08-.533 1.612-.184.496-.31 1.129-.68 1.412-.38.29-1.234.504-1.52.281-2.435-1.896-4.992-.97-7.32-.122-3.596 1.312-7.347 1.387-11.033 1.844-3.78.468-7.634.572-11.446.464-4.668-.132-9.32-.745-13.988-.97-3.626-.174-7.27-.222-10.894-.054-4.346.203-8.68.713-13.02 1.049-.836.064-1.686-.112-2.529-.095-3.936.079-7.874.313-11.807.246-4.037-.07-8.067-.466-12.104-.636-1.841-.077-3.702.181-5.537.052-3.66-.259-7.31-.679-10.964-1.036-.315-.03-.63-.149-.938-.13-3.86.233-7.72.65-11.582.685-4.146.04-8.324-.028-12.437-.498-5.344-.609-10.454-2.168-15.098-5.073-1.213-.76-2.64-1.168-3.953-1.771-1.119-.515-2.187-1.15-3.328-1.602-2.032-.805-4.07-1.619-6.163-2.235a98.78 98.78 0 0 0-8.06-2.02c-2.457-.504-4.968-.733-7.437-1.18-1.676-.302-3.306-.99-4.984-1.114-2.876-.213-3.19.342-2.157 3.111.297.797 1.083 1.593 1.002 2.315-.192 1.72.647 3.152.921 4.724.38 2.181 1.341 4.297 1.468 6.475.08 1.356.054 2.651.539 3.947.443 1.18.655 2.455 1.148 3.61.99 2.314 2.039 4.61 3.187 6.849.798 1.555 1.804 3.002 2.495 4.804-.418-.273-.957-.458-1.234-.836-2.056-2.806-3.942-5.743-6.107-8.457-2.647-3.32-4.283-7.168-6.122-10.919-1.181-2.408-2.223-4.887-3.421-7.285-1.93-3.867-3.843-7.748-5.979-11.5-.538-.947-1.803-1.796-2.884-2.058-5.422-1.309-10.344-3.764-15.289-6.234-3.63-1.814-7.4-3.344-11.083-5.056-2.374-1.104-4.653-2.427-7.066-3.432-2.108-.88-4.333-1.487-6.53-2.13-.473-.136-1.05.13-1.581.15-1.672.063-3.047-1.182-3.245-2.908-.162-1.416.556-2.03 1.892-1.59.45.148.957.289 1.291.595 2.23 2.035 4.91 1.341 7.483 1.338 4.762-.005 9.32.582 13.493 3.316 2.057 1.349 4.538 2.077 6.877 2.951 2.843 1.064 5.762 1.926 8.601 3 .925.351 1.703 1.093 2.549 1.655l.374-.37c-.677-1.697-1.31-3.413-2.038-5.089-1.505-3.464-2.985-6.942-4.614-10.348-1.574-3.292-3.271-6.527-5.009-9.737-1.606-2.966-3.638-5.738-4.929-8.829-1.405-3.367-2.221-6.989-3.19-10.53-.347-1.267-.37-2.622-.577-3.932-.234-1.48-1.181-2.107-2.546-2.073-3.076.078-6.164.17-9.23-.007-3.92-.224-7.82-.777-11.738-1.054-4.378-.312-8.766-.506-13.152-.688-2.245-.093-4.383.3-5.766 2.345-.79 1.168-1.383 2.473-2.158 3.653-1.666 2.538-2.348 5.547-4.258 8.034-1.939 2.524-3.06 5.667-4.795 8.373-1.3 2.032-3.105 3.73-4.499 5.71-1.124 1.598-1.948 3.407-2.946 5.097-.988 1.675-1.962 3.363-3.057 4.965-2.014 2.946-4.218 5.765-6.147 8.764-2.233 3.472-4.246 7.085-6.368 10.628-.86 1.435-1.56 3.04-2.69 4.221-1.544 1.611-3.235 3.095-4.63 4.846a27.49 27.49 0 0 0-2.47 3.726c-.591 1.062-.953 2.255-1.46 3.37-.238.521-.57 1.001-.875 1.489-1.922 3.06-3.85 6.115-5.775 9.174-.026.043-.015.11-.04.156-.826 1.604-1.493 3.324-2.526 4.784-1.285 1.819-2.963 3.355-4.3 5.144-.99 1.327-1.806 2.813-2.526 4.313-1.638 3.408-3.179 6.864-4.74 10.31-1.188 2.622-2.253 5.307-3.57 7.86-.418.809-1.387 1.574-2.26 1.839-1.178.358-1.523 1.182-1.727 2.09-.467 2.09-1.204 2.72-3.968 2.562.926-1.187 1.526-2.275 2.415-3.008.978-.806 1.413-1.56.845-2.735-.992-2.05-.6-3.981.154-6.046.517-1.41.424-3.043.64-4.571.095-.674.052-1.623.462-1.952 2.459-1.967 3.558-4.719 4.661-7.511 1.9-4.813 3.823-9.616 5.797-14.399 1.296-3.142 2.761-6.214 4.02-9.37.484-1.212.592-2.572.89-3.86.142-.62.205-1.3.512-1.833 2.255-3.921 3.254-8.323 4.874-12.485 1.433-3.682 3.425-7.144 5.131-10.72.57-1.197.976-2.472 1.538-3.673 1.469-3.131 3.108-6.188 4.447-9.374 1.542-3.674 2.85-7.448 4.231-11.19 1.684-4.567 3.982-8.798 6.623-12.876 1.674-2.585 3.072-5.35 4.623-8.02.473-.813 1.042-1.571 1.815-2.726l-3.571-.434c1.133-.874 1.964-2 2.977-2.204 2.799-.56 3.665-2.853 4.995-4.822 1.55-2.293 3.238-4.49 4.826-6.758 1.045-1.491 1.986-3.054 3.028-4.547 1.438-2.06 3.078-3.993 4.36-6.143 2.57-4.308 4.874-8.775 7.45-13.077 1.33-2.221 3.006-4.231 4.59-6.425l1.75.696c-2.031-3.978 1.165-5.92 2.987-8.39.148-.2.406-.32.548-.525 1.362-1.961 2.674-3.96 4.095-5.878.267-.36.954-.406 1.148-.48l1.268-4.009c1.042.077 1.977.283 2.428 1.537.097.267.899.502 1.264.388.48-.148.848-.657 1.264-1.01-.286-.326-.512-.784-.871-.952-.996-.469-2.047-.817-3.087-1.216 3.984-6.045 8.464-11.404 14.713-15.336-1.084.072-2.171.11-3.25.222-3.184.327-6.37.64-9.544 1.041-2.154.271-4.281.753-6.437 1.007-1.838.216-3.699.254-5.55.351-2.755.144-5.514.208-8.263.418-5.91.45-11.809 1.058-17.724 1.43-3.483.218-6.987.127-10.482.118-.551-.001-1.103-.304-1.596-.151l-3.091.463 1.658-2.398-.184-.571-3.71.285c.693.965 1.078 1.502 1.471 2.046-1.271.514-4.195-.05-4.845-.999-.707 1.464-1.836 1.12-3.067.911-1.348-.228-2.747-.145-4.124-.205-3.23-.14-6.46-.285-9.69-.427-2.909-.128-5.816-.32-8.726-.357-1.613-.02-2.615.93-2.319 2.444.198 1.01.044 1.803-.09 2.745-.33 2.34-.434 4.714-.583 7.078-.228 3.612-.337 7.235-.655 10.84-.181 2.067-.711 4.102-1.014 6.161-.118.807-.006 1.645-.067 2.464-.124 1.659-.165 3.34-.489 4.961-.228 1.138.123 2.23-.437 3.478-.796 1.778-.754 3.937-1.06 5.935-.304 1.975-.953 3.976-.82 5.923.329 4.833-2.378 8.982-2.646 13.71-.211 3.718-1.743 7.35-2.058 11.074-.333 3.953-1.686 7.61-2.397 11.438a287.99 287.99 0 0 1-1.17 6.015c-.155.741-.395 1.47-.642 2.187-.935 2.73-1.859 5.463-2.848 8.171-.586 1.603-1.59 3.109-1.868 4.751-.516 3.037-3.107 4.876-3.916 7.793-.634 2.288-2.324 4.266-3.437 6.438-3.008 5.868-5.88 11.807-8.963 17.635-1.577 2.981-3.53 5.76-5.237 8.676-1.164 1.989-2.183 4.064-3.293 6.087-1.156 2.109-2.46 4.147-3.48 6.32-.925 1.968-1.505 4.098-2.342 6.114-.299.718-.97 1.269-1.364 1.958-1.756 3.074-3.524 6.144-5.18 9.274-.739 1.395-1.17 2.953-1.832 4.395-.84 1.83-1.756 3.626-2.673 5.42-.75 1.464-1.259 3.223-2.4 4.276-1.45 1.336-1.692 3.135-2.617 4.64-1.073 1.741-1.964 3.596-3.062 5.32-1.031 1.619-1.042 3.221-.48 4.976.213.663.388 1.6.078 2.09-.249.396-1.388.596-1.891.36-.62-.288-1.248-1.061-1.396-1.732-.172-.777.106-1.686.303-2.511.705-2.962 1.899-5.883 2.092-8.874.298-4.639 2.623-8.76 2.858-13.364.032-.623.357-1.225.483-1.85.445-2.218.741-4.474 1.325-6.654.644-2.407 1.613-4.724 2.314-7.118 1.115-3.81 3.212-7.347 3.18-11.48-.03-3.85.867-7.521 2.112-11.13 1.177-3.413 2.525-6.787 3.41-10.277.799-3.143 1.084-6.42 1.572-9.643.47-3.112.975-6.22 1.347-9.345.257-2.168.32-4.36.458-6.542.247-3.934.408-7.875.75-11.802.258-2.924.677-5.838 1.148-8.737.442-2.718 1.047-5.41 1.578-8.113.062-.313.11-.63.18-.942.49-2.2.788-4.47 1.535-6.58.81-2.28.822-4.552.796-6.886-.014-1.286.106-2.576.212-3.86.147-1.805.288-3.613.518-5.409.44-3.425.939-6.842 1.414-10.261.022-.16.122-.365.06-.474-1.199-2.096.041-4.211-.052-6.319a374.324 374.324 0 0 1-.325-12.515c-.019-1.895.24-3.792.269-5.69.071-4.867.041-9.735.137-14.6.045-2.255.358-4.505.405-6.76.015-.755-.42-1.518-.562-1.987-3.43 0-6.717-.085-9.998.022-3.85.127-7.694.455-11.542.632-4.305.198-8.619.246-12.92.504-5.124.307-10.24.764-15.358 1.16-3.737.291-7.488.476-11.21.91-4.426.515-8.825 1.262-13.24 1.881-3.925.55-7.862 1.021-11.782 1.602-2.734.406-5.435 1.056-8.177 1.38-3.01.355-6.052.663-9.075.624-3.831-.05-7.674-.332-11.476-.8-1.416-.176-2.8-1.038-4.082-1.79-4.323-2.538-9.11-2.8-13.907-2.978-4.064-.15-8.133-.15-12.199-.25-.83-.02-1.658-.178-2.487-.274L0 39.545l11.638-3.578c-.849-2.136-.758-2.216 1.294-2.882 3.352-1.09 6.745-2.099 9.984-3.469 1.715-.726 3.089-2.226 4.712-3.221 2.026-1.243 3.64-3.062 6.357-3.293 3.645-.307 7.225-1.315 10.855-1.868 3.091-.472 6.225-.664 9.323-1.101 1.52-.214 3-.715 4.503-1.065 4.197-.98 8.36-2.204 12.608-2.848 3.939-.596 7.967-.674 11.961-.783 3.885-.107 7.782.167 11.666.03 3.513-.125 7.011-.682 10.525-.853 2.116-.102 4.25.238 6.376.26 5.522.055 11.048-.08 16.565.097 5.349.173 10.692.597 16.032 1.012 1.133.089 2.26.544 3.343.958 1.652.631 2.592-.152 3.718-1.3 2.108-2.15 4.454-4.066 6.728-6.048 1.497-1.305 3.173-2.432 4.515-3.878.892-.962 1.408-2.312 1.964-3.547 1.026-2.28 1.753-2.615 3.981-1.684 4.976 2.08 9.876 4.305 14.2 7.61 2.18 1.67 4.46 3.264 5.178 6.205.118.486.718.848.854 1.335.22.786.239 1.63.374 2.696 1.325.08.105 2.835 2.084 2.929l1.005-6.613.355-.058 1.081 6.175 25.204 2.927.337-.526c1.284.197 2.361.472 3.444.504 4.39.132 8.785.102 13.17.293 6.621.288 13.235.733 19.855 1.06 1.819.09 3.648-.056 5.47-.003 3.455.098 6.909.374 10.363.365 2.956-.007 5.912-.459 8.865-.423 1.844.022 3.67.728 5.524.86 1.755.127 3.534-.094 5.562-.172 2.308 1.176 4.881 2.775 8.128 1.8 2.128-.638 4.251-1.663 6.408-1.752 2.678-.111 5.38.654 8.086.881 3.656.308 5.143 2.722 6.139 5.85.875 2.751 2.094 5.394 2.901 8.162.723 2.48 1.074 5.07 1.621 7.604a787.727 787.727 0 0 0 2.064 9.28c.636 2.781 1.41 5.534 1.908 8.337.188 1.066-.22 2.24-.403 3.746.922 1.065 1.076 2.706.273 4.334.247 1.215.607 2.103.569 2.97-.117 2.664-.391 5.318-.597 7.976-.016.211-.04.459.05.634.937 1.87.31 3.771.252 5.688-.07 2.27.35 4.549.45 6.83.134 3.105.161 6.216.248 9.324.033 1.136.1 2.272.168 3.406.011.2.156.396.155.593-.023 3.027-.146 6.055-.065 9.078.058 2.093.493 4.173.58 6.266.15 3.631.11 7.27.252 10.9.06 1.536.538 3.06.545 4.59.023 4.413-.03 8.826-.184 13.234-.107 3.084.518 5.967 1.376 8.917.69 2.373.499 4.995.834 7.489.075.555.615 1.19 1.116 1.52 2.48 1.631 5.462 1.146 8.178 1.82 2.155.537 4.34.954 6.518 1.388 4.733.942 9.44 2.118 14.218 2.712 4.03.502 8.16.166 12.222.484 3.794.298 7.557.987 11.338 1.47 1.724.22 3.455.417 5.19.515 2.697.155 5.242.605 7.707 1.932 1.638.882 3.626 1.277 5.504 1.506 4.008.488 8.056.638 12.068 1.098 2.418.277 4.789.948 7.201 1.299 1.323.193 2.69.047 4.033.124 5.116.29 10.229.757 15.348.858 3.09.06 6.19-.417 9.285-.677 5.78-.483 11.534-.266 17.282.505 3.488.467 6.995.79 10.491 1.19.473.053 1 .063 1.4.28 3.175 1.719 6.355 1.141 9.588.188 3.52-1.038 7.078-1.948 10.609-2.952.817-.231 1.59-.613 2.818-1.096-.71-.844-1.319-1.475-1.824-2.183-1.814-2.545-3.753-5.021-5.339-7.709-1.354-2.296-2.289-4.843-3.408-7.279-1.38-3.008-2.52-6.161-4.2-8.989-2.137-3.595-4.678-6.951-7.106-10.367a1769.516 1769.516 0 0 0-11.273-15.677c-2.428-3.339-4.628-6.92-7.48-9.85-2.623-2.696-5.817-4.92-9.442-6.294-1.89-.716-3.838-1.323-5.638-2.226-1.47-.736-2.849-1.73-4.108-2.8-1.917-1.628-3.553-3.625-5.58-5.081-1.692-1.214-3.795-1.832-5.68-2.79-4.81-2.448-9.879-4.321-14.472-7.283-2.555-1.646-5.697-2.373-8.578-3.506-2.451-.965-4.903-1.923-6.377-4.345-2.323-3.817-6.078-3.35-9.746-3.441-2.461-.062-4.914-.581-7.368-.916-2.038-.279-4.066-.656-6.111-.868a55.133 55.133 0 0 1-18.444-5.232 10.05 10.05 0 0 1-3.065-2.294c-1.327-1.488-1.29-3.045.262-4.234 2.303-1.762 2.778-4.491 4.076-6.784 1.15-2.029 2.345-4.037 3.635-5.977a16.286 16.286 0 0 1 2.473-2.877c4.04-3.752 8.053-7.542 12.244-11.117 1.433-1.223 3.425-1.754 5.04-2.794 1.848-1.192 3.635-2.362 4.68-4.597 1.616-3.454 4.712-3.977 8.18-3.247.675.143 1.444-.021 2.141-.172a249.58 249.58 0 0 0 7.667-1.762c3.368-.841 6.704-1.803 10.079-2.613 3.475-.835 6.948-1.781 10.478-2.242 2.606-.341 5.304.088 7.958.044 1.543-.026 3.082-.318 4.623-.474 5.091-.518 10.19-.955 15.27-1.565 3.887-.466 7.739-1.218 11.624-1.704 2.058-.259 4.162-.138 6.229-.342 2.647-.262 5.272-.731 7.916-1.014 2.246-.24 4.431-.084 6.468 1.154.567.344 1.433.167 2.154.283 4.485.718 8.978 1.39 13.443 2.212 1.603.296 3.14.964 4.7 1.478 2.686.882 5.28-.12 7.924-.304 3.83-.266 7.224.91 9.972 3.8 1.514 1.594 3.36 2.36 5.592 1.356.526-.237 1.147-.26 1.723-.385 2.844-.618 3.646-.02 4.482 2.786.43 1.443 1.292 2.756 1.975 4.162m754.224 61.514c-1.598.093-2.994.037-4.334.277-3.894.7-7.74 1.688-11.655 2.238-3.388.476-6.848.422-10.261.763-2.476.247-4.917.814-7.388 1.132a95.53 95.53 0 0 1-6.98.658c-2.81.154-5.63.155-8.444.244-2.423.077-4.85.332-7.266.245-4.012-.143-5.07.834-5.358 4.73-.226 3.036-.969 6.034-1.226 9.069-.147 1.744-.727 3.545.277 5.329.354.63.04 1.624.025 2.451-.034 1.842-.145 3.685-.09 5.524.08 2.663-.018 5.255-.786 7.872-1.046 3.57-1.655 7.261-2.598 10.863-.71 2.714-1.635 5.374-2.491 8.052-.743 2.33-1.56 4.637-2.271 6.976-.513 1.694-.85 3.437-1.362 5.13-.845 2.802-1.538 5.68-2.726 8.343-1.004 2.252-2.649 4.224-3.948 6.357-.45.74-.694 1.595-1.058 2.385-.33.716-.714 1.407-1.043 2.123-1.422 3.086-2.615 6.246-4.902 8.933-1.636 1.924-2.712 4.3-4.094 6.437-1.399 2.162-2.92 4.248-4.286 6.428-1.532 2.446-3.042 4.913-4.39 7.458-1.271 2.4-2.234 4.956-3.528 7.343-.302.557-1.515 1.117-2.095.952-1.042-.295-.486-1.118-.053-1.784 1.012-1.556 2.014-3.122 2.933-4.732 1.725-3.02 3.372-6.08 5.086-9.104.5-.88 1.22-1.648 1.653-2.552.369-.768.933-1.514-.06-2.521-.462-.47.018-1.856.118-2.82.3-2.865.708-5.72.907-8.59.128-1.832-.159-3.692-.034-5.524.104-1.537.554-3.051.81-4.582.123-.736.173-1.486.208-2.232.05-1.094-.142-2.018.857-3.114.754-.829.242-2.745.338-4.175.142-2.11.288-4.22.495-6.325.137-1.387.105-2.881.645-4.118.92-2.1.144-4.177.369-6.249.195-1.794.546-3.712.104-5.392-.528-2.004-.233-4.142-.908-5.96-1.146-3.084-.883-6.256-1.393-9.364-.352-2.147-.672-4.307-.846-6.473-.113-1.4.126-2.825.084-4.234-.035-1.14-.301-2.271-.386-3.413-.167-2.2-.453-4.41-.372-6.604.147-4.008.923-7.986-.12-12.018-.341-1.317.148-2.83.196-4.255.037-1.097.131-2.225-.068-3.292-.634-3.373-1.415-6.72-2.095-10.084-.305-1.51-.507-3.038-.758-4.559-.052-.315-.066-.644-.177-.939-1.554-4.062-3.14-8.114-4.68-12.182-1.17-3.1-2.546-6.132-2.736-9.523a47.477 47.477 0 0 0-.786-6.436c-.312-1.587-1.116-3.083-1.437-4.67-.254-1.248-.132-2.573-.13-3.864.003-1.039-.032-2.098.147-3.115.319-1.807.81-3.582 1.179-5.38.15-.733.217-1.491.233-2.24.056-2.346 1.388-4.277 2.134-6.396.473-1.341 1.066-2.645 1.659-3.942.805-1.768 3.49-3.05 5.44-2.828 1.782.203 3.592.327 5.381.265 5.72-.197 10.91 1.521 15.761 4.24 3.046 1.707 4.98 4.526 6.47 7.584.709 1.455 1.196 3.012 1.86 4.488.156.347.756.5.92.846.37.778.52 1.656.892 2.432.473.986 1.115 1.892 1.618 2.865 1.64 3.18 2.518 6.52 2.706 10.119.2 3.851.8 7.684 1.255 11.52.5 4.216 1.226 8.417 1.474 12.646.146 2.47-.456 4.98-.71 7.472-.203 1.961-.391 3.923-.593 5.977.43.063.8.187 1.156.158 5.805-.465 11.622-.822 17.405-1.469 4.98-.556 9.911-1.523 14.883-2.171 5.236-.684 10.497-1.202 15.747-1.79.164-.02.357.037.49-.03 2.597-1.288 5.418-.284 8.06-.802.726-.142 1.695-1.207 1.79-1.942.396-3.035.944-6.159.576-9.148-.338-2.749-.002-5.404.025-8.091.033-3.56-.816-6.934-1.651-10.34-.286-1.162-.086-2.44-.385-3.595-.526-2.02.312-3.89.382-5.818.07-1.967-.607-3.95-.607-5.926 0-3.09-.165-6.197.729-9.258.883-3.018 1.432-6.13 2.256-9.165.269-.992.94-1.878 1.467-2.893l-.548-.784c.164-.14.268-.25.392-.327.94-.585 1.814-1.353 2.835-1.712 5.387-1.89 10.937-2.355 16.518-1.106 2.93.657 6.127.799 8.426 3.191 1.547 1.609 2.972 3.197 2.731 5.65-.074.753.193 1.545.345 2.313.529 2.68 1.055 5.362 1.62 8.035.48 2.271 1.068 4.52 1.5 6.799.316 1.66.608 3.353.637 5.035.043 2.587-.135 5.18-.246 7.768-.134 3.128-.21 6.261-.478 9.379-.148 1.72-.61 3.418-.988 5.113-.163.74-.594 1.434-.692 2.175-.552 4.193-.81 8.465-2.23 12.464-.502 1.415-.462 2.925-1.286 4.38-.746 1.315-.822 3.239-1.615 4.711-1.83 3.402-1.628 7.313-3.028 10.819-1.014 2.538-2.352 5.118-2.566 7.754-.246 3.04-2.563 5.218-2.706 8.19-.049 1.015-.631 2.016-1.03 3-1.493 3.666-3.196 7.262-4.46 11-.99 2.928-1.415 6.036-2.158 9.046-.424 1.727-1.029 3.409-1.47 5.131-.627 2.46-1.115 4.955-1.785 7.401-.56 2.045-1.326 4.035-1.952 6.063-.797 2.584-1.632 5.16-2.298 7.78-1.37 5.376-2.516 10.81-3.996 16.157-.778 2.808-2.062 5.48-3.129 8.212a372.57 372.57 0 0 1-1.962 4.913c-.123.296-.248.655-.489.831-1.32.963-1.607 2.413-2.145 3.813-1.118 2.91-2.827 5.502-4.831 7.942-2.2 2.68-4.361 5.421-6.182 8.35-1.19 1.913-1.668 4.237-2.604 6.317-.868 1.933-1.896 3.798-2.897 5.67-.59 1.105-1.666 1.082-2.3.322-.45-.54-.63-1.77-.307-2.37 1.43-2.659 3.083-5.202 4.66-7.784.804-1.316 1.643-2.613 2.406-3.951.19-.33.34-.902.178-1.169-1.632-2.68-.785-5.164.333-7.753.571-1.327.65-2.86.922-4.306.11-.583.123-1.182.204-1.771.291-2.118.623-4.232.881-6.354.433-3.58.6-7.204 1.285-10.735.803-4.142 1.077-8.27 1.141-12.471.051-3.39.783-6.767 1.128-10.158.07-.677-.308-1.387-.374-2.09-.108-1.133-.123-2.274-.188-3.411-.044-.743-.135-1.484-.161-2.227-.056-1.645-.234-3.304-.084-4.933a58.82 58.82 0 0 1 1.066-7.096c.575-2.652 1.753-5.223 1.987-7.886.2-2.274 1.085-4.014 2.108-5.942 1.014-1.91 2.36-3.93 1.766-6.352a.862.862 0 0 1 .005-.468c.626-1.832 1.426-3.625 1.86-5.5.527-2.283.96-4.625 1.054-6.956.143-3.612.454-7.18 1.562-11.013M657.097 72.019l-1.594-1.85c.23-.367.56-.896.83-1.325-.844-2.278.493-4.086 1.09-6.154-.342-.253-.758-.564-1.175-.874.157.05.313.1.47.148.734-1.683 1.5-3.354 2.188-5.055.293-.728.238-1.644.658-2.264 1.306-1.93 1.204-4.138 1.414-6.266.164-1.667.512-3.106 1.39-4.647 1.203-2.115 1.576-4.683 2.508-6.974.576-1.417 1.41-2.773 2.342-3.995 1.283-1.68 2.742-3.231 4.173-4.795 2.03-2.218 4.016-4.486 6.185-6.563 1.566-1.5 3.68-2.496 5.052-4.127 2.36-2.805 5.207-1.417 7.859-1.33 4.728.158 7.225 3.614 9.339 7.129 1.467 2.44 2.374 5.221 1.57 8.262-.15.57.554 1.361.925 2.184-2.669 1.172-2.805 3.705-3.13 6.322-.2 1.602-1.188 3.1-1.754 4.67a299.43 299.43 0 0 0-2.328 6.763c-.989 2.957-1.918 5.934-2.936 8.881-1.038 3.008-2.214 5.97-3.215 8.99-1.413 4.257-2.649 8.574-4.124 12.81-.38 1.095-1.467 1.929-2.052 2.98-.453.814-.641 1.776-.924 2.68a1222.4 1222.4 0 0 0-2.55 8.225c-.106.346-.313.865-.16 1.055 1.473 1.823.216 3.54-.18 5.266-.107.464-.571.851-.886 1.264-.252.327-.65.598-.767.962-.81 2.504-1.624 5.008-2.312 7.545-.507 1.872-.806 3.8-1.234 5.693-.248 1.097-.635 2.164-.85 3.266-.812 4.183-2.157 8.174-3.794 12.121-1.46 3.523-3.664 6.595-5.339 9.967-1.115 2.247-1.945 4.632-2.98 6.921-1.122 2.48-2.338 4.919-3.507 7.378-1.331 2.8-2.72 5.575-3.955 8.417-.611 1.408-.832 2.98-1.404 4.41-2.217 5.53-5.019 10.77-8.004 15.932-2.13 3.682-3.936 7.55-5.804 11.377-.707 1.447-1.068 3.065-1.798 4.499-.496.975-1.205 1.982-2.085 2.6-1.966 1.381-2.167 3.732-3.394 5.507-1.43 2.066-2.594 4.316-4.01 6.395-.283.417-1.178.523-1.8.545-.16.006-.608-.946-.475-1.285.256-.652.87-1.155 1.267-1.765a413.236 413.236 0 0 0 4.484-7.037c.213-.343.271-.815.296-1.233.145-2.53.189-5.07.409-7.594.232-2.665.46-5.348.993-7.963.483-2.358 1.543-4.6 2.04-6.957.549-2.605 1.34-5.092 1.303-7.933-.044-3.578 1.377-7.176 2.173-10.763.07-.311.264-.602.293-.913.235-2.52.391-5.051.677-7.567.307-2.71.837-5.398 1.067-8.113.25-2.94.403-5.903.351-8.852-.061-3.492.494-6.778 1.871-10.023 1.001-2.359 1.404-4.96 2.22-7.405 1.152-3.45 2.488-6.84 3.642-10.29.387-1.154.463-2.41.765-4.09-1.205-.172-2.451-.441-3.71-.512-2.281-.128-4.571-.118-6.856-.206-2.469-.094-4.944-.143-7.4-.377-4.77-.454-9.568.018-14.349-.932-2.72-.54-5.675.124-8.527.185-.958.02-1.92-.157-2.882-.221-3.363-.225-6.689-.077-9.726.87-.163 1.446-.337 2.712-.44 3.985-.107 1.3-.02 2.629-.24 3.907-.48 2.787-.896 5.613-1.72 8.307-.933 3.047-1.958 6.157-3.554 8.886-1.41 2.413-1.551 4.899-2.074 7.449-.496 2.421-1.821 4.672-2.733 7.016-.765 1.964-2.045 3.635-2.193 5.963-.154 2.409-1.18 4.783-1.966 7.125-.58 1.731-1.387 3.387-2.091 5.077-.081.194-.223.388-.23.586-.115 3.995-1.826 7.619-2.748 11.423-.668 2.75-1.905 5.36-2.784 8.067-.446 1.372-.576 2.845-1 4.228-.935 3.06-1.507 6.189-1.61 9.368-.116 3.591.005 7.19.018 10.785.003 1.183.309 2.492-.101 3.516-.451 1.127-1.556 2-2.396 2.968-.628.723-1.07.393-1.53-.251-1.41-1.968-1.532-4.261-1.794-6.537-.34-2.944-.03-5.95-1.3-8.816-.417-.942.27-2.324.276-3.505.02-3.84.708-7.878-.25-11.475-1.34-5.039-1.342-10.002-1.496-15.078-.149-4.882-1.053-9.736-1.41-14.619-.379-5.169-1.427-10.28-.829-15.547.255-2.24-.626-4.608-.992-6.918-.01-.05-.074-.098-.07-.143.26-3.305-.496-6.615.486-9.939 1.25-4.234 2.705-8.534 3.007-12.879.27-3.888 1.267-7.599 1.747-11.416.44-3.493 1.054-6.96 1.356-10.49.282-3.297 1.112-6.547 1.667-9.823.105-.62.074-1.265.076-1.9.008-2.308-.031-4.62.02-6.928.019-.843.078-1.748.399-2.507 1.66-3.927 1.793-8.027 1.768-12.2-.01-1.77.582-3.547.933-5.313.399-1.996.825-3.987 1.265-5.974.08-.357.219-.75.454-1.018 1.3-1.483 1.642-3.383 2.414-5.1.921-2.054 2.05-4.107 3.5-5.814 2.855-3.363 5.99-6.49 9.016-9.707 2.676-2.845 5.783-5.09 9.407-6.6 4.617-1.926 9.06-1.798 13.292 1.084 2.638 1.795 5.003 3.815 6.175 6.89.206.544.5 1.132.457 1.676-.15 1.924-.294 3.867-.695 5.748-.502 2.357-1.254 4.661-1.905 6.986-.645 2.305-1.244 4.625-1.969 6.903-.521 1.638-1.18 3.238-1.842 4.826-1.437 3.448-3.081 6.823-4.308 10.34-.625 1.79-.48 3.836-.787 5.75-.092.585-.559 1.102-.8 1.674-.4.947-.756 1.914-1.132 2.871-.233.594-.51 1.175-.697 1.784-.144.47-.178.976-.343 1.44-.41 1.964-.86 3.92-1.216 5.892-.386 2.136-.135 4.611-1.171 6.341-1.056 1.765-1.103 3.777-2.184 5.445-.274.424-.07 1.139-.13 1.715-.12 1.152-.268 2.3-.433 3.687.504.044 1.124.202 1.714.128 2.185-.278 4.354-.704 6.543-.94 2.08-.226 4.181-.26 6.27-.427 1.281-.102 2.554-.43 3.83-.426 2.31.01 4.619.29 6.927.275 3.271-.021 6.542-.289 9.814-.295 2.36-.006 4.75.059 7.071.425 3.16.5 6.29.843 9.477.4 1.162-.16 2.335-.357 3.501-.345 1.098.013 1.428-.53 1.53-1.444.32-2.928.573-5.867.994-8.781.412-2.858 1-5.69 1.503-8.536.048-.264.098-.548.052-.807-.29-1.597.48-2.186 2.33-2.407m95.849 2.01c-.902 0-1.58-.1-2.214.017-4.022.746-7.796 2.108-11.157 4.456-.218.15-.47.435-.665.403-1.956-.312-3.402 1.013-5.092 1.53-.997.303-1.883 1.006-2.762 1.61-2.33 1.6-4.69 3.167-6.916 4.9-1.252.976-2.237 2.276-3.378 3.395-1.866 1.826-3.804 3.584-5.617 5.458-.641.66-.979 1.598-1.508 2.374-.686 1.005-1.416 1.98-2.143 2.956-1.653 2.22-3.416 4.369-4.943 6.67-1.152 1.737-1.343 3.73-1.019 5.825.168 1.079-.044 2.263-.308 3.347-.646 2.648.056 5.183.435 7.759.174 1.185.138 2.398.25 3.594.108 1.143.058 2.367.474 3.402 1.062 2.638 2.11 5.333 3.608 7.739 1.56 2.506 3.542 4.786 5.524 7.007 1.798 2.014 4.112 3.622 5.71 5.758 2.05 2.743 4.985 4.025 7.81 5.57 5.041 2.758 10.625 3.659 16.217 4.58 3.618.595 7.245.47 10.869.326 1.704-.068 3.424-.38 5.083-.793 3.26-.81 6.5-1.718 9.717-2.682 3.228-.966 5.953-2.694 8.079-5.331 1.01-1.251 2.25-2.319 3.339-3.51 2.502-2.742 3.802-6.093 4.625-9.585 1.16-4.905 2.689-9.729 2.994-14.826.192-3.204 1-6.369 1.41-9.565.196-1.534.102-3.105.154-4.658a28.92 28.92 0 0 1 .13-2.144c.17-1.54-.674-2.547-2.189-2.818-.736-.132-1.551-.425-2.088-.906-1.5-1.34-3.39-1.687-5.151-1.488-3.178.357-6.433.83-9.399 1.926-1.9.701-3.18.318-4.708-.401-1.746-.825-3.499-1.646-5.296-2.351-.444-.174-1.074.105-1.56.169-1.63-1.065-3.363-2.016-4.88-3.226-2.758-2.198-5.013-4.803-5.993-8.276-.342-1.211-.797-2.39-1.154-3.597-.085-.288-.072-.872.04-.911 2.071-.71 1.75-2.663 2.1-4.128.426-1.788 1.645-2.766 2.891-3.892 2.21-2 4.926-3.04 7.573-4.265 1.45-.671 2.89-1.463 4.118-2.458.996-.808 1.552-1.985-.58-2.629 1.613-.955 3.056-1.69 4.35-2.623.72-.52 1.155-1.405 1.788-2.062.462-.477 1.018-1.176 1.565-1.21 2.221-.13 4.457-.026 6.686-.04 1.672-.012 3.364-.254 5.01-.07 2.12.237 4.187.937 6.308 1.181 2.548.294 5.074.664 7.676-.32 1.395-.526 3.213-.443 4.724-.117 4.347.936 8.67 2.02 12.933 3.273 2.562.753 5.059 1.82 6.985 3.788.218.223.466.49.532.774.68 2.879 3.1 4.256 5.256 5.825 2.515 1.828 4.19 4.22 5.633 6.918 2.288 4.28 2.748 8.82 2.392 13.476-.272 3.542-1.012 6.953-2.444 10.34-1.821 4.3-3.561 8.877-3.945 13.447-.397 4.738-2.66 8.583-4.139 12.802-.529 1.515-1.576 2.848-2.258 4.321-.384.832-.366 1.847-.768 2.667-1.74 3.553-3.491 7.106-5.38 10.583-2.57 4.73-6.388 8.533-9.95 12.519-.422.47-.666 1.089-1.035 1.609-1.345 1.897-3.162 3.122-5.368 3.967-3.23 1.24-6.343 2.771-9.572 4.013-2.354.904-4.809 1.56-7.23 2.292a634.81 634.81 0 0 1-8.718 2.569c-3.924 1.126-7.926 1.407-11.996 1.09-1.151-.088-2.323.137-3.487.168-1.438.042-2.882.11-4.315.029-5.804-.332-11.61-.627-17.398-1.13-2.25-.195-4.435-1.018-6.68-1.351-2.45-.364-4.964-.332-7.397-.757-4.764-.832-9.34-2.238-13.542-4.718-2.443-1.443-4.93-2.895-7.567-3.923-2.178-.847-4.023-2.052-5.815-3.428-.212-.163-.464-.347-.555-.575-1.364-3.387-4.398-5.216-7.003-7.497-1.665-1.458-2.943-3.362-4.29-5.143-1.445-1.912-2.789-3.901-4.142-5.88-2.143-3.132-3.642-6.405-3.907-10.33-.285-4.213.05-8.333.979-12.375.785-3.42 2.245-6.61 4.61-9.422 2.306-2.742 4.188-5.827 6.287-8.74.467-.647 1.026-1.24 1.6-1.802 2.556-2.513 5.113-5.029 7.721-7.49.571-.537 1.394-.808 2.039-1.283 2.897-2.139 5.638-4.514 8.69-6.408 3.364-2.085 7.001-3.744 10.527-5.573.43-.224.955-.29 1.358-.548 2.715-1.73 5.805-2.46 8.85-3.362 2.128-.632 4.125-1.686 6.243-2.363 3.854-1.232 7.436-2.955 10.825-5.131 1.465-.942 3.808-.163 4.904 1.689m367.079-43.675c2.041 0 4.08.01 6.12-.003 2.238-.017 4.495.114 6.714-.117 5.802-.605 11.368 1.347 17.107 1.48 1.56.035 3.441-.128 4.759 1.522.442.552 1.69.51 2.584.626 3.337.438 6.074 2.136 8.624 4.18 1.122.898 1.74 2.123 1.812 3.64.037.81.368 1.608.648 2.738-.958.672-2.24-.175-3.466-.27-2.45-.188-4.885-.596-7.337-.752a537.884 537.884 0 0 0-14.425-.724c-3.053-.113-6.115-.102-9.172-.072-2.313.023-4.68-.122-6.92.328-3.1.62-6.107 1.719-9.146 2.636-3.832 1.157-7.727 1.952-11.687 2.57-4.305.674-8.505 2.046-12.816 2.637-5.045.692-9.252 3.391-13.875 5.072-5.928 2.155-10.777 6.156-16.288 9.01-1.895.98-3.395 2.79-4.956 4.343-.374.372-.406 1.234-.371 1.859.102 1.868.168 3.757.511 5.588 1.398 7.432 6.75 11.56 12.692 15.171 1.895 1.15 3.652 2.599 5.66 3.472 3.753 1.631 7.695 2.816 11.46 4.42 3.65 1.554 7.193 3.362 10.747 5.134a151.36 151.36 0 0 1 7.135 3.82c1.592.903 3.062 2.025 4.665 2.907 1.934 1.062 3.957 1.959 5.928 2.955 1.015.513 1.993 1.095 2.997 1.627 3.29 1.745 6.527 3.611 9.9 5.178 2.616 1.216 5.419 2.013 8.111 3.07 4.044 1.587 8.063 3.238 12.092 4.862 2.648 1.067 5.355 2.012 7.925 3.243 1.507.722 2.813 1.879 4.184 2.875.74.538 1.38 1.226 2.148 1.714 1.791 1.134 2.796 2.823 3.51 4.744.054.147.095.343.047.481-.914 2.59-.902 5.5-3.089 7.645-2.585 2.535-4.948 5.3-7.435 7.94-.92.977-1.986 1.82-2.864 2.831-2.232 2.566-4.338 5.246-6.609 7.775-1.253 1.393-2.801 2.512-4.105 3.864-1.425 1.478-2.679 3.12-4.091 4.609-.54.569-1.365.852-1.979 1.362-2.71 2.256-5.491 4.438-8.053 6.853-3.233 3.045-6.911 5.299-10.841 7.297-4.457 2.267-8.702 4.959-13.137 7.274-2.53 1.32-5.256 2.253-7.891 3.365-2.738 1.154-5.49 2.278-8.205 3.48-3.097 1.37-6.162 2.816-9.244 4.22-2.347 1.07-4.685 2.16-7.055 3.17-.831.355-1.742.539-2.63.741-4.587 1.049-9.15 2.242-13.777 3.07-5.405.966-10.866 1.622-16.305 2.387-4 .56-7.994 1.383-12.012 1.534-4.416.165-8.88-.085-13.277-.564-3.882-.424-7.705-.398-11.58-.134-2.32.159-4.7-.05-7-.42-.918-.147-1.812-1.066-2.516-1.823-2.68-2.879-6.358-3.177-9.835-4.012-1.261-.303-2.537-.545-3.792-.873-.544-.142-1.05-.43-1.574-.651l.065-.526c2.294 0 4.588-.028 6.882.007 4.511.068 9.026.285 13.536.225 3.672-.05 7.355-.27 11.005-.673 4.122-.453 8.214-1.184 12.315-1.817 1.385-.214 2.769-.451 4.134-.768 1.552-.36 3.078-.842 4.625-1.23 2.967-.742 5.961-1.375 8.905-2.195 5.278-1.47 10.55-2.968 15.778-4.607 3.178-.995 6.259-2.3 9.399-3.423 6.3-2.252 12.025-5.626 17.694-9.114 2.673-1.646 5.415-3.196 7.97-5.012 2.41-1.715 4.635-3.701 6.91-5.607 1.492-1.25 2.93-2.57 4.391-3.86 2.715-2.403 5.433-4.802 8.142-7.212 3.79-3.374 6.804-7.437 9.95-11.383 2.973-3.728 5.914-7.48 7.699-11.963.75-1.887 1.264-3.873 1.8-5.838.08-.289-.225-.859-.515-1.047-2.407-1.557-4.716-3.38-7.318-4.499-4.304-1.85-8.87-3.078-13.193-4.886-1.866-.778-3.396-2.36-5.096-3.55-2.16-1.511-4.247-3.164-6.535-4.45-2.49-1.4-5.132-2.556-7.787-3.62-2.273-.912-4.713-1.405-6.98-2.33-4.589-1.873-9.127-3.868-13.648-5.904-2.358-1.063-4.627-2.33-6.945-3.489-2.27-1.133-4.55-2.243-6.825-3.363-1.899-.936-3.81-1.853-5.697-2.817-1.333-.683-2.615-1.468-3.955-2.141-3.322-1.673-6.568-3.558-10.026-4.88-2.876-1.101-5.988-1.626-9.035-2.212-2.737-.528-5.275-1.274-7.62-2.961-2.19-1.575-3.203-5.384-2.468-8.068.774-2.823 2.573-5 4.501-6.929 3.941-3.94 7.47-8.342 12.282-11.37 2.039-1.284 3.748-3.087 5.708-4.515 1.428-1.04 3.032-1.83 4.536-2.769 2.643-1.65 5.265-3.337 7.904-4.995 1.603-1.01 3.194-2.039 4.834-2.983 2.8-1.613 5.575-3.289 8.47-4.713 3.762-1.851 7.533-3.773 11.482-5.125 4.194-1.436 8.566-2.44 12.93-3.251 2.79-.52 5.708-.303 8.565-.501 2.802-.194 5.608-.42 8.39-.798.837-.113 1.585-.814 2.403-1.182 1.037-.467 2.07-1.057 3.165-1.254 1.555-.28 3.163-.318 4.75-.338 1.842-.025 3.548 1.407 3.798 3.032M932.143 230.636c.878-1.021 1.8-2.003 2.598-3.08.244-.329.174-.916.195-1.387.07-1.493.112-2.988.173-4.481.015-.373.102-.744.09-1.114-.099-3.006.997-5.641 2.202-8.332 1.423-3.176 2.446-6.535 3.659-9.808.22-.59.58-1.13.763-1.728.733-2.42 1.306-4.896 2.16-7.269.894-2.49 2.06-4.877 3.075-7.324.6-1.444 1.467-2.875 1.632-4.378.43-3.912 2.35-7.274 3.627-10.858 1.556-4.36 2.793-8.75 3.253-13.37.14-1.4.683-2.757 1-4.143a29.5 29.5 0 0 0 .455-2.557c.367-2.652.779-5.299 1.04-7.96.227-2.303.248-4.626.41-6.935.2-2.857-.57-5.677.163-8.602.495-1.986.01-4.213.018-6.333.014-3.582.166-7.168.083-10.747-.096-4.064-.323-8.126-.626-12.18-.107-1.46-.672-2.88-.889-4.339-.335-2.24-.516-4.503-.824-6.748-.308-2.245-.703-4.479-1.039-6.72-.196-1.312-.21-2.671-.561-3.936-.491-1.767-1.29-3.445-1.832-5.2-.71-2.29-1.239-4.639-1.96-6.926-.641-2.044-1.81-3.99-2.071-6.065-.31-2.478-1.725-4.95-.48-7.552.148-.308.194-.776.078-1.089-1.399-3.708-1.713-7.365.125-11.058.43-.866.501-1.927.667-2.911.57-3.41 2.297-6.382 3.648-9.475.74-1.695 2.038-3.202 3.304-4.592 1.713-1.882 3.502-3.75 5.516-5.283 1.53-1.164 3.413-1.924 5.226-2.635 2.9-1.138 5.934-1.94 8.794-3.163 2.074-.889 4.104-.776 6.203-.571.681.065 1.359.253 2.04.257 1.99.012 3.083 1.504 4.346 2.663 2.019 1.854 4.164 3.63 5.864 5.758 1.897 2.373 3.898 4.842 3.645 8.274-.214 2.905.11 5.672.898 8.58.988 3.646.885 7.588.298 11.454-.228 1.497.102 3.195.595 4.659.668 1.986 1.844 3.79 2.608 5.75 1.139 2.92 1.894 5.896 1.075 9.118-.338 1.33-.169 2.8-.16 4.206.006.886.135 1.773.219 2.658.328 3.463.677 6.925.982 10.39.079.904.002 1.82.024 2.73.09 3.798-.667 7.465-1.523 11.144-.546 2.35-.655 4.8-1.02 7.197-.124.82-.536 1.6-.635 2.42-.309 2.568-.458 5.158-.82 7.717-.143 1.004-.504 2.08-1.078 2.9-1.28 1.831-.743 4.002-1.335 5.944-.065.212.202.535.127.733-1.052 2.743-2.184 5.458-3.192 8.217-.52 1.43-.835 2.933-1.236 4.406-.865 3.182-1.55 6.425-2.64 9.526-.88 2.5-2.252 4.824-3.396 7.232-1.731 3.646-3.416 7.314-5.19 10.939-2.843 5.807-5.65 11.636-8.655 17.358-1.546 2.941-3.53 5.646-5.234 8.505-1.151 1.932-1.874 4.197-3.3 5.872-2.186 2.567-3.132 5.69-4.658 8.551-1.264 2.375-2.466 4.815-4.515 6.71-1.082 1.003-1.782 2.41-2.769 3.532-2.938 3.348-6.161 6.297-10.031 8.638-2.834 1.716-5.262 4.152-7.726 6.426-1.523 1.407-1.663 1.576-3.483.385" fill="#222" fill-rule="evenodd"/></svg>