<svg width="1024" height="177" viewBox="0 0 1024 177" xmlns="http://www.w3.org/2000/svg"><path d="M1024 9.89c-.176.336-.415.655-.517 1.012a45.08 45.08 0 00-.647 2.652c-.12.546-.268 1.098-.281 1.651-.067 2.736-1.44 4.92-3.043 7.026-.962 1.264-1.84 2.587-2.812 3.84-.955 1.233-2.044 2.371-2.952 3.632-.472.656-.632 1.515-1.02 2.238-.465.863-1.017 1.682-1.545 2.513-.536.842-1.125 1.654-1.625 2.515-.87 1.504-1.717 3.02-2.525 4.557a45.634 45.634 0 00-1.66 3.48c-.662 1.569-1.228 3.177-2.54 4.393a1.53 1.53 0 00-.42.657c-.652 2.269-1.274 4.546-1.922 6.816-.566 1.983-1.158 3.96-1.737 5.94-.414 1.411-1.41 2.615-1.429 4.193-.009.689-.566 1.357-.777 2.062-.482 1.61-.849 3.254-1.37 4.85-.47 1.44-1.09 2.83-1.621 4.252-.077.206-.024.46-.02.692.004.288.103.601.018.858-.692 2.108-1.388 4.215-2.146 6.302-.515 1.418-1.176 2.786-1.687 4.205-.453 1.26-.762 2.567-1.185 3.838-.8 2.401-1.663 4.783-2.447 7.188-.552 1.688-.937 3.43-1.543 5.097-.485 1.332-1.26 2.562-1.774 3.886-.444 1.145-.672 2.368-1.048 3.54a78.96 78.96 0 01-1.258 3.564c-.77 2.053-1.83 4.006-1.833 6.292-.002 1.01-.249 2.045-.543 3.024-1.048 3.472-2.195 6.915-3.238 10.388-.49 1.63-.713 3.342-1.272 4.947-.44 1.26-1.345 2.367-1.802 3.624-.651 1.797-2.48 1.615-3.742 2.377-1.289.78-1.76 2.394-.913 3.757.56.901.231 1.198-.539 1.563-.969.459-1.606 1.895-1.37 2.93.068.299.21.599.19.89-.015.254-.209.497-.324.745-.238-.178-.63-.318-.69-.542-.555-2.052-1.207-4.004-.549-6.277.547-1.888.252-4.004.346-6.017.046-.978.272-1.97.163-2.927-.239-2.097-.748-4.165-.947-6.263-.271-2.843-.347-5.702-.523-8.553-.076-1.249-.28-2.495-.277-3.742.004-2.19.152-4.382.182-6.574.02-1.421-.177-2.853-.071-4.265.112-1.507.475-2.995.702-4.494.04-.26-.053-.539-.096-.806-.03-.181-.182-.438-.108-.526.91-1.082.011-2.408.6-3.61.553-1.13.587-2.497.873-3.754.503-2.204 1.12-4.389 1.506-6.611.315-1.82.687-3.588 1.562-5.24.129-.241.072-.58.083-.875.054-1.515.424-2.956.905-4.399.2-.605-.062-1.35-.074-2.032-.006-.337-.033-.745.139-1.003.761-1.148.647-2.447.866-3.704.246-1.41.903-2.749 1.278-4.144a47.11 47.11 0 00.944-4.343c.198-1.167.129-2.386.404-3.531.306-1.272.872-2.485 1.313-3.728.05-.142.027-.31.029-.467.003-.437-.079-.892.017-1.308.208-.906.471-1.805.775-2.685.731-2.12 1.458-4.244 2.266-6.337.575-1.494 1.28-2.941 1.927-4.41.426-.964.876-1.92 1.274-2.894.496-1.21.938-2.441 1.427-3.653a145.29 145.29 0 011.86-4.453c.194-.44.588-.791.817-1.22 1.488-2.781 2.773-5.685 4.5-8.316.978-1.49 1.765-3.112 2.804-4.485.966-1.275 1.402-2.89 2.79-3.941.883-.669 1.358-1.828 2.078-2.72 1.354-1.676 2.617-3.414 4.343-4.8 1.39-1.118 2.613-2.437 3.87-3.703.799-.806 3.806-1.544 4.893-1.102 1.948.79 3.966 1.15 6.071.92.455-.05.885-.286 1.34-.371 1.03-.191 2.064-.426 3.104-.463.336-.012.798.473 1.024.834 1.093 1.753 2.125 3.541 3.179 5.317v.232zm-817.463 39.8c-.118.395-.124.591-.222.713-1.108 1.385-2.245 2.746-3.344 4.136-.656.83-1.326 1.66-1.87 2.564-1.516 2.51-2.942 5.077-4.46 7.588-.73 1.208-1.951 1.98-2.778 3.188-1.044 1.524-1.993 3.018-2.61 4.882.818.109 1.559.233 2.306.302 1.94.184 3.882.342 5.823.518.14.013.272.102.411.134.536.122 1.068.287 1.61.343 2.116.222 4.237.388 6.353.614 1.36.145 2.709.407 4.07.508.31.022.939-.416.934-.63-.026-.972-.235-1.94-.359-2.913-.184-1.45-.394-2.9-.514-4.357-.141-1.732-.119-3.48-.312-5.205-.191-1.69-.273-3.486-.928-5.007-.877-2.035-.882-4.145-1.22-6.23-.039-.244.24-.54.373-.813l.295.013c-.266.943-.236 1.578.931 1.203.223-.071.56.01.769.142.946.6 1.948 1.152 2.775 1.895 1.132 1.014 2.276.923 2.772-.521-.763-.117-1.948.278-1.813-.711-.65-.599-1.05-.969-1.453-1.335-.21-.191-.415-.39-.643-.558-.528-.39-1.074-.758-1.603-1.147-.46-.34-.906-.698-1.365-1.04-.198-.148-.411-.275-.617-.412l.044-.38c.424 0 .864.072 1.268-.017.447-.1.863-.344 1.33-.54-1.532-1.421-3.685-1.812-4.543-.825l.649.561c-.254.56-.45 1.098-.733 1.587-.228.395-.498.896-.868 1.039-.246.095-.703-.357-1.29-.693-.19.363-.493.795-.623 1.275-.048.174.32.46.49.688l.965-.559m179.382-21.424c-1.159.518-2.344 1.144-3.598 1.562-.554.184-1.268.016-1.865-.152-.17-.048-.184-.658-.314-1.197-.61-.484-1.301-1.165-2.544-.926-.57.11-1.26-.621-1.939-.812-2.587-.732-5.225-.973-7.921-1.01-2.498-.036-4.99-.469-7.484-.743-2.752-.305-5.495-.77-8.256-.894-1.752-.08-3.523.413-5.293.502-2.146.107-4.303.009-6.452.098-1.207.05-2.408.44-3.61.425-2.217-.028-3.887 1.466-5.907 1.93-2.128.49-4.197 1.102-6.497.601-1.14-.248-2.512.355-3.73.732-2.35.727-4.762 1.367-6.973 2.414-2.58 1.22-5.387 1.82-7.855 3.407-1.573 1.012-3.662 1.223-5.522 1.784-2.314.699-4.638 1.366-6.944 2.09-1.097.344-2.164.787-3.234 1.18-.476 1.902.967 2.81 1.97 3.934.404.452.826.892 1.274 1.3 1.528 1.392 3.056 2.785 4.614 4.144a103.646 103.646 0 004.095 3.425c1.04.817 2.187 1.494 3.237 2.3 1.98 1.521 4.058 2.953 5.843 4.683 1.503 1.457 3.374 2.218 5.028 3.366 1.336.926 2.653 1.882 4.02 2.76 1.777 1.14 3.673 2.11 5.372 3.352 1.469 1.073 2.766 2.392 4.083 3.661a147.59 147.59 0 014.773 4.798 251.777 251.777 0 015.978 6.518c.753.854 1.582 1.701 1.643 2.999.014.287.494.685.828.777.21.059.55-.357 1.01-.689 1.464 1.565 3.066 3.261 4.648 4.975.581.63 1.184 1.26 1.66 1.969.992 1.482 1.89 3.028 2.86 4.527.385.597.87 1.128 1.285 1.708.577.807 1.13 1.63 1.694 2.446.337.49.65.998 1.016 1.466.882 1.123 1.844 2.186 2.673 3.346 1.688 2.364 3.414 4.713 4.923 7.19 1.034 1.7 1.705 3.618 2.583 5.416.547 1.118 1.249 2.162 1.754 3.296.763 1.714 1.59 3.432 2.052 5.236.302 1.186 1.091 1.552 1.92 2.026.849.486 1.802.81 2.59 1.375 1.847 1.326 1.986 2.896.507 4.692-.402.487-.91.892-1.272 1.403-.22.313-.237.765-.378 1.143-.131.351-.22.8-.483 1-.27.206-.877.358-1.08.2-1.73-1.344-3.547-.688-5.2-.087-2.556.93-5.22.983-7.839 1.306-2.685.332-5.423.406-8.131.33-3.317-.094-6.622-.529-9.938-.688-2.576-.123-5.165-.157-7.74-.038-3.087.143-6.166.505-9.25.743-.594.045-1.197-.08-1.796-.067-2.797.055-5.594.222-8.388.174-2.868-.05-5.731-.33-8.6-.45-1.307-.055-2.63.128-3.933.036-2.6-.183-5.194-.48-7.789-.734-.224-.022-.447-.105-.667-.092-2.743.165-5.484.46-8.228.486-2.945.027-5.914-.02-8.836-.354-3.796-.431-7.427-1.536-10.726-3.594-.861-.538-1.875-.828-2.808-1.255-.795-.365-1.554-.815-2.364-1.136-1.444-.57-2.892-1.147-4.379-1.583a70.328 70.328 0 00-5.726-1.431c-1.745-.357-3.53-.52-5.283-.836-1.191-.215-2.349-.702-3.541-.79-2.043-.15-2.266.243-1.533 2.205.211.565.77 1.128.712 1.64-.136 1.22.46 2.233.655 3.347.27 1.546.952 3.045 1.042 4.589.057.96.04 1.878.383 2.796.315.837.466 1.74.816 2.558a76.748 76.748 0 002.264 4.853c.567 1.102 1.282 2.127 1.773 3.404-.298-.193-.68-.324-.877-.592-1.46-1.989-2.8-4.07-4.339-5.993-1.88-2.352-3.042-5.079-4.35-7.736-.838-1.707-1.578-3.463-2.43-5.163-1.37-2.74-2.73-5.49-4.247-8.148-.383-.672-1.28-1.273-2.049-1.459-3.852-.927-7.348-2.667-10.862-4.417-2.58-1.285-5.258-2.37-7.873-3.583-1.687-.782-3.306-1.72-5.02-2.432-1.498-.622-3.079-1.053-4.64-1.508-.336-.097-.745.091-1.123.105-1.188.045-2.165-.837-2.305-2.06-.115-1.003.395-1.439 1.344-1.127.32.105.68.205.917.422 1.584 1.442 3.488.95 5.317.948 3.383-.004 6.621.412 9.585 2.35 1.462.955 3.224 1.471 4.886 2.09 2.02.754 4.093 1.366 6.11 2.127.657.248 1.21.774 1.811 1.173l.266-.263c-.48-1.203-.93-2.419-1.448-3.606-1.069-2.455-2.12-4.92-3.278-7.332-1.118-2.333-2.324-4.625-3.558-6.9-1.141-2.101-2.585-4.066-3.502-6.256-.998-2.386-1.578-4.952-2.266-7.461-.247-.898-.263-1.859-.41-2.787-.167-1.048-.84-1.493-1.81-1.469-2.185.056-4.378.12-6.557-.004-2.785-.159-5.555-.55-8.339-.748-3.11-.22-6.227-.358-9.343-.487-1.595-.065-3.114.213-4.097 1.662-.561.828-.982 1.752-1.533 2.588-1.183 1.799-1.668 3.93-3.025 5.693-1.377 1.789-2.174 4.015-3.406 5.933-.924 1.44-2.206 2.643-3.196 4.046-.799 1.132-1.384 2.414-2.093 3.612-.703 1.186-1.394 2.383-2.172 3.518-1.43 2.087-2.997 4.085-4.367 6.21-1.586 2.46-3.016 5.02-4.525 7.53-.61 1.018-1.107 2.155-1.91 2.992-1.097 1.141-2.299 2.192-3.29 3.434-.656.823-1.24 1.72-1.754 2.64-.42.752-.677 1.598-1.037 2.388-.17.369-.405.709-.622 1.055-1.366 2.167-2.736 4.333-4.103 6.5-.019.03-.01.078-.028.11-.587 1.138-1.062 2.356-1.795 3.39-.913 1.29-2.105 2.378-3.054 3.645-.705.94-1.284 1.994-1.795 3.057-1.164 2.415-2.259 4.864-3.368 7.306-.844 1.857-1.6 3.76-2.536 5.57-.297.572-.986 1.114-1.606 1.302-.837.254-1.082.838-1.227 1.48-.332 1.482-.855 1.929-2.819 1.816.658-.84 1.084-1.612 1.716-2.131.695-.571 1.004-1.106.6-1.938-.704-1.453-.427-2.821.11-4.284.367-1 .301-2.156.454-3.24.068-.476.037-1.15.328-1.383 1.747-1.393 2.528-3.343 3.312-5.322 1.35-3.41 2.716-6.813 4.118-10.202.92-2.227 1.962-4.403 2.856-6.64.344-.858.421-1.822.632-2.735.102-.44.146-.922.364-1.3 1.602-2.777 2.312-5.897 3.463-8.845 1.018-2.61 2.433-5.063 3.645-7.597.406-.848.693-1.752 1.093-2.602 1.043-2.219 2.208-4.385 3.159-6.642 1.096-2.604 2.025-5.278 3.006-7.93 1.196-3.235 2.83-6.234 4.705-9.123 1.19-1.832 2.183-3.792 3.285-5.683.336-.577.74-1.114 1.29-1.932l-2.538-.307c.805-.62 1.395-1.418 2.115-1.562 1.988-.397 2.604-2.022 3.549-3.417 1.1-1.625 2.3-3.182 3.428-4.789.742-1.056 1.411-2.164 2.151-3.222 1.022-1.46 2.187-2.829 3.098-4.353 1.825-3.052 3.462-6.217 5.293-9.266.944-1.574 2.135-2.998 3.26-4.552.357.14.732.29 1.244.493-1.443-2.82.827-4.195 2.122-5.945.105-.142.288-.227.389-.372.968-1.39 1.9-2.806 2.91-4.165.19-.255.677-.288.815-.34.32-1.013.604-1.904.901-2.841.74.055 1.404.2 1.724 1.09.07.188.64.355.899.274.34-.105.602-.465.898-.716-.204-.231-.364-.555-.62-.675-.707-.331-1.453-.578-2.192-.86 2.83-4.285 6.013-8.082 10.453-10.867-.77.05-1.543.078-2.31.157-2.261.231-4.525.453-6.78.737-1.53.192-3.041.533-4.573.713-1.306.154-2.628.18-3.943.25-1.957.101-3.917.147-5.87.296-4.199.319-8.39.75-12.592 1.012-2.474.155-4.964.09-7.447.085-.391-.001-.783-.216-1.134-.108l-2.196.329 1.179-1.7-.131-.404-2.637.202 1.046 1.45c-.903.363-2.98-.036-3.442-.708-.502 1.037-1.304.793-2.18.645-.956-.161-1.95-.103-2.929-.145-2.295-.1-4.59-.202-6.884-.303-2.066-.09-4.132-.227-6.2-.253-1.145-.014-1.857.66-1.647 1.732.141.716.031 1.278-.063 1.945-.235 1.658-.309 3.34-.415 5.015-.162 2.56-.239 5.127-.465 7.682-.129 1.465-.506 2.906-.72 4.365-.084.572-.005 1.166-.048 1.746-.088 1.175-.117 2.366-.347 3.516-.162.806.087 1.58-.31 2.464-.567 1.26-.536 2.79-.754 4.206-.216 1.399-.677 2.817-.583 4.196.234 3.425-1.689 6.365-1.88 9.715-.15 2.634-1.237 5.208-1.461 7.847-.237 2.801-1.198 5.393-1.704 8.105a203.586 203.586 0 01-.831 4.262 12.84 12.84 0 01-.456 1.55c-.664 1.934-1.32 3.87-2.023 5.79-.416 1.135-1.129 2.202-1.327 3.366-.366 2.152-2.207 3.455-2.782 5.522-.45 1.621-1.651 3.023-2.442 4.562-2.137 4.158-4.178 8.367-6.368 12.496-1.12 2.112-2.507 4.082-3.72 6.148-.827 1.409-1.551 2.88-2.34 4.312-.82 1.495-1.748 2.939-2.472 4.479-.657 1.395-1.069 2.904-1.664 4.332-.212.509-.689.9-.969 1.388-1.248 2.178-2.504 4.353-3.68 6.571-.525.989-.831 2.093-1.302 3.114-.597 1.297-1.247 2.57-1.898 3.84-.533 1.039-.895 2.285-1.706 3.03-1.03.947-1.201 2.222-1.859 3.288-.762 1.234-1.395 2.549-2.175 3.77-.733 1.147-.74 2.283-.34 3.526.15.47.275 1.134.055 1.481-.177.28-.986.422-1.344.255-.44-.204-.886-.752-.991-1.227-.123-.55.074-1.195.214-1.78.501-2.098 1.35-4.168 1.486-6.287.212-3.287 1.864-6.208 2.031-9.47.023-.441.254-.868.343-1.31.316-1.572.527-3.171.941-4.716.458-1.705 1.147-3.347 1.645-5.043.792-2.7 2.282-5.206 2.259-8.135-.022-2.728.616-5.33 1.5-7.887.837-2.418 1.794-4.808 2.423-7.281.567-2.228.77-4.55 1.116-6.834.335-2.205.694-4.407.958-6.621.182-1.536.227-3.09.325-4.636.175-2.787.29-5.58.533-8.362.183-2.072.48-4.137.815-6.191.314-1.926.744-3.834 1.122-5.75.044-.22.078-.446.127-.667.349-1.559.56-3.168 1.09-4.662.576-1.615.585-3.225.566-4.88-.01-.911.076-1.825.15-2.735.105-1.279.206-2.56.37-3.832.311-2.427.666-4.848 1.003-7.271.016-.114.087-.259.043-.336-.852-1.486.03-2.984-.037-4.477-.129-2.954-.2-5.912-.23-8.869-.014-1.343.17-2.687.19-4.032.05-3.448.03-6.897.098-10.345.032-1.598.254-3.192.287-4.79.011-.535-.298-1.076-.4-1.408-2.436 0-4.77-.06-7.102.016-2.735.09-5.466.322-8.2.448-3.058.14-6.123.174-9.178.357-3.64.217-7.275.541-10.911.822-2.655.206-5.32.337-7.964.644-3.145.366-6.27.895-9.406 1.333-2.79.39-5.586.724-8.371 1.136-1.942.287-3.861.748-5.809.977-2.138.252-4.3.47-6.447.442a74.85 74.85 0 01-8.154-.567c-1.005-.124-1.989-.735-2.9-1.268-3.07-1.798-6.472-1.984-9.88-2.11-2.886-.106-5.777-.107-8.666-.177-.59-.014-1.178-.126-1.766-.194L0 28.02l8.268-2.535c-.603-1.514-.539-1.57.92-2.043 2.38-.771 4.791-1.487 7.092-2.457 1.219-.515 2.195-1.578 3.348-2.283 1.439-.88 2.586-2.17 4.516-2.333 2.59-.218 5.133-.932 7.712-1.324 2.196-.334 4.422-.47 6.623-.78 1.08-.152 2.132-.507 3.2-.755 2.981-.694 5.938-1.562 8.957-2.018 2.798-.422 5.66-.477 8.497-.555 2.76-.075 5.529.119 8.288.022 2.496-.09 4.98-.483 7.477-.605 1.504-.072 3.02.169 4.53.184 3.923.04 7.85-.056 11.769.07 3.8.122 7.596.422 11.389.716.805.063 1.606.386 2.375.68 1.174.446 1.842-.109 2.642-.922 1.497-1.524 3.164-2.881 4.78-4.285 1.063-.926 2.254-1.724 3.207-2.748.634-.682 1-1.639 1.395-2.514.729-1.615 1.246-1.853 2.829-1.193 3.535 1.474 7.016 3.05 10.087 5.393 1.55 1.182 3.17 2.312 3.68 4.396.083.345.51.6.606.946.156.557.17 1.155.266 1.91.941.057.075 2.01 1.48 2.075l.714-4.685.253-.041.768 4.376 17.905 2.073.24-.372c.912.139 1.677.334 2.447.357 3.118.093 6.24.072 9.356.207 4.704.205 9.403.52 14.105.751 1.293.064 2.592-.039 3.887-.002 2.454.07 4.908.265 7.362.26 2.1-.006 4.2-.326 6.298-.3 1.31.015 2.608.515 3.924.61 1.247.089 2.511-.068 3.952-.123 1.64.833 3.467 1.966 5.775 1.276 1.511-.453 3.02-1.179 4.552-1.242 1.902-.079 3.822.463 5.744.624 2.598.218 3.654 1.929 4.362 4.146.622 1.949 1.487 3.822 2.06 5.783.515 1.757.763 3.592 1.152 5.388a556.89 556.89 0 001.467 6.576c.452 1.97 1 3.92 1.355 5.907.134.756-.157 1.587-.286 2.654.654.755.764 1.918.194 3.071.175.861.43 1.49.404 2.106-.084 1.886-.278 3.767-.424 5.65-.011.15-.028.326.035.45.666 1.326.22 2.672.18 4.03-.05 1.608.248 3.224.318 4.84.097 2.2.115 4.404.177 6.607.024.804.07 1.61.12 2.413.008.142.11.281.11.42-.017 2.145-.104 4.29-.046 6.433.04 1.483.35 2.957.411 4.44.107 2.573.079 5.15.18 7.724.042 1.088.382 2.168.387 3.253.016 3.126-.022 6.253-.13 9.377-.077 2.185.367 4.227.977 6.318.49 1.681.354 3.54.592 5.306.053.394.437.844.793 1.077 1.762 1.156 3.88.812 5.81 1.29 1.531.38 3.083.676 4.63.984 3.363.667 6.707 1.5 10.101 1.921 2.864.356 5.797.118 8.684.344 2.695.21 5.368.699 8.054 1.04 1.225.157 2.455.296 3.688.366 1.915.11 3.724.429 5.475 1.369 1.163.625 2.576.904 3.91 1.067 2.847.346 5.724.452 8.574.778 1.718.196 3.402.672 5.116.92.94.137 1.91.034 2.864.088 3.635.205 7.267.537 10.905.608 2.194.043 4.397-.295 6.595-.48 4.108-.342 8.195-.188 12.279.358 2.478.332 4.969.56 7.453.844.336.038.71.044.995.198 2.255 1.218 4.514.809 6.81.133 2.502-.736 5.03-1.38 7.538-2.091.58-.164 1.13-.435 2.002-.777-.504-.598-.937-1.045-1.296-1.547-1.289-1.804-2.666-3.558-3.793-5.462-.962-1.627-1.626-3.432-2.421-5.158-.98-2.131-1.79-4.366-2.984-6.37-1.518-2.547-3.324-4.925-5.048-7.346-2.649-3.718-5.32-7.42-8.01-11.108-1.724-2.366-3.287-4.903-5.313-6.98-1.863-1.91-4.132-3.485-6.708-4.46-1.343-.507-2.726-.937-4.005-1.577-1.044-.522-2.024-1.226-2.918-1.984-1.362-1.153-2.525-2.568-3.965-3.6-1.202-.86-2.696-1.299-4.035-1.978-3.417-1.734-7.019-3.061-10.281-5.16-1.816-1.166-4.048-1.681-6.095-2.484-1.741-.684-3.483-1.363-4.53-3.079-1.65-2.704-4.318-2.374-6.924-2.439-1.749-.043-3.491-.411-5.235-.648-1.448-.198-2.888-.465-4.341-.615a39.246 39.246 0 01-13.103-3.708 7.138 7.138 0 01-2.178-1.625c-.943-1.054-.916-2.158.186-3 1.636-1.249 1.973-3.183 2.896-4.807a69.473 69.473 0 012.582-4.235 11.548 11.548 0 011.757-2.039c2.87-2.66 5.721-5.344 8.699-7.878 1.018-.866 2.433-1.242 3.58-1.98 1.313-.844 2.583-1.673 3.326-3.257 1.147-2.447 3.347-2.818 5.811-2.3.48.1 1.025-.016 1.521-.123 1.82-.393 3.64-.797 5.446-1.248 2.393-.596 4.764-1.277 7.16-1.851 2.47-.592 4.937-1.263 7.445-1.59 1.851-.24 3.768.063 5.654.032 1.096-.018 2.19-.225 3.284-.336 3.617-.367 7.24-.677 10.848-1.109 2.762-.33 5.498-.863 8.259-1.207 1.462-.183 2.956-.098 4.425-.243 1.88-.185 3.745-.518 5.624-.718 1.595-.17 3.148-.06 4.594.818.404.244 1.019.118 1.531.2 3.186.51 6.378.985 9.55 1.568 1.14.21 2.23.683 3.34 1.047 1.907.625 3.75-.085 5.629-.215 2.721-.189 5.132.644 7.084 2.692 1.076 1.13 2.388 1.673 3.973.961.374-.168.815-.184 1.224-.273 2.02-.438 2.59-.013 3.184 1.974.306 1.023.918 1.953 1.404 2.95m536.384 43.449c-1.139.066-2.133.027-3.088.198-2.774.499-5.515 1.202-8.304 1.594-2.414.34-4.88.3-7.311.544-1.764.176-3.503.58-5.264.806a68.453 68.453 0 01-4.974.47c-2.002.109-4.01.11-6.016.173-1.726.055-3.455.236-5.177.175-2.858-.102-3.612.594-3.818 3.37-.16 2.163-.69 4.299-.873 6.461-.105 1.243-.518 2.526.198 3.797.252.449.028 1.157.017 1.747-.024 1.312-.103 2.625-.063 3.935.056 1.898-.013 3.745-.56 5.61-.746 2.543-1.18 5.173-1.852 7.74-.506 1.933-1.165 3.828-1.775 5.736-.529 1.66-1.111 3.304-1.618 4.97-.365 1.207-.606 2.45-.97 3.656-.602 1.996-1.096 4.047-1.943 5.944-.715 1.604-1.887 3.01-2.813 4.53-.32.526-.494 1.136-.753 1.699-.236.51-.509 1.002-.744 1.512-1.013 2.2-1.863 4.45-3.492 6.365-1.166 1.37-1.932 3.063-2.917 4.587-.997 1.54-2.081 3.026-3.054 4.58-1.091 1.742-2.167 3.5-3.127 5.313-.906 1.71-1.592 3.531-2.514 5.232-.215.397-1.08.796-1.493.678-.742-.21-.346-.796-.038-1.27.721-1.11 1.435-2.225 2.09-3.372 1.23-2.152 2.403-4.332 3.624-6.487.356-.627.869-1.174 1.178-1.818.262-.548.664-1.079-.044-1.797-.328-.334.014-1.322.085-2.01.214-2.04.504-4.075.646-6.12.091-1.305-.113-2.63-.024-3.935.074-1.095.395-2.174.577-3.265.088-.524.123-1.058.148-1.59.036-.779-.1-1.438.61-2.219.538-.59.173-1.955.242-2.974.1-1.503.205-3.007.352-4.507.098-.988.075-2.053.46-2.934.656-1.496.103-2.976.263-4.452.139-1.278.389-2.645.074-3.842-.376-1.428-.166-2.952-.647-4.246-.816-2.198-.629-4.458-.993-6.672-.25-1.53-.478-3.069-.602-4.612-.08-.998.09-2.013.06-3.017-.025-.813-.215-1.619-.276-2.432-.118-1.567-.322-3.142-.265-4.705.105-2.856.658-5.69-.085-8.563-.243-.938.106-2.016.14-3.031.026-.782.093-1.586-.05-2.346-.45-2.404-1.007-4.788-1.491-7.185-.218-1.076-.362-2.165-.54-3.248-.038-.224-.048-.46-.127-.67-1.107-2.894-2.237-5.78-3.334-8.679-.834-2.208-1.814-4.37-1.95-6.785a33.827 33.827 0 00-.56-4.586c-.222-1.13-.794-2.197-1.024-3.328-.18-.888-.094-1.833-.092-2.752.002-.74-.022-1.495.105-2.22.227-1.287.577-2.552.84-3.834a8.927 8.927 0 00.166-1.595c.04-1.671.989-3.047 1.52-4.557.337-.956.76-1.884 1.182-2.809.574-1.26 2.487-2.173 3.876-2.014 1.27.144 2.56.232 3.834.188 4.076-.14 7.773 1.084 11.23 3.02 2.17 1.218 3.548 3.226 4.61 5.405.505 1.037.852 2.146 1.325 3.198.111.247.539.356.656.602.263.555.37 1.18.635 1.733.337.703.794 1.348 1.153 2.041 1.169 2.266 1.794 4.646 1.928 7.21.142 2.744.57 5.475.894 8.209.356 3.003.874 5.996 1.05 9.01.104 1.759-.325 3.547-.506 5.323-.144 1.397-.278 2.795-.422 4.259.306.045.57.133.823.112 4.136-.331 8.281-.585 12.402-1.046 3.548-.397 7.061-1.086 10.604-1.547 3.73-.487 7.479-.857 11.22-1.276.116-.014.253.027.349-.021 1.85-.918 3.86-.203 5.743-.572.516-.1 1.207-.86 1.274-1.383.282-2.163.673-4.388.41-6.518-.24-1.959 0-3.85.019-5.765.024-2.536-.582-4.94-1.177-7.367-.203-.828-.061-1.739-.274-2.562-.374-1.44.222-2.77.272-4.145.05-1.401-.432-2.814-.432-4.222 0-2.202-.118-4.416.519-6.597.63-2.15 1.02-4.366 1.607-6.53.192-.706.67-1.338 1.046-2.06l-.39-.56c.117-.099.19-.177.279-.232.669-.417 1.292-.964 2.02-1.22 3.838-1.347 7.793-1.678 11.769-.788 2.088.468 4.365.569 6.003 2.273 1.103 1.147 2.118 2.279 1.946 4.026-.052.537.138 1.101.246 1.648.377 1.91.752 3.82 1.154 5.725.342 1.618.76 3.22 1.07 4.844.224 1.184.432 2.39.453 3.588.03 1.843-.096 3.69-.176 5.534-.095 2.23-.15 4.462-.34 6.683-.106 1.225-.435 2.435-.704 3.643-.116.527-.423 1.022-.493 1.55-.393 2.987-.577 6.03-1.589 8.88-.358 1.009-.33 2.084-.916 3.12-.532.938-.586 2.309-1.151 3.358-1.304 2.424-1.16 5.21-2.157 7.708-.723 1.809-1.676 3.646-1.828 5.525-.176 2.166-1.827 3.717-1.929 5.836-.035.722-.45 1.436-.734 2.136-1.063 2.612-2.277 5.175-3.177 7.839-.705 2.085-1.008 4.3-1.538 6.445-.302 1.23-.733 2.428-1.047 3.655-.447 1.753-.794 3.53-1.272 5.274-.4 1.456-.945 2.874-1.39 4.32-.569 1.84-1.164 3.676-1.639 5.542-.975 3.83-1.792 7.703-2.846 11.512-.555 2-1.47 3.905-2.23 5.851-.456 1.17-.924 2.336-1.398 3.5-.087.212-.176.468-.348.593-.94.686-1.145 1.72-1.528 2.716-.797 2.074-2.015 3.92-3.442 5.66-1.567 1.909-3.108 3.862-4.405 5.949-.848 1.363-1.189 3.018-1.855 4.501-.619 1.377-1.351 2.706-2.065 4.04-.42.787-1.187.77-1.639.229-.32-.385-.449-1.261-.218-1.689 1.018-1.894 2.197-3.706 3.32-5.546.573-.938 1.171-1.862 1.715-2.815.134-.235.242-.643.126-.833-1.163-1.909-.559-3.679.237-5.524.407-.945.464-2.038.658-3.068.078-.415.087-.842.145-1.262.207-1.509.443-3.015.628-4.527.308-2.55.427-5.133.915-7.648.572-2.952.767-5.892.813-8.886.037-2.416.558-4.822.803-7.238.05-.482-.219-.988-.266-1.489-.077-.807-.087-1.62-.134-2.43-.03-.53-.096-1.057-.115-1.587-.04-1.172-.166-2.354-.06-3.515.155-1.694.4-3.391.76-5.056.41-1.89 1.25-3.72 1.416-5.619.143-1.62.773-2.86 1.502-4.233.723-1.361 1.681-2.8 1.258-4.526a.614.614 0 01.004-.333c.446-1.305 1.016-2.583 1.325-3.919.375-1.626.685-3.295.75-4.956.103-2.574.325-5.116 1.114-7.847M467.718 50.719l-1.136-1.311.592-.94c-.602-1.616.35-2.898.775-4.364l-.836-.62.334.106c.524-1.194 1.07-2.378 1.56-3.585.209-.516.17-1.165.468-1.605.93-1.368.858-2.934 1.008-4.443.116-1.182.365-2.202.99-3.294.858-1.5 1.123-3.32 1.787-4.946.41-1.005 1.005-1.966 1.67-2.832.913-1.191 1.953-2.291 2.972-3.4 1.446-1.572 2.862-3.18 4.407-4.654 1.116-1.064 2.621-1.769 3.6-2.926 1.68-1.989 3.71-1.004 5.599-.942 3.369.112 5.148 2.562 6.654 5.054 1.045 1.73 1.691 3.702 1.12 5.858-.108.405.394.966.658 1.548-1.902.832-1.999 2.628-2.23 4.483-.142 1.136-.847 2.199-1.25 3.311-.577 1.59-1.12 3.192-1.659 4.795-.704 2.097-1.366 4.208-2.091 6.298-.74 2.132-1.578 4.232-2.291 6.373-1.007 3.02-1.888 6.08-2.939 9.084-.271.776-1.045 1.367-1.462 2.113-.323.577-.456 1.258-.658 1.9a899.23 899.23 0 00-1.817 5.832c-.076.245-.223.613-.114.747 1.05 1.293.154 2.51-.128 3.734-.077.33-.407.604-.632.896-.179.232-.462.425-.546.683-.577 1.775-1.157 3.55-1.647 5.35-.361 1.327-.574 2.693-.88 4.036-.176.778-.452 1.535-.605 2.316-.578 2.965-1.537 5.795-2.703 8.594-1.04 2.498-2.611 4.676-3.804 7.067-.795 1.593-1.386 3.284-2.124 4.907-.8 1.759-1.666 3.488-2.498 5.231-.949 1.986-1.938 3.953-2.819 5.968-.435.999-.592 2.114-1 3.127-1.58 3.921-3.575 7.636-5.703 11.297-1.517 2.61-2.804 5.353-4.135 8.066-.503 1.026-.76 2.173-1.28 3.19-.354.692-.86 1.406-1.487 1.844-1.4.979-1.543 2.646-2.417 3.904-1.02 1.466-1.849 3.06-2.857 4.535-.202.295-.84.37-1.283.386-.114.004-.433-.67-.339-.91.183-.463.62-.82.903-1.253 1.08-1.653 2.15-3.314 3.195-4.99.151-.242.193-.577.21-.873.104-1.795.135-3.595.292-5.385.165-1.89.328-3.792.708-5.645.344-1.672 1.1-3.262 1.453-4.934.391-1.846.955-3.61.929-5.624-.032-2.537.98-5.088 1.548-7.632.05-.22.188-.426.208-.647.168-1.787.28-3.581.483-5.365.219-1.922.596-3.828.76-5.753.179-2.085.287-4.185.25-6.276-.043-2.476.352-4.806 1.333-7.107.714-1.672 1-3.517 1.583-5.25.82-2.447 1.772-4.85 2.594-7.296.275-.818.33-1.709.545-2.9-.858-.122-1.746-.313-2.643-.363-1.626-.09-3.257-.084-4.885-.146-1.76-.067-3.523-.102-5.273-.267-3.398-.322-6.817.012-10.223-.66-1.938-.384-4.044.086-6.076.13-.682.014-1.367-.111-2.053-.157-2.396-.16-4.766-.055-6.93.617-.116 1.026-.24 1.923-.314 2.825-.076.923-.013 1.865-.17 2.77-.342 1.977-.64 3.98-1.226 5.89-.665 2.161-1.395 4.366-2.532 6.301-1.005 1.711-1.106 3.474-1.478 5.282-.353 1.716-1.297 3.313-1.947 4.975-.545 1.392-1.458 2.577-1.563 4.228-.11 1.707-.841 3.39-1.4 5.051-.414 1.228-.989 2.402-1.49 3.6-.058.137-.159.275-.164.416-.082 2.832-1.301 5.402-1.958 8.1-.476 1.95-1.357 3.8-1.984 5.719-.317.973-.41 2.017-.712 2.998-.666 2.17-1.074 4.388-1.148 6.642-.082 2.546.004 5.097.014 7.647.002.839.22 1.767-.073 2.492-.321.8-1.108 1.42-1.706 2.105-.448.513-.763.279-1.091-.178-1.004-1.395-1.091-3.021-1.278-4.635-.242-2.087-.022-4.218-.926-6.25-.297-.669.192-1.648.196-2.486.015-2.723.505-5.585-.178-8.136-.955-3.573-.956-7.092-1.065-10.691-.107-3.461-.75-6.903-1.005-10.365-.27-3.665-1.017-7.29-.59-11.023.18-1.589-.447-3.268-.708-4.906-.006-.035-.052-.07-.05-.101.186-2.344-.353-4.69.347-7.047.89-3.002 1.927-6.052 2.142-9.132.193-2.756.903-5.388 1.245-8.094.314-2.477.751-4.936.966-7.438.201-2.338.792-4.642 1.188-6.965.075-.44.052-.897.054-1.347.005-1.637-.022-3.276.015-4.913.013-.597.055-1.238.283-1.777 1.183-2.784 1.278-5.691 1.26-8.65-.007-1.256.415-2.515.665-3.767.284-1.416.588-2.827.901-4.236.057-.253.156-.531.324-.722.926-1.051 1.17-2.399 1.72-3.616.656-1.456 1.46-2.912 2.494-4.122 2.034-2.385 4.268-4.602 6.424-6.883 1.906-2.017 4.12-3.609 6.702-4.68 3.29-1.365 6.455-1.274 9.47.769 1.88 1.273 3.565 2.705 4.4 4.886.147.385.356.802.325 1.188-.106 1.364-.209 2.741-.495 4.075-.357 1.671-.893 3.305-1.357 4.954-.46 1.634-.886 3.279-1.403 4.894-.37 1.162-.84 2.296-1.312 3.422-1.024 2.445-2.196 4.837-3.07 7.332-.445 1.269-.342 2.72-.56 4.076-.066.415-.398.782-.57 1.187-.286.672-.539 1.357-.807 2.036-.166.421-.364.833-.497 1.265-.102.333-.126.692-.244 1.021-.291 1.392-.613 2.779-.867 4.177-.274 1.515-.096 3.27-.834 4.496-.752 1.252-.785 2.679-1.556 3.861-.195.3-.05.807-.092 1.216-.085.817-.191 1.63-.309 2.614.359.031.801.144 1.222.091 1.556-.197 3.102-.5 4.662-.667 1.482-.16 2.979-.184 4.466-.303.913-.072 1.82-.304 2.73-.301 1.645.007 3.29.206 4.935.195 2.33-.015 4.661-.205 6.993-.21 1.68-.004 3.383.042 5.038.302 2.251.354 4.482.597 6.752.283.828-.114 1.663-.253 2.494-.244.782.009 1.018-.376 1.09-1.024.229-2.076.409-4.16.709-6.226.293-2.026.712-4.035 1.07-6.052.034-.188.07-.39.037-.572-.206-1.133.343-1.55 1.661-1.707m67.721 2.248c-.64 0-1.121-.072-1.572.012-2.854.53-5.533 1.497-7.919 3.165-.154.107-.333.309-.471.286-1.389-.222-2.415.72-3.615 1.086-.707.216-1.336.715-1.96 1.144-1.653 1.137-3.329 2.249-4.909 3.48-.888.693-1.587 1.616-2.397 2.411-1.324 1.297-2.7 2.545-3.986 3.876-.456.47-.695 1.135-1.07 1.686-.487.714-1.006 1.407-1.522 2.1-1.173 1.577-2.424 3.103-3.508 4.738-.817 1.233-.953 2.648-.723 4.136.12.766-.031 1.607-.219 2.377-.458 1.88.04 3.681.309 5.51.124.842.098 1.704.178 2.553.076.812.04 1.681.336 2.416.754 1.874 1.497 3.788 2.56 5.497 1.108 1.78 2.515 3.399 3.921 4.976 1.276 1.43 2.918 2.572 4.053 4.09 1.455 1.948 3.538 2.858 5.542 3.955 3.579 1.96 7.542 2.6 11.51 3.253 2.568.423 5.143.334 7.715.232 1.21-.049 2.43-.27 3.607-.563 2.315-.576 4.613-1.22 6.897-1.905 2.291-.686 4.225-1.913 5.734-3.786.716-.889 1.597-1.647 2.37-2.493 1.776-1.948 2.698-4.327 3.282-6.807.824-3.484 1.909-6.91 2.125-10.53.137-2.276.71-4.523 1.002-6.793.139-1.09.072-2.205.109-3.309.017-.508.036-1.017.092-1.522.12-1.094-.479-1.809-1.554-2.002-.522-.093-1.1-.301-1.482-.643-1.064-.952-2.406-1.198-3.656-1.057-2.255.254-4.566.59-6.67 1.368-1.349.498-2.257.226-3.342-.285-1.239-.586-2.483-1.17-3.759-1.67-.315-.123-.762.075-1.107.12-1.157-.756-2.386-1.432-3.464-2.29-1.957-1.562-3.558-3.412-4.253-5.879-.243-.86-.565-1.697-.819-2.554-.06-.205-.051-.62.029-.647 1.47-.504 1.241-1.891 1.49-2.932.302-1.27 1.167-1.964 2.052-2.764 1.569-1.42 3.496-2.159 5.374-3.03 1.03-.476 2.052-1.038 2.923-1.745.707-.573 1.102-1.41-.412-1.866 1.145-.679 2.17-1.201 3.088-1.864.51-.369.82-.997 1.269-1.464.328-.339.722-.836 1.111-.86 1.576-.093 3.163-.018 4.745-.028 1.187-.009 2.388-.18 3.556-.05 1.505.169 2.972.666 4.477.84 1.808.208 3.601.47 5.448-.228.99-.374 2.28-.315 3.353-.083 3.085.665 6.154 1.435 9.179 2.324 1.818.535 3.59 1.293 4.957 2.69.155.159.331.349.378.55.482 2.045 2.2 3.023 3.73 4.137 1.786 1.299 2.974 2.998 3.998 4.914 1.624 3.039 1.95 6.263 1.698 9.57-.193 2.516-.718 4.938-1.735 7.343-1.292 3.054-2.527 6.306-2.8 9.552-.281 3.364-1.888 6.095-2.937 9.092-.375 1.075-1.119 2.022-1.602 3.069-.273.59-.26 1.31-.546 1.893-1.234 2.524-2.478 5.047-3.818 7.517-1.824 3.359-4.534 6.06-7.063 8.89-.298.335-.472.774-.734 1.143-.954 1.348-2.244 2.217-3.81 2.818-2.292.88-4.502 1.968-6.793 2.85-1.671.642-3.413 1.108-5.132 1.628-2.057.622-4.12 1.231-6.187 1.824-2.785.8-5.626 1-8.514.775-.818-.063-1.65.096-2.475.119-1.021.03-2.045.078-3.063.02-4.119-.236-8.24-.445-12.348-.802-1.596-.139-3.147-.723-4.74-.96-1.74-.258-3.524-.236-5.25-.537-3.382-.59-6.63-1.59-9.612-3.35-1.734-1.026-3.499-2.058-5.37-2.787-1.546-.601-2.856-1.458-4.128-2.435-.15-.115-.33-.247-.394-.409-.968-2.405-3.122-3.704-4.97-5.323-1.182-1.036-2.089-2.389-3.045-3.653-1.026-1.359-1.98-2.77-2.94-4.176-1.52-2.225-2.585-4.55-2.773-7.337a29.995 29.995 0 01.695-8.789c.558-2.429 1.593-4.694 3.272-6.691 1.637-1.948 2.973-4.139 4.462-6.208.331-.46.728-.88 1.135-1.28 1.815-1.784 3.63-3.57 5.48-5.319.406-.382.99-.574 1.448-.912 2.056-1.518 4.001-3.205 6.167-4.55 2.388-1.481 4.97-2.659 7.472-3.958.306-.16.678-.207.964-.39 1.926-1.228 4.12-1.747 6.28-2.388 1.512-.448 2.929-1.196 4.432-1.677a32.383 32.383 0 007.683-3.645c1.04-.668 2.703-.115 3.48 1.2m261.209-31.078c1.452 0 2.901.007 4.351-.003 1.592-.011 3.197.081 4.775-.083 4.126-.43 8.084.957 12.164 1.051 1.11.026 2.448-.09 3.385 1.082.314.392 1.201.362 1.837.445 2.373.31 4.32 1.517 6.133 2.969.797.638 1.237 1.508 1.288 2.586.027.576.262 1.142.46 1.945-.68.477-1.591-.125-2.464-.192-1.742-.134-3.474-.423-5.217-.534a382.865 382.865 0 00-10.257-.515c-2.172-.08-4.349-.072-6.523-.05-1.644.016-3.327-.088-4.92.232-2.205.441-4.343 1.221-6.504 1.873-2.725.822-5.494 1.386-8.31 1.826-3.061.478-6.048 1.453-9.113 1.873-3.588.491-6.58 2.409-9.867 3.602-4.215 1.531-7.663 4.374-11.582 6.4-1.348.698-2.414 1.983-3.524 3.086-.266.265-.289.877-.264 1.32.073 1.328.12 2.67.364 3.97.993 5.28 4.799 8.212 9.024 10.778 1.348.817 2.598 1.846 4.025 2.466 2.669 1.159 5.472 2 8.15 3.14 2.594 1.104 5.114 2.388 7.641 3.647a108.71 108.71 0 015.074 2.713c1.132.642 2.178 1.439 3.317 2.065 1.375.755 2.814 1.392 4.216 2.1.72.364 1.417.777 2.13 1.155 2.34 1.24 4.642 2.566 7.04 3.678 1.86.865 3.853 1.43 5.768 2.181 2.876 1.128 5.733 2.3 8.598 3.454 1.883.758 3.808 1.43 5.636 2.304 1.071.513 2 1.334 2.975 2.042.526.382.98.871 1.527 1.218 1.274.805 1.988 2.005 2.496 3.37.039.104.068.243.033.342-.65 1.84-.641 3.906-2.196 5.43-1.838 1.801-3.519 3.766-5.287 5.64-.654.695-1.412 1.294-2.037 2.012-1.587 1.822-3.084 3.726-4.699 5.523-.89.99-1.992 1.784-2.919 2.745-1.013 1.05-1.905 2.216-2.91 3.273-.384.405-.97.606-1.406.968-1.927 1.603-3.905 3.152-5.727 4.868-2.298 2.164-4.914 3.765-7.709 5.184-3.169 1.61-6.187 3.522-9.34 5.167-1.8.938-3.739 1.6-5.612 2.39-1.947.82-3.904 1.619-5.835 2.472-2.202.974-4.381 2-6.573 2.999-1.669.76-3.331 1.534-5.017 2.252-.59.252-1.238.382-1.87.526-3.262.744-6.506 1.592-9.796 2.18-3.844.687-7.727 1.153-11.595 1.696-2.844.398-5.684.982-8.541 1.09-3.14.117-6.314-.06-9.441-.401-2.76-.301-5.479-.283-8.235-.095-1.65.113-3.342-.035-4.977-.298-.653-.104-1.289-.758-1.79-1.295-1.905-2.046-4.52-2.257-6.993-2.85-.897-.216-1.804-.388-2.696-.62-.387-.101-.748-.306-1.12-.463l.046-.374c1.632 0 3.263-.02 4.894.005 3.208.049 6.418.203 9.626.16a81.754 81.754 0 007.825-.478c2.931-.322 5.84-.841 8.757-1.29a40.03 40.03 0 002.94-.546c1.103-.256 2.188-.598 3.289-.874 2.11-.527 4.238-.977 6.332-1.56 3.753-1.044 7.501-2.107 11.22-3.272 2.259-.707 4.45-1.634 6.683-2.432 4.48-1.6 8.55-3.996 12.582-6.474 1.9-1.17 3.85-2.27 5.666-3.56 1.715-1.219 3.297-2.63 4.914-3.983 1.062-.888 2.084-1.826 3.123-2.743 1.93-1.706 3.863-3.41 5.79-5.123 2.695-2.396 4.838-5.283 7.075-8.086 2.114-2.647 4.205-5.314 5.474-8.498.534-1.34.9-2.75 1.281-4.147.056-.205-.16-.61-.367-.743-1.711-1.107-3.353-2.401-5.203-3.196-3.06-1.314-6.307-2.187-9.382-3.471-1.327-.553-2.414-1.677-3.624-2.522-1.536-1.074-3.02-2.247-4.646-3.16-1.771-.996-3.65-1.817-5.538-2.573-1.616-.648-3.35-.998-4.964-1.655-3.262-1.33-6.49-2.748-9.704-4.194-1.677-.756-3.29-1.656-4.938-2.478-1.614-.805-3.235-1.594-4.853-2.39-1.35-.665-2.71-1.316-4.051-2-.949-.486-1.86-1.043-2.813-1.522-2.362-1.188-4.67-2.527-7.13-3.466-2.045-.782-4.258-1.155-6.424-1.572-1.946-.375-3.75-.905-5.419-2.103-1.557-1.119-2.277-3.824-1.754-5.731.55-2.006 1.83-3.552 3.2-4.922 2.803-2.8 5.312-5.926 8.734-8.078 1.45-.912 2.665-2.192 4.059-3.206 1.015-.739 2.156-1.3 3.225-1.967 1.88-1.173 3.744-2.37 5.62-3.549 1.14-.717 2.272-1.448 3.438-2.119 1.99-1.146 3.964-2.336 6.022-3.348 2.676-1.315 5.357-2.68 8.166-3.64 2.982-1.02 6.09-1.733 9.194-2.31 1.984-.369 4.059-.215 6.09-.356 1.993-.138 3.988-.299 5.966-.567.595-.08 1.127-.578 1.71-.839.736-.332 1.47-.75 2.25-.891 1.105-.2 2.249-.226 3.378-.24 1.31-.018 2.522 1 2.7 2.154M663.298 163.89c.625-.727 1.283-1.426 1.85-2.192.174-.235.125-.652.14-.988.05-1.063.08-2.127.123-3.19.01-.265.073-.53.064-.793-.07-2.14.71-4.016 1.569-5.931 1.014-2.26 1.743-4.651 2.607-6.982.156-.419.414-.804.544-1.23.522-1.722.93-3.484 1.539-5.174.637-1.772 1.468-3.472 2.19-5.213.428-1.028 1.046-2.047 1.164-3.117.306-2.785 1.674-5.177 2.584-7.73 1.109-3.103 1.99-6.227 2.317-9.516.1-.997.487-1.963.713-2.95.137-.6.24-1.21.324-1.82.261-1.887.555-3.772.742-5.667.161-1.638.176-3.292.292-4.936.142-2.033-.406-4.04.115-6.123.353-1.414.007-2.999.013-4.508.01-2.55.119-5.102.06-7.65a171.904 171.904 0 00-.446-8.67c-.077-1.04-.48-2.05-.634-3.089-.239-1.595-.368-3.205-.587-4.804-.22-1.598-.5-3.187-.74-4.783-.14-.934-.15-1.901-.4-2.802-.35-1.257-.919-2.452-1.305-3.7-.506-1.632-.883-3.303-1.397-4.932-.457-1.454-1.29-2.84-1.476-4.317-.221-1.764-1.228-3.523-.342-5.375.106-.22.139-.553.056-.776-.997-2.64-1.22-5.243.089-7.871.307-.617.357-1.372.475-2.073.406-2.427 1.637-4.542 2.6-6.744.527-1.207 1.452-2.28 2.354-3.269 1.22-1.34 2.495-2.67 3.93-3.76 1.09-.83 2.431-1.37 3.723-1.876 2.066-.81 4.228-1.38 6.266-2.252 1.478-.632 2.924-.552 4.42-.407.485.047.968.181 1.453.184 1.419.008 2.197 1.07 3.096 1.895 1.439 1.32 2.967 2.585 4.179 4.1 1.351 1.689 2.777 3.446 2.597 5.889-.153 2.068.079 4.038.64 6.107.704 2.596.63 5.402.212 8.154-.162 1.065.073 2.274.424 3.316.476 1.414 1.314 2.698 1.858 4.093.812 2.08 1.35 4.197.766 6.491-.24.947-.12 1.993-.114 2.994.004.63.096 1.262.156 1.892.234 2.465.483 4.93.7 7.396.056.643.001 1.295.017 1.943.064 2.704-.475 5.314-1.085 7.933-.39 1.673-.467 3.417-.727 5.123-.088.584-.382 1.139-.452 1.723-.22 1.828-.327 3.671-.585 5.493-.102.715-.36 1.48-.768 2.064-.912 1.304-.53 2.849-.95 4.232-.047.15.143.38.09.521-.75 1.953-1.557 3.885-2.275 5.85-.37 1.017-.595 2.087-.88 3.136-.616 2.265-1.104 4.574-1.881 6.78-.627 1.781-1.605 3.435-2.42 5.149-1.234 2.595-2.434 5.206-3.697 7.787-2.027 4.133-4.027 8.282-6.168 12.356-1.1 2.093-2.515 4.019-3.73 6.054-.819 1.375-1.334 2.988-2.35 4.18-1.557 1.827-2.232 4.05-3.319 6.087-.9 1.69-1.757 3.427-3.217 4.777-.77.713-1.27 1.714-1.972 2.514-2.094 2.383-4.39 4.482-7.148 6.149-2.019 1.22-3.75 2.955-5.504 4.574-1.086 1.001-1.186 1.121-2.482.274" fill="#F5F5F5" fill-rule="evenodd"/></svg>