<svg width="24" height="24" viewBox="0 0 24 24" xmlns="http://www.w3.org/2000/svg"><g fill="none" fill-rule="evenodd"><path d="M8.615 11.98a3.397 3.397 0 116.795 0 3.398 3.398 0 01-6.795 0zm.148 0a3.253 3.253 0 003.249 3.25 3.252 3.252 0 003.251-3.25 3.25 3.25 0 10-6.5 0z" fill="#000" fill-rule="nonzero"/><path d="M12.551 11.98a.537.537 0 01-1.074 0 .536.536 0 111.074 0z" fill="#000" fill-rule="nonzero"/><path d="M12.014 7.548a4.432 4.432 0 00-4.433 4.433 4.41 4.41 0 001.355 3.184l-.015-.015-1.155 1.25c.403.388.858.721 1.357.99l.834-1.487a4.434 4.434 0 006.493-3.925 4.415 4.415 0 00-1.223-3.052l1.163-1.251a6.2 6.2 0 00-1.335-1.029l-.82 1.496a4.447 4.447 0 00-2.22-.594zM6.291 17.994l-1.18 1.276c.629.594 1.329 1.11 2.094 1.527l.85-1.515a8.476 8.476 0 01-1.764-1.288zM17.865 6.085l1.182-1.273a10.12 10.12 0 00-2.118-1.592l-.834 1.525c.647.37 1.242.82 1.77 1.34zm-1.329 1.429l1.177-1.266a8.151 8.151 0 00-1.726-1.309l-.83 1.515c.507.29.972.648 1.38 1.06zm-8.921 9.049L6.442 17.83a8.117 8.117 0 001.724 1.259l.847-1.506a6.326 6.326 0 01-1.398-1.021z"/><path d="M5.877 11.98c0 1.737.724 3.305 1.886 4.422l1.156-1.25.014.015a4.415 4.415 0 01-1.354-3.184 4.432 4.432 0 014.433-4.433 4.39 4.39 0 012.215.597l.82-1.496a6.092 6.092 0 00-3.035-.806c-3.38-.004-6.135 2.75-6.135 6.136zm10.571 0a4.434 4.434 0 01-6.493 3.926l-.835 1.486a6.108 6.108 0 002.894.727 6.144 6.144 0 006.138-6.138 6.118 6.118 0 00-1.767-4.304l-1.16 1.25a4.425 4.425 0 011.223 3.054z" fill="#000" fill-rule="nonzero"/><path d="M3.93 11.98c0 2.3.966 4.379 2.512 5.853l1.173-1.268a6.338 6.338 0 01-1.96-4.584 6.365 6.365 0 016.36-6.359c1.14 0 2.212.305 3.14.835l.83-1.516a8.047 8.047 0 00-3.97-1.047c-4.458 0-8.085 3.627-8.085 8.087zm14.445 0a6.365 6.365 0 01-6.358 6.36 6.323 6.323 0 01-3.004-.756l-.847 1.506a8.033 8.033 0 003.85.976c4.46 0 8.088-3.628 8.088-8.088a8.066 8.066 0 00-2.388-5.732l-1.177 1.266a6.35 6.35 0 011.836 4.469z" fill="#000" fill-rule="nonzero"/><path d="M20.322 11.98c0 4.583-3.726 8.309-8.308 8.309a8.266 8.266 0 01-3.958-1.005l-.851 1.515a9.997 9.997 0 004.81 1.228c5.538 0 10.045-4.508 10.045-10.046 0-2.805-1.155-5.342-3.013-7.167l-1.182 1.274a8.274 8.274 0 012.457 5.893zm-18.354 0a10.02 10.02 0 003.144 7.29l1.18-1.276a8.287 8.287 0 01-2.585-6.013c0-4.582 3.726-8.308 8.307-8.308a8.24 8.24 0 014.079 1.074l.834-1.525a9.964 9.964 0 00-4.913-1.287C6.476 1.932 1.968 6.44 1.968 11.98z" fill="#000" fill-rule="nonzero"/><path d="M20.35 3.412l-1.152 1.24a10.24 10.24 0 013.085 7.329c0 5.66-4.605 10.266-10.266 10.266-1.782 0-3.458-.455-4.918-1.256l-.853 1.52a11.936 11.936 0 005.75 1.475c6.619 0 11.99-5.369 11.99-11.988a11.967 11.967 0 00-3.635-8.586zM1.748 11.98c0-5.662 4.606-10.268 10.266-10.268 1.823 0 3.534.48 5.021 1.316l.813-1.486a11.903 11.903 0 00-5.661-1.53h-.194C5.41.024.079 5.315.007 11.885V12a11.972 11.972 0 003.772 8.713l1.184-1.28a10.24 10.24 0 01-3.215-7.452z" fill="#000" fill-rule="nonzero"/></g></svg>