<?xml version="1.0" encoding="UTF-8"?>
<svg width="1024px" height="177px" viewBox="0 0 1024 177" version="1.1" xmlns="http://www.w3.org/2000/svg" xmlns:xlink="http://www.w3.org/1999/xlink">
    <!-- Generator: Sketch 57.1 (83088) - https://sketch.com -->
    <title>brand</title>
    <desc>Created with Sketch.</desc>
    <g id="Page-1" stroke="none" stroke-width="1" fill="none" fill-rule="evenodd">
        <g id="og" transform="translate(-75.000000, -227.000000)" fill="#F5F5F5">
            <g id="brand" transform="translate(75.000000, 227.000000)">
                <path d="M1024,9.89074783 C1023.82365,10.2260879 1023.5851,10.5453867 1023.48275,10.9021153 C1023.23239,11.7767495 1023.03321,12.6658973 1022.83638,13.5535173 C1022.71672,14.0996863 1022.56792,14.6519663 1022.55453,15.2050101 C1022.4884,17.941202 1021.11458,20.1243502 1019.51165,22.231111 C1018.55037,23.4945565 1017.67254,24.817584 1016.70024,26.0718629 C1015.74525,27.3039895 1014.65564,28.4421598 1013.74789,29.7033136 C1013.27631,30.3594803 1013.11648,31.2180732 1012.72835,31.9406967 C1012.26306,32.8038729 1011.71117,33.6227444 1011.1829,34.4538379 C1010.64675,35.2956256 1010.05786,36.1076222 1009.55793,36.9692706 C1008.68718,38.4725721 1007.84085,39.9896232 1007.03309,41.5257712 C1006.43474,42.6639415 1005.87183,43.8227363 1005.37269,45.0052113 C1004.71058,46.5749696 1004.14451,48.1829216 1002.83289,49.3990069 C1002.64551,49.572406 1002.48254,49.8160814 1002.41326,50.0559375 C1001.7606,52.3246393 1001.13942,54.6017438 1000.49148,56.8719734 C999.924632,58.8549869 999.333376,60.8318894 998.75393,62.8110835 C998.339814,64.2234841 997.343891,65.4265836 997.324996,67.0047446 C997.316336,67.6937577 996.758934,68.3621463 996.547939,69.0672008 C996.066117,70.6766806 995.699239,72.3205346 995.17884,73.9177924 C994.708827,75.3561646 994.087654,76.7479407 993.55702,78.1687439 C993.479865,78.3749895 993.532614,78.6285952 993.53655,78.8608125 C993.541274,79.1487925 993.640473,79.4619803 993.555445,79.7194054 C992.862629,81.8269301 992.166663,83.9344549 991.409289,86.0205912 C990.894401,87.4391028 990.233076,88.8071987 989.722124,90.2264742 C989.269431,91.4861002 988.960026,92.7930864 988.53725,94.0641706 C987.736575,96.4650224 986.874491,98.8467774 986.089562,101.252213 C985.538458,102.940371 985.152685,104.681237 984.547258,106.348771 C984.062287,107.680965 983.286805,108.9108 982.773491,110.234591 C982.328671,111.3804 982.101144,112.603361 981.724819,113.775905 C981.339833,114.974421 980.909185,116.159188 980.466727,117.339371 C979.697544,119.391897 978.636275,121.34512 978.633913,123.630627 C978.632339,124.640466 978.385129,125.676278 978.090682,126.654799 C977.042797,130.1266 975.895714,133.570138 974.852553,137.043467 C974.362858,138.673571 974.140054,140.38541 973.581077,141.989543 C973.140982,143.250697 972.235597,144.356784 971.778968,145.614119 C971.127878,147.410747 969.298213,147.228946 968.036972,147.99129 C966.748176,148.770441 966.277376,150.385267 967.123714,151.748016 C967.683478,152.649386 967.355178,152.945769 966.585207,153.3109 C965.616051,153.769987 964.979133,155.206068 965.21532,156.241879 C965.283027,156.53979 965.42474,156.839992 965.405845,157.131791 C965.390099,157.385397 965.196425,157.628308 965.080693,157.875803 C964.842931,157.697821 964.45086,157.558032 964.391026,157.334217 C963.835986,155.282455 963.184109,153.329997 963.842284,151.057475 C964.388664,149.169182 964.094217,147.053255 964.187905,145.039686 C964.233568,144.061929 964.460308,143.070423 964.350874,142.112526 C964.112325,140.01646 963.602947,137.947892 963.403763,135.849534 C963.132935,133.007164 963.057355,130.147988 962.881001,127.297216 C962.804634,126.048284 962.601513,124.802407 962.603854,123.555003 C962.607811,121.364216 962.755822,119.172666 962.785739,116.981115 C962.805421,115.559548 962.609386,114.12805 962.714883,112.71565 C962.826678,111.209293 963.190407,109.721269 963.417147,108.221787 C963.456511,107.962834 963.364398,107.683257 963.321097,107.415901 C963.29118,107.234863 963.139233,106.978202 963.213238,106.890357 C964.12256,105.807949 963.22426,104.481866 963.812367,103.280294 C964.365833,102.149763 964.399686,100.783195 964.68626,99.5258602 C965.188552,97.3220876 965.806576,95.1374117 966.191561,92.9145422 C966.507265,91.0957613 966.878867,89.327396 967.754335,87.6759033 C967.882663,87.4337557 967.825978,87.0945962 967.837,86.7997413 C967.891323,85.2849818 968.260563,83.843554 968.741598,82.4013624 C968.942357,81.7956114 968.680189,81.0515994 968.66838,80.3694611 C968.662081,80.0318293 968.635314,79.6239213 968.806943,79.3657324 C969.568254,78.2176317 969.454096,76.9190481 969.672963,75.6617137 C969.919386,74.2516047 970.575987,72.9132998 970.950737,71.5184683 C971.334935,70.0877347 971.64749,68.634085 971.8947,67.1750882 C972.093097,66.0078907 972.023815,64.7887499 972.299367,63.6437048 C972.604836,62.3718567 973.170899,61.1588269 973.611782,59.9160061 C973.662168,59.7739257 973.639337,59.6058738 973.640912,59.4492799 C973.644061,59.0115808 973.562182,58.5570766 973.658232,58.1407659 C973.866077,57.2348129 974.129032,56.3364987 974.432927,55.4557535 C975.16432,53.3360068 975.89099,51.2124407 976.698751,49.1186657 C977.274261,47.6252946 977.978887,46.1777558 978.62604,44.7095925 C979.051965,43.7448213 979.501508,42.7892166 979.899878,41.8145151 C980.395871,40.6045407 980.837541,39.3739418 981.327237,38.1616759 C981.928727,36.6705964 982.535729,35.1802808 983.186819,33.709062 C983.38128,33.2698352 983.774925,32.9176899 984.004027,32.4891573 C985.492008,29.7078969 986.776867,26.8044168 988.504184,24.1728754 C989.482,22.6825598 990.268504,21.0608581 991.307729,19.6881789 C992.273735,18.4132754 992.709894,16.7976846 994.097889,15.7465958 C994.98123,15.0782072 995.455966,13.9194124 996.176338,13.0272091 C997.529692,11.3505085 998.793294,9.61269817 1000.51904,8.22626925 C1001.90939,7.10872351 1003.13206,5.79027926 1004.38936,4.52377835 C1005.18767,3.71789266 1008.19513,2.97999165 1009.28159,3.42151006 C1011.23014,4.21288216 1013.24796,4.57113845 1015.35318,4.34197665 C1015.80823,4.29232492 1016.2381,4.05628826 1016.69315,3.97073452 C1017.72214,3.77976635 1018.75743,3.54525744 1019.79665,3.50782768 C1020.13283,3.49560571 1020.59497,3.98066487 1020.82092,4.34197665 C1021.91447,6.09506446 1022.94582,7.88329041 1024,9.6592944 L1024,9.89074783 Z" id="Fill-1"></path>
                <path d="M206.536851,49.6904696 C206.418812,50.0846657 206.412759,50.281384 206.31515,50.4029088 C205.20664,51.787532 204.070134,53.1486098 202.970705,54.5393092 C202.315436,55.3694755 201.645034,56.1996418 201.100237,57.102723 C199.584644,59.6137292 198.159094,62.1801811 196.64123,64.6911873 C195.911809,65.89884 194.6898,66.671282 193.862769,67.8789347 C192.818576,69.4033114 191.869722,70.897307 191.253799,72.7611936 C192.070994,72.8698064 192.811766,72.9936098 193.558591,73.0634865 C195.498671,73.2472928 197.441022,73.4045155 199.381859,73.5807265 C199.521841,73.5936385 199.6535,73.683263 199.793483,73.7151633 C200.329199,73.8374476 200.861132,74.0022656 201.403659,74.0584708 C203.519285,74.2802536 205.640207,74.4458311 207.755833,74.6721711 C209.115554,74.8172413 210.464682,75.0792792 211.825916,75.1795371 C212.136904,75.2015635 212.764934,74.7640742 212.759637,74.5506463 C212.73391,73.5776883 212.525072,72.6092876 212.400979,71.6370892 C212.217111,70.1863869 212.006759,68.7372036 211.887206,67.2804251 C211.74571,65.5479371 211.76841,63.799499 211.574705,62.0746064 C211.384026,60.3846521 211.302307,58.5891232 210.647038,57.0677846 C209.770067,55.0330037 209.76477,52.9230294 209.427299,50.838879 C209.387953,50.5943104 209.667917,50.2980937 209.799577,50.0254224 C209.897943,50.02922 209.996309,50.0337772 210.094675,50.0375749 C209.829086,50.9809111 209.859353,51.6158782 211.026125,51.2414299 C211.248584,51.1700341 211.586055,51.2505443 211.794893,51.3827025 C212.741477,51.9827312 213.74254,52.5349095 214.570328,53.2777299 C215.702294,54.2917024 216.846366,54.2005588 217.34198,52.7566923 C216.578508,52.6404842 215.393576,53.0346803 215.529019,52.0457722 C214.87829,51.4472626 214.479529,51.0773714 214.076228,50.711278 C213.866633,50.5198764 213.660821,50.3216391 213.433066,50.1530234 C212.904916,49.762625 212.359363,49.3950125 211.830456,49.0061331 C211.369649,48.6666232 210.923976,48.308125 210.465439,47.965577 C210.267193,47.8182282 210.053815,47.6906271 209.848003,47.5539117 C209.863136,47.4278298 209.877513,47.3009882 209.891889,47.1749063 C210.316376,47.1749063 210.755997,47.2455426 211.160054,47.1566775 C211.607241,47.0579386 212.022648,46.81337 212.489509,46.6166517 C210.958026,45.1955711 208.804566,44.8051726 207.947269,45.7918021 C208.162161,45.9771274 208.376296,46.1632123 208.595728,46.3530948 C208.342246,46.9128684 208.145514,47.4513752 207.863279,47.939753 C207.634768,48.3354681 207.365396,48.8359984 206.995388,48.97879 C206.748717,49.0737313 206.29245,48.6218109 205.704524,48.2860987 C205.515358,48.649154 205.211937,49.0805671 205.081791,49.56059 C205.034121,49.7345224 205.401859,50.0216247 205.572865,50.2487242 C205.873259,50.0747918 206.102528,49.9418741 206.536851,49.6904696 M385.91863,28.2656472 C384.760181,28.7836467 383.575248,29.4102589 382.320703,29.8280005 C381.766827,30.0118067 381.052538,29.8439506 380.455532,29.6760945 C380.285284,29.6282441 380.271664,29.0183415 380.142274,28.4790752 C379.532405,27.9952545 378.840816,27.3139561 377.598378,27.5532081 C377.027098,27.6625804 376.338536,26.9319125 375.659054,26.740511 C373.072028,26.0090836 370.434305,25.7683126 367.737563,25.7310956 C365.239823,25.6953977 362.74738,25.2624656 360.25418,24.9875157 C357.502201,24.6829442 354.758546,24.2188714 351.998244,24.0935489 C350.245816,24.0137983 348.475228,24.5074928 346.705396,24.5963578 C344.558747,24.7034515 342.401505,24.6047126 340.253342,24.6935776 C339.04571,24.7437066 337.844888,25.134105 336.643309,25.1189144 C334.426291,25.0908118 332.755582,26.5848073 330.736052,27.0496397 C328.607563,27.5395365 326.53885,28.1509582 324.239355,27.6504279 C323.099066,27.4020616 321.727238,28.0051284 320.509013,28.3818553 C318.158065,29.1094851 315.747341,29.7490093 313.535619,30.7956417 C310.956916,32.0154469 308.148945,32.6162351 305.681471,34.2028933 C304.107615,35.2153468 302.019229,35.4264961 300.158598,35.9870293 C297.844726,36.6857969 295.521019,37.3534238 293.214714,38.0772559 C292.117554,38.4213229 291.050661,38.8641289 289.980742,39.2575655 C289.504802,41.1594286 290.947755,42.067067 291.951846,43.1911714 C292.355146,43.6430917 292.777363,44.0828596 293.225307,44.4907272 C294.753007,45.8829457 296.280707,47.2759238 297.838673,48.6347229 C299.180234,49.8043991 300.535415,50.9611633 301.933726,52.0602033 C302.973379,52.876698 304.121235,53.5541988 305.170725,54.3600601 C307.151665,55.8813987 309.228701,57.3131128 311.014423,59.0433221 C312.517153,60.5001007 314.38762,61.2611498 316.041683,62.4087996 C317.377947,63.3346667 318.695295,64.290915 320.061826,65.1681721 C321.839224,66.3089862 323.734662,67.278906 325.434124,68.5207376 C326.902804,69.5939535 328.200479,70.9132571 329.51707,72.1824317 C331.141623,73.7470635 332.738935,75.3428361 334.290092,76.9803828 C336.317188,79.1199788 338.317045,81.288437 340.267719,83.4979098 C341.021354,84.3516215 341.849898,85.199257 341.911188,86.4965342 C341.924808,86.7843961 342.404531,87.1816303 342.738976,87.2742929 C342.949328,87.3327768 343.289825,86.9165543 343.749876,86.5853992 C345.213259,88.150031 346.815112,89.8460615 348.396535,91.5595612 C348.978408,92.1907307 349.581467,92.8196215 350.056651,93.5290225 C351.048634,95.0108656 351.946791,96.5565092 352.916075,98.0558214 C353.301972,98.652812 353.786992,99.184483 354.201643,99.7640044 C354.778976,100.570625 355.332096,101.393956 355.895808,102.210451 C356.23328,102.699588 356.545781,103.208473 356.912005,103.675584 C357.793516,104.798929 358.75599,105.862271 359.584534,107.022073 C361.273403,109.38649 362.998591,111.734957 364.508131,114.212544 C365.542488,115.911612 366.21289,117.830185 367.091374,119.627993 C367.637684,120.746021 368.339866,121.789615 368.845316,122.924353 C369.608031,124.637853 370.435819,126.355909 370.896626,128.159793 C371.19929,129.346179 371.988489,129.712273 372.817033,130.186219 C373.666007,130.671559 374.619401,130.995878 375.406329,131.560969 C377.254097,132.887108 377.392566,134.457056 375.914049,136.252585 C375.512262,136.740204 375.003785,137.145033 374.642101,137.656197 C374.421156,137.969123 374.404509,138.421044 374.26377,138.79853 C374.132868,139.150192 374.043582,139.598315 373.78102,139.798831 C373.510892,140.004664 372.904049,140.15657 372.701264,139.998587 C370.970779,138.654979 369.154034,139.311213 367.500728,139.912001 C364.945482,140.841666 362.28052,140.894833 359.66247,141.218393 C356.977078,141.550307 354.238719,141.623982 351.530627,141.547269 C348.214179,141.453847 344.909081,141.019396 341.592633,140.859894 C339.016957,140.736851 336.427661,140.702672 333.853498,140.821918 C330.765562,140.965469 327.687462,141.327005 324.603309,141.564738 C324.00933,141.61031 323.405514,141.485747 322.806994,141.4979 C320.010373,141.553345 317.212995,141.719682 314.418643,141.671832 C311.550896,141.622463 308.687688,141.341436 305.81994,141.221431 C304.511672,141.166745 303.189784,141.349791 301.886056,141.257888 C299.28541,141.074841 296.692331,140.777106 294.096981,140.524182 C293.873009,140.502156 293.649794,140.418607 293.430362,140.431519 C290.687464,140.597097 287.946079,140.892554 285.202424,140.917619 C282.25674,140.944962 279.288356,140.897111 276.366129,140.564437 C272.569957,140.133024 268.939495,139.027908 265.64045,136.969582 C264.778612,136.431834 263.764686,136.142454 262.831722,135.714838 C262.037227,135.350264 261.278295,134.899862 260.467911,134.579341 C259.0242,134.008934 257.57595,133.43245 256.08911,132.995721 C254.202752,132.441264 252.289155,131.958962 250.362694,131.564766 C248.617833,131.207787 246.833624,131.045248 245.079683,130.728524 C243.888697,130.514336 242.731005,130.026718 241.538506,129.939372 C239.49552,129.788226 239.273061,130.181662 240.006266,132.143528 C240.217375,132.708618 240.775791,133.27219 240.718285,133.784113 C240.582086,135.003159 241.177579,136.017131 241.372797,137.131362 C241.642926,138.677005 242.325434,140.176317 242.415477,141.719682 C242.472227,142.680488 242.454067,143.598 242.798348,144.516272 C243.113119,145.352514 243.263695,146.255596 243.614029,147.073609 C244.317724,148.714194 245.06228,150.341107 245.877961,151.927006 C246.4447,153.029084 247.159746,154.05445 247.650819,155.33122 C247.353451,155.137539 246.97058,155.0069 246.773848,154.738786 C245.313491,152.750337 243.973443,150.669224 242.43515,148.746094 C240.554846,146.39383 239.392614,143.667117 238.085859,141.009522 C237.246721,139.302858 236.506706,137.546825 235.655462,135.846996 C234.284391,133.107372 232.925427,130.357113 231.40832,127.698758 C231.025449,127.027334 230.127292,126.425786 229.35928,126.240461 C225.507116,125.313075 222.010582,123.572991 218.497402,121.823034 C215.917943,120.53791 213.23936,119.453301 210.623581,118.240331 C208.936982,117.458015 207.317726,116.520755 205.603888,115.808316 C204.105698,115.185502 202.525031,114.754848 200.964038,114.29989 C200.628081,114.20267 200.218727,114.391033 199.841153,114.405464 C198.653194,114.450277 197.676344,113.567703 197.535604,112.344859 C197.420592,111.34152 197.930582,110.90631 198.880192,111.218476 C199.199503,111.323292 199.559674,111.42279 199.797266,111.640016 C201.380959,113.081603 203.28472,112.590188 205.113571,112.587909 C208.496605,112.584111 211.735117,113.000334 214.698961,114.937895 C216.160831,115.893384 217.923096,116.409104 219.584725,117.028881 C221.605012,117.782335 223.678265,118.393756 225.695525,119.154805 C226.352307,119.403172 226.905427,119.928767 227.506216,120.32752 C227.594745,120.240174 227.683275,120.152828 227.771804,120.065482 C227.291324,118.862386 226.84111,117.646379 226.32431,116.459233 C225.255147,114.004432 224.203388,111.539758 223.046452,109.126731 C221.928106,106.794214 220.721987,104.501953 219.487872,102.22716 C218.346827,100.125541 216.903116,98.1613961 215.986042,95.9709115 C214.988005,93.5852278 214.407646,91.0187759 213.719841,88.5100483 C213.473169,87.6115243 213.456522,86.6514783 213.30973,85.7233327 C213.143264,84.6751813 212.470592,84.2300967 211.500552,84.2544016 C209.315313,84.3098473 207.121751,84.3744074 204.943322,84.2498445 C202.15805,84.0911027 199.387912,83.6991852 196.604154,83.5024669 C193.494275,83.2814437 190.376829,83.1439688 187.260896,83.0148487 C185.665853,82.9495291 184.147233,83.2282766 183.16433,84.6767003 C182.602887,85.504588 182.182183,86.428936 181.631333,87.2651786 C180.447914,89.0637456 179.962894,91.1957464 178.6062,92.957856 C177.229076,94.7465491 176.432311,96.9734911 175.199709,98.8913044 C174.275825,100.330614 172.99404,101.534469 172.00357,102.937321 C171.205292,104.06902 170.619636,105.351107 169.910644,106.548886 C169.208462,107.735272 168.516873,108.931532 167.739025,110.067029 C166.308178,112.154217 164.741888,114.151781 163.371574,116.276946 C161.785611,118.737064 160.355521,121.29744 158.847494,123.807686 C158.236112,124.824697 157.739741,125.961713 156.936923,126.798715 C155.839764,127.940289 154.638185,128.991479 153.647715,130.232551 C152.990933,131.055881 152.407547,131.952127 151.893017,132.872677 C151.472313,133.625371 151.215805,134.470728 150.855634,135.260639 C150.686142,135.629771 150.45082,135.97004 150.233658,136.315626 C148.867884,138.483325 147.498326,140.648745 146.131038,142.816444 C146.112122,142.846825 146.120445,142.893916 146.103042,142.926576 C145.515872,144.063592 145.041446,145.281878 144.30824,146.316358 C143.39495,147.60528 142.203208,148.693687 141.253597,149.961342 C140.549145,150.901641 139.970299,151.955109 139.458796,153.017691 C138.29505,155.432997 137.200161,157.881721 136.090895,160.32361 C135.247217,162.181421 134.490556,164.084043 133.554565,165.893244 C133.257954,166.46593 132.569392,167.008234 131.948929,167.195838 C131.112061,167.449521 130.866903,168.033599 130.72238,168.676921 C130.390206,170.158005 129.866596,170.604609 127.903059,170.492198 C128.561355,169.651398 128.987355,168.880475 129.619168,168.360957 C130.313783,167.78979 130.622501,167.255081 130.2192,166.422636 C129.514748,164.970415 129.792443,163.601742 130.328916,162.138887 C130.695897,161.139346 130.630068,159.982581 130.782913,158.899492 C130.851013,158.422507 130.81999,157.749563 131.111305,157.516387 C132.858436,156.12265 133.639311,154.172936 134.423213,152.194361 C135.773097,148.784071 137.138871,145.380617 138.540965,141.991594 C139.461823,139.765412 140.502989,137.588599 141.397363,135.351783 C141.740887,134.493514 141.818067,133.52967 142.029176,132.617475 C142.130568,132.177707 142.175211,131.695405 142.39313,131.317919 C143.994983,128.539558 144.704731,125.420168 145.855614,122.471673 C146.87408,119.862687 148.289037,117.409405 149.501209,114.874854 C149.90678,114.027218 150.194311,113.123378 150.593829,112.272704 C151.637265,110.054117 152.801768,107.887937 153.752891,105.630614 C154.848537,103.026945 155.778474,100.35264 156.759108,97.7011209 C157.95539,94.465523 159.588266,91.4668986 161.46403,88.5776464 C162.653502,86.7456601 163.646999,84.7860726 164.748698,82.8948429 C165.084656,82.3183597 165.488713,81.7813719 166.03805,80.9633581 C165.138379,80.8539858 164.471004,80.7734756 163.500963,80.6557485 C164.306051,80.035972 164.896247,79.2377059 165.615833,79.0941548 C167.604339,78.6969206 168.219505,77.0722859 169.164576,75.6770293 C170.265518,74.0523946 171.464827,72.4953581 172.59301,70.8881926 C173.335295,69.8316864 174.004184,68.7242916 174.744199,67.6662663 C175.765692,66.2064496 176.930951,64.837017 177.841972,63.3133998 C179.66704,60.2608487 181.304455,57.0958872 183.13482,54.0471338 C184.079134,52.4733876 185.270119,51.0492688 186.395275,49.4945109 C186.751663,49.6357835 187.126967,49.7846514 187.639227,49.9882054 C186.195516,47.16883 188.466258,45.7925617 189.760906,44.0433641 C189.866082,43.9005724 190.049194,43.815505 190.14983,43.6711943 C191.1176,42.2812544 192.049807,40.864731 193.059194,39.5059318 C193.249116,39.2507297 193.737163,39.2180699 193.874875,39.1656624 C194.1957,38.1532089 194.478691,37.2622802 194.776059,36.3250201 C195.516075,36.3797063 196.180423,36.525536 196.500491,37.4141862 C196.569348,37.6033091 197.139114,37.7696462 197.398649,37.689136 C197.739146,37.5843209 198.000951,37.2235441 198.296806,36.9728992 C198.093264,36.7420021 197.932852,36.4176828 197.677857,36.2984366 C196.970378,35.966522 196.223553,35.7196747 195.485051,35.4371295 C198.314966,31.1533803 201.498242,27.3564898 205.937575,24.5705337 C205.167294,24.6214223 204.394742,24.6487653 203.628244,24.7277565 C201.366582,24.9594131 199.103407,25.1811959 196.847799,25.4652601 C195.317829,25.6574212 193.806776,25.9984502 192.275293,26.1784588 C190.969295,26.3318838 189.647407,26.3584674 188.331572,26.4275846 C186.374845,26.5293616 184.415091,26.5749334 182.462148,26.7238013 C178.263432,27.0428039 174.072283,27.4734574 169.869784,27.7362548 C167.395501,27.8911989 164.906084,27.8266389 162.423477,27.8205626 C162.031526,27.8198031 161.639576,27.6048561 161.289241,27.7134689 C160.637756,27.8106888 159.98627,27.9079086 159.093409,28.0415859 C159.592049,27.322311 159.93179,26.8324141 160.271531,26.3425173 C160.227645,26.2073209 160.183759,26.0721246 160.140629,25.9376878 C159.351431,25.9976906 158.562233,26.058453 157.50442,26.1397227 C157.997006,26.8232997 158.270918,27.2038243 158.550126,27.5896655 C157.646672,27.9534804 155.569636,27.5539676 155.108072,26.8817836 C154.605649,27.9193015 153.803588,27.6747329 152.928887,27.5273841 C151.97171,27.3656042 150.977456,27.424088 149.999093,27.3815543 C147.704138,27.2820559 145.409183,27.1802789 143.114985,27.0792614 C141.048542,26.9888773 138.982856,26.8521619 136.915656,26.8263379 C135.77007,26.8119068 135.058052,27.4856099 135.268404,28.5580663 C135.409143,29.2735435 135.299427,29.8355958 135.204844,30.5032226 C134.969522,32.1612766 134.896126,33.8436356 134.790194,35.5183993 C134.628268,38.0780154 134.551088,40.6452268 134.324847,43.2002857 C134.196214,44.6646596 133.819397,46.1062475 133.604505,47.5653047 C133.520515,48.1372308 133.599965,48.7311832 133.556835,49.3114642 C133.469062,50.4864571 133.439552,51.6774001 133.209527,52.826569 C133.047602,53.6331899 133.296543,54.4063915 132.899296,55.2912439 C132.333313,56.5505447 132.36358,58.0809976 132.145661,59.4967616 C131.930012,60.8958158 131.469206,62.3138584 131.563032,63.6931648 C131.79684,67.1178856 129.874163,70.0580263 129.683484,73.4075536 C129.533665,76.0423632 128.445586,78.6156509 128.221614,81.2550176 C127.984779,84.0561643 127.023818,86.6476807 126.518368,89.3599623 C126.25278,90.782562 125.982652,92.2051617 125.686797,93.6216852 C125.577081,94.14728 125.406832,94.6630008 125.231287,95.171886 C124.566938,97.1056493 123.910912,99.0424509 123.207974,100.961783 C122.79181,102.097281 122.079034,103.16442 121.880789,104.32802 C121.514565,106.479769 119.673607,107.783122 119.098544,109.849803 C118.64833,111.4714 117.447508,112.872733 116.656797,114.411541 C114.519985,118.569967 112.479268,122.778523 110.289489,126.908088 C109.168873,129.020341 107.781912,130.989802 106.568984,133.055724 C105.741953,134.464652 105.017827,135.935102 104.229386,137.368335 C103.408408,138.86309 102.481498,140.306957 101.756616,141.846524 C101.099833,143.241781 100.68821,144.750967 100.093473,146.178883 C99.8808515,146.687768 99.4041547,147.078167 99.1241899,147.566544 C97.8764548,149.744876 96.6203965,151.92017 95.4445442,154.137998 C94.9194211,155.126906 94.6129731,156.230503 94.1423295,157.252071 C93.5453235,158.548589 92.8953511,159.821561 92.2438655,161.092255 C91.7111757,162.130532 91.3494914,163.376921 90.5383501,164.122779 C89.5085336,165.069154 89.3367714,166.344405 88.6792324,167.410025 C87.9172741,168.644262 87.2839483,169.959008 86.5038302,171.180332 C85.7713817,172.327223 85.7638151,173.46272 86.1633324,174.706071 C86.3146647,175.17622 86.4387573,175.840049 86.2185687,176.187154 C86.0415099,176.467421 85.2326386,176.609453 84.8747376,176.442356 C84.4351172,176.238043 83.9886868,175.690421 83.8835109,175.214956 C83.7609317,174.664296 83.9584204,174.020215 84.0984028,173.435377 C84.5993128,171.336795 85.4475305,169.267076 85.5844862,167.147987 C85.7963515,163.860742 87.4481439,160.940349 87.6153661,157.678167 C87.638066,157.23688 87.8688478,156.810025 87.9581339,156.367219 C88.2744184,154.795751 88.4847704,153.19694 88.8994209,151.652056 C89.3572012,149.946911 90.0457634,148.304808 90.5436467,146.608777 C91.3358715,143.908648 92.8257383,141.402958 92.8030384,138.474211 C92.7810952,135.745979 93.418961,133.144589 94.3034985,130.587251 C95.1396096,128.168908 96.0967866,125.778667 96.7263291,123.305637 C97.2930687,121.077935 97.495854,118.756052 97.842405,116.472145 C98.1768495,114.26723 98.5355071,112.064593 98.799582,109.850563 C98.9819375,108.314793 99.0273372,106.761554 99.1249465,105.215151 C99.300492,102.427676 99.4147479,99.6348843 99.658393,96.8527259 C99.8407485,94.780728 100.138873,92.7155659 100.473318,90.6617968 C100.787332,88.7356287 101.217116,86.8284488 101.59469,84.9129142 C101.638577,84.6911314 101.672626,84.4663105 101.721809,84.2452873 C102.07063,82.6859722 102.281739,81.0772876 102.812915,79.5832921 C103.387978,77.9677718 103.397058,76.3575682 103.378142,74.7033118 C103.368305,73.7918758 103.453808,72.8781612 103.528717,71.9682443 C103.633137,70.6891957 103.733773,69.4078686 103.897212,68.1356558 C104.208956,65.7089575 104.56383,63.2875758 104.901302,60.8646751 C104.917191,60.7507456 104.988318,60.6064349 104.943675,60.5289628 C104.09243,59.0433221 104.973184,57.5447694 104.907355,56.0515334 C104.777966,53.0977213 104.70684,50.1401114 104.676573,47.1832611 C104.662953,45.840412 104.846822,44.4960439 104.867252,43.1509163 C104.917948,39.7026501 104.896762,36.2536243 104.964861,32.8061176 C104.996641,31.2080665 105.219099,29.613813 105.252393,28.0157619 C105.262986,27.4810527 104.953511,26.9402674 104.852875,26.6083528 C102.416425,26.6083528 100.081367,26.5475904 97.7500923,26.6235434 C95.0147604,26.7139274 92.2839685,26.9463436 89.55015,27.0716661 C86.4917236,27.2121791 83.4272439,27.2455984 80.3718441,27.4286452 C76.7315449,27.6458707 73.097299,27.9701901 69.4607831,28.2512162 C66.8056573,28.4570488 64.140695,28.587688 61.4969192,28.8952976 C58.3522334,29.2606315 55.2272207,29.790024 52.0908582,30.2282728 C49.3018033,30.6186712 46.5051819,30.9521049 43.7199103,31.3637701 C41.7775598,31.6508725 39.8586659,32.1119072 37.9110188,32.3412852 C35.772693,32.5926897 33.6116673,32.8114343 31.4635049,32.7833317 C28.7417929,32.7483933 26.0117576,32.5478774 23.3104755,32.2159628 C22.3048722,32.0921594 21.3212121,31.4807377 20.4109481,30.9475477 C17.3396584,29.1497402 13.9384643,28.9644148 10.5304602,28.8383329 C7.64379602,28.7319987 4.75259184,28.7312391 1.86441431,28.6613624 C1.27421822,28.6469313 0.686292119,28.5345209 0.0976093532,28.4669227 C0.0650729022,28.3180548 0.0325364511,28.1699464 0,28.0210786 C2.74970845,27.1780003 5.50017356,26.334922 8.26804188,25.4857674 C7.66498254,23.9720241 7.72929879,23.9158189 9.18738579,23.4433912 C11.5686,22.6717087 13.979324,21.9562315 16.2803321,20.9855521 C17.4985574,20.4713503 18.4746509,19.4080083 19.6278033,18.7031645 C21.0669737,17.8221096 22.2140728,16.5331872 24.1443167,16.3698883 C26.7336129,16.1519032 29.2767527,15.437945 31.8562123,15.0460275 C34.0520444,14.7118343 36.278143,14.5758784 38.4792717,14.2659902 C39.5597845,14.1140842 40.6107876,13.7593836 41.6784372,13.5110173 C44.6604407,12.8168069 47.6174745,11.9494236 50.6357978,11.4929461 C53.4339326,11.0706474 56.295627,11.0159613 59.1331082,10.9384892 C61.8934099,10.8625362 64.6620349,11.0569759 67.4208233,10.959756 C69.9170501,10.870891 72.4019269,10.476695 74.8981537,10.3551702 C76.4016404,10.2830148 77.9172337,10.5237858 79.428287,10.5389764 C83.350821,10.578472 87.2771384,10.4827712 91.1966457,10.6080936 C94.9966005,10.7311375 98.7927721,11.0311519 102.585917,11.32509 C103.391005,11.388131 104.191553,11.7109312 104.961078,12.0041098 C106.13466,12.451473 106.802792,11.8962565 107.602584,11.0827999 C109.100017,9.55918271 110.766943,8.20190259 112.382415,6.7975316 C113.445525,5.87242406 114.63651,5.07415802 115.589904,4.04955204 C116.223987,3.36825363 116.590211,2.41124582 116.985188,1.53626725 C117.713853,-0.079253073 118.230653,-0.316985965 119.813589,0.34304561 C123.348713,1.81729335 126.830113,3.39331812 129.901403,5.73570865 C131.451046,6.91829687 133.070302,8.04847752 133.580292,10.1318683 C133.664281,10.476695 134.090282,10.7326566 134.187134,11.0782427 C134.343007,11.6349782 134.356626,12.2327283 134.452722,12.9884607 C135.39401,13.0446659 134.527632,14.9974176 135.933509,15.0634967 C136.180181,13.4426596 136.413989,11.9106876 136.647041,10.3779561 C136.731031,10.3642845 136.81502,10.350613 136.899766,10.3369414 C137.152491,11.7754913 137.405216,13.2148006 137.667778,14.7125938 C143.632542,15.4030066 149.558716,16.0896217 155.573419,16.7861107 C155.613522,16.7230697 155.766368,16.4860964 155.812524,16.413941 C156.725058,16.552935 157.490043,16.7481342 158.259568,16.7709201 C161.377771,16.8643423 164.500513,16.8430755 167.616446,16.9782718 C172.319855,17.1825854 177.018724,17.4977903 181.721376,17.729447 C183.013754,17.7932475 184.312942,17.6899514 185.60759,17.7271684 C188.062201,17.7970452 190.516054,17.9922444 192.969908,17.9861681 C195.069644,17.9808514 197.170137,17.6610893 199.267603,17.6861538 C200.578141,17.7021039 201.875816,18.2018746 203.192407,18.2960564 C204.439385,18.3856809 205.70301,18.2292177 207.143694,18.173772 C208.78338,19.0069765 210.611474,20.1401952 212.918536,19.4497824 C214.430346,18.9971026 215.938373,18.2709919 217.470612,18.2079509 C219.37286,18.1289598 221.293267,18.6712642 223.215188,18.8322846 C225.812807,19.0502697 226.869107,20.7607312 227.576585,22.9777993 C228.198561,24.9267533 229.064182,26.7997543 229.637732,28.7608608 C230.151505,30.5184132 230.400447,32.3534377 230.789371,34.1489667 C231.264554,36.3440084 231.754114,38.536012 232.255781,40.7249775 C232.707508,42.6951983 233.256844,44.6456713 233.610962,46.6318423 C233.744891,47.3875747 233.454333,48.21926 233.324944,49.2863997 C233.979456,50.0413725 234.089172,51.2042129 233.518649,52.3571795 C233.694195,53.2184865 233.949947,53.8473774 233.922707,54.4625967 C233.839474,56.3492692 233.645012,58.2298655 233.498976,60.1134999 C233.487626,60.2631273 233.47098,60.4385788 233.533783,60.5631417 C234.199645,61.8885215 233.754728,63.2351682 233.713111,64.5932079 C233.663172,66.2011329 233.962053,67.8166532 234.032423,69.4329331 C234.128519,71.6332915 234.147435,73.8374476 234.209481,76.0400846 C234.232938,76.8444269 234.279851,77.6495287 234.328277,78.4531115 C234.336601,78.5951436 234.439507,78.7341376 234.43875,78.8731315 C234.422103,81.0180443 234.335087,83.1637166 234.392594,85.3063507 C234.433453,86.7889533 234.742928,88.263201 234.804218,89.7458036 C234.910907,92.3190912 234.88291,94.8969361 234.983546,97.4702237 C235.025919,98.5578707 235.36566,99.6379224 235.370957,100.722531 C235.386847,103.848757 235.349014,106.975742 235.240055,110.099689 C235.164388,112.284857 235.607792,114.327233 236.217661,116.418219 C236.707222,118.099059 236.571779,119.957629 236.810128,121.724295 C236.863094,122.117732 237.246721,122.568133 237.603109,122.801309 C239.365374,123.957314 241.48327,123.613247 243.412757,124.09175 C244.94424,124.471515 246.496153,124.766973 248.043526,125.074582 C251.406131,125.742209 254.749819,126.575414 258.144203,126.996193 C261.008167,127.352413 263.940988,127.11392 266.827652,127.339501 C269.522881,127.55065 272.196166,128.039028 274.882315,128.380816 C276.10735,128.53652 277.336926,128.676274 278.569528,128.74615 C280.485395,128.855523 282.293816,129.174525 284.044731,130.114823 C285.208477,130.739917 286.621164,131.019424 287.955159,131.181963 C290.802476,131.527549 293.678547,131.633883 296.528892,131.959722 C298.246514,132.15644 299.930843,132.631906 301.644681,132.880272 C302.584455,133.016988 303.555252,132.913691 304.509402,132.968378 C308.144405,133.173451 311.776381,133.504606 315.413653,133.576002 C317.607972,133.619295 319.811371,133.280544 322.009473,133.096738 C326.116632,132.75419 330.204119,132.908375 334.287822,133.454477 C336.765889,133.785632 339.256819,134.01425 341.740939,134.297555 C342.076897,134.335532 342.450688,134.342367 342.735949,134.495792 C344.990801,135.714079 347.250192,135.304692 349.546661,134.62947 C352.048184,133.893485 354.575434,133.248644 357.083767,132.537724 C357.664127,132.373666 358.21422,132.103273 359.085894,131.760725 C358.581957,131.162975 358.149147,130.715612 357.790489,130.214322 C356.501138,128.410438 355.124014,126.655924 353.997344,124.751782 C353.034871,123.124869 352.371279,121.320225 351.576027,119.593814 C350.595394,117.462573 349.785766,115.228035 348.591754,113.224395 C347.07389,110.676931 345.268496,108.298843 343.544064,105.878221 C340.894991,102.160322 338.223976,98.4583723 335.5348,94.7700946 C333.810368,92.4041586 332.247105,89.8665689 330.220765,87.7900138 C328.357864,85.8797959 326.088636,84.3045306 323.51296,83.3308132 C322.169885,82.8234471 320.786708,82.3927936 319.50795,81.7532693 C318.463757,81.2314722 317.48388,80.5273879 316.589506,79.769377 C315.227515,78.6156509 314.065282,77.2006465 312.624599,76.1684452 C311.42302,75.3086572 309.928613,74.8704084 308.590079,74.1913886 C305.172995,72.4573816 301.571285,71.1297231 298.30856,69.0311417 C296.493329,67.8645036 294.261177,67.3495423 292.214407,66.5467191 C290.472572,65.8631421 288.730737,65.1841222 287.683517,63.468344 C286.033238,60.7636576 283.366006,61.0940532 280.760063,61.0294931 C279.011418,60.9861999 277.268826,60.6178278 275.525478,60.3808545 C274.077227,60.1833767 272.636543,59.9160221 271.183753,59.7656352 C266.598384,59.2916885 262.227149,58.0574522 258.080643,56.0583692 C257.276312,55.6710089 256.49695,55.0975638 255.902971,54.432975 C254.960171,53.3787474 254.986654,52.2751503 256.08911,51.4328315 C257.725012,50.1841642 258.062483,48.2504008 258.984854,46.6257661 C259.801292,45.1879758 260.651023,43.7653761 261.56734,42.3906268 C262.06144,41.6485659 262.669796,40.9589127 263.324309,40.3520482 C266.194326,37.6929337 269.045427,35.0079951 272.022891,32.474203 C273.040601,31.6075793 274.456315,31.2316119 275.603414,30.4948678 C276.916222,29.6502704 278.1859,28.8208637 278.928942,27.2372436 C280.076041,24.7900379 282.275656,24.4193873 284.740103,24.9366272 C285.21907,25.0376447 285.76538,24.9214366 286.260993,24.8143429 C288.081521,24.4209063 289.900536,24.0168364 291.707444,23.5664351 C294.100008,22.970204 296.470629,22.2889056 298.867733,21.7147009 C301.33672,21.1230271 303.804194,20.4523621 306.31177,20.1257642 C308.163321,19.8842336 310.079945,20.1880456 311.965546,20.1569049 C313.061949,20.1386762 314.155325,19.932084 315.250214,19.8211926 C318.867057,19.4543396 322.489953,19.1444514 326.098473,18.7122788 C328.859531,18.3818833 331.596376,17.8494527 334.356678,17.5046261 C335.818548,17.3215794 337.312955,17.4074063 338.781635,17.262336 C340.661939,17.0770107 342.52711,16.7443366 344.405901,16.5438206 C346.000944,16.3744455 347.553614,16.4845773 349.000351,17.3618345 C349.403652,17.6056436 350.018817,17.4803211 350.531077,17.5623504 C353.71738,18.0712355 356.908978,18.5467013 360.081661,19.1300203 C361.220437,19.3396506 362.311543,19.8128378 363.420809,20.1766527 C365.328353,20.8017459 367.17158,20.0915853 369.049615,19.9617057 C371.771327,19.7733422 374.182051,20.6057871 376.134238,22.6542395 C377.210211,23.7836607 378.521505,24.3267246 380.106711,23.615045 C380.480502,23.4471889 380.921636,23.4312387 381.33099,23.3423737 C383.351277,22.9041249 383.921043,23.3287022 384.515022,25.3163922 C384.820713,26.3387196 385.432853,27.2691439 385.91863,28.2656472" id="Fill-3"></path>
                <path d="M922.302956,71.713953 C921.164063,71.7801285 920.169668,71.7405753 919.214893,71.9117187 C916.440687,72.4106968 913.699886,73.1142863 910.910918,73.5060145 C908.49718,73.8452588 906.031391,73.8064662 903.599785,74.0498702 C901.835511,74.2255774 900.096873,74.6294758 898.335706,74.8561457 C896.684855,75.0691242 895.024682,75.2341825 893.362178,75.325459 C891.360181,75.4349907 889.351193,75.4357514 887.346088,75.4988843 C885.619881,75.5536501 883.890566,75.7354425 882.16902,75.6738308 C879.310911,75.5719054 878.557346,76.2678886 878.351475,79.0442147 C878.190663,81.2067066 877.661614,83.3425762 877.478272,85.505068 C877.373394,86.7479494 876.960099,88.0311445 877.675597,89.3021695 C877.92808,89.7509455 877.704342,90.4590988 877.693465,91.0485927 C877.669382,92.3606921 877.590141,93.6743127 877.629762,94.9841302 C877.686473,96.8819202 877.616555,98.7287476 877.069638,100.59307 C876.323842,103.136641 875.890348,105.766925 875.218354,108.333315 C874.711834,110.266855 874.053048,112.162363 873.443204,114.070041 C872.914155,115.729752 872.331501,117.37425 871.824981,119.040806 C871.459852,120.247177 871.219022,121.489298 870.854669,122.695669 C870.252594,124.692341 869.759281,126.74302 868.912492,128.640049 C868.196993,130.244233 867.025472,131.649891 866.099442,133.169644 C865.779371,133.696005 865.605352,134.306036 865.345877,134.868908 C865.110485,135.378535 864.837026,135.871428 864.602411,136.381055 C863.589371,138.580057 862.739474,140.831544 861.110376,142.746068 C859.944292,144.116736 859.17752,145.809154 858.193225,147.332711 C857.196499,148.873001 856.111987,150.359287 855.139344,151.912508 C854.047841,153.655128 852.971874,155.412961 852.011662,157.22632 C851.10583,158.936233 850.419853,160.757199 849.497707,162.457984 C849.282513,162.855036 848.418633,163.25361 848.005337,163.136472 C847.262649,162.925776 847.658853,162.340085 847.967271,161.865447 C848.688207,160.756438 849.402152,159.640583 850.057054,158.493542 C851.286064,156.34246 852.459916,154.161713 853.681157,152.006827 C854.036964,151.380062 854.549699,150.833164 854.858894,150.188904 C855.121476,149.641245 855.523119,149.11032 854.815389,148.392279 C854.486773,148.058359 854.828596,147.070291 854.900068,146.382675 C855.113708,144.341885 855.404258,142.30718 855.546425,140.262587 C855.637319,138.957334 855.433002,137.632303 855.521565,136.32705 C855.596145,135.231732 855.916992,134.153148 856.09878,133.062394 C856.186567,132.538315 856.222303,132.003587 856.247163,131.471902 C856.282899,130.693009 856.146169,130.034297 856.857783,129.253123 C857.395378,128.662868 857.030249,127.297524 857.098613,126.279031 C857.199607,124.776012 857.303707,123.272232 857.451313,121.772255 C857.549199,120.784187 857.525892,119.719295 857.91122,118.838477 C858.5669,117.342303 858.013767,115.862103 858.173803,114.385706 C858.312863,113.107835 858.563015,111.74097 858.247606,110.543727 C857.8716,109.116011 858.082132,107.592454 857.601249,106.297849 C856.784757,104.100368 856.971983,101.839754 856.608408,99.625539 C856.357478,98.0958974 856.129855,96.5571281 856.005556,95.013795 C855.925538,94.0158389 856.095673,93.0011487 856.065375,91.9971074 C856.040515,91.1839862 855.850958,90.3784713 855.790362,89.56535 C855.671501,87.9976765 855.467961,86.4231573 855.525449,84.8600476 C855.630327,82.0038545 856.183459,79.1697199 855.439994,76.2967928 C855.196833,75.358927 855.545648,74.2811039 855.57983,73.2656531 C855.606244,72.483718 855.673055,71.6797243 855.530887,70.9198477 C855.079525,68.5162338 854.523286,66.1323965 854.038518,63.7348677 C853.820994,62.6593265 853.677273,61.5700939 853.498593,60.4869464 C853.461303,60.2625584 853.451204,60.0275214 853.371963,59.8175855 C852.264922,56.9233606 851.134574,54.036742 850.038409,51.1379532 C849.20405,48.9298231 848.223638,46.7688525 848.088463,44.3530684 C848.00223,42.8181024 847.82355,41.2762905 847.528339,39.7671861 C847.306153,38.6361184 846.7336,37.5704656 846.504423,36.4393979 C846.323412,35.5509735 846.410421,34.606262 846.411975,33.6866515 C846.414306,32.9465514 846.389722,32.1919992 846.516852,31.4671118 C846.743699,30.1801135 847.094068,28.9151737 847.35665,27.6334998 C847.463858,27.1117026 847.511247,26.5716501 847.522901,26.0384434 C847.562521,24.3665626 848.511857,22.9905697 849.043237,21.4807046 C849.380399,20.5253442 849.803017,19.596606 850.224858,18.6724317 C850.798966,17.4128163 852.711622,16.4992909 854.101445,16.6575035 C855.370852,16.8020246 856.660458,16.8902585 857.935303,16.8461415 C862.010769,16.7054236 865.707898,17.9300497 869.164975,19.8666323 C871.334776,21.083652 872.712945,23.0917344 873.774928,25.2709603 C874.279894,26.307709 874.627155,27.4167182 875.10027,28.4686796 C875.211362,28.7158867 875.638641,28.8246578 875.755949,29.0711043 C876.018531,29.6256089 876.126516,30.2508528 876.390653,30.8038361 C876.727815,31.506665 877.185392,32.1516854 877.543529,32.8453866 C878.71272,35.1113252 879.338101,37.4905987 879.471723,40.054707 C879.613891,42.7990864 880.041947,45.5297744 880.365902,48.2635048 C880.721709,51.2672616 881.239882,54.2603694 881.416231,57.2732537 C881.520332,59.0326078 881.091499,60.8208661 880.909712,62.5969543 C880.76599,63.994245 880.631592,65.3922964 880.487871,66.8557625 C880.793958,66.9006401 881.057317,66.9888741 881.311354,66.9683369 C885.447415,66.636699 889.592023,66.3826461 893.712547,65.9216999 C897.261294,65.5254079 900.774305,64.8362705 904.316837,64.3745636 C908.047372,63.8877558 911.795775,63.518086 915.536409,63.0989749 C915.652939,63.0852834 915.790446,63.1255972 915.886001,63.077677 C917.735731,62.1603484 919.745496,62.8753475 921.628632,62.5064384 C922.145251,62.4052737 922.835889,61.6469183 922.903477,61.1228392 C923.185481,58.9603473 923.576247,56.7347225 923.313665,54.6049381 C923.072835,52.646297 923.312888,50.754592 923.331533,48.8400679 C923.355616,46.3041031 922.750434,43.8997286 922.15535,41.472535 C921.95181,40.6449616 922.093977,39.7344787 921.881115,38.9114692 C921.506663,37.4715827 922.1033,36.1404674 922.15302,34.7659958 C922.202739,33.3649019 921.721079,31.9516378 921.721079,30.5436981 C921.720303,28.3416531 921.602995,26.1281986 922.240029,23.9474514 C922.869295,21.7971297 923.260838,19.5806326 923.847375,17.4173801 C924.039263,16.7107481 924.517038,16.0794191 924.893044,15.356053 C924.813026,15.2419574 924.666198,15.0320215 924.502278,14.7977452 C924.619585,14.6981018 924.693388,14.6197561 924.781951,14.5649902 C925.450837,14.148161 926.073888,13.6005021 926.801816,13.344928 C930.639559,11.9978393 934.59461,11.6669621 938.570636,12.5569077 C940.658865,13.0246997 942.935875,13.1258644 944.574296,14.8304527 C945.676676,15.9767331 946.692046,17.1085614 946.520358,18.8557453 C946.46753,19.3927552 946.657864,19.9571481 946.765849,20.5040463 C947.142631,22.4140066 947.51786,24.3247275 947.920279,26.2293633 C948.262103,27.8472389 948.680836,29.4499017 948.989254,31.0731017 C949.21377,32.2566534 949.421971,33.4622635 949.442947,34.6610279 C949.473245,36.5040521 949.346615,38.3516401 949.267374,40.1954249 C949.171819,42.4240922 949.117438,44.6565627 948.927104,46.8776237 C948.82145,48.1030104 948.492056,49.3131843 948.223259,50.5210764 C948.106728,51.048198 947.799864,51.5426123 947.729946,52.0704946 C947.336849,55.0582779 947.152731,58.1015878 946.141245,60.9509351 C945.783107,61.9595402 945.811851,63.0350813 945.224537,64.07183 C944.693157,65.0089352 944.638776,66.3796036 944.073991,67.4285224 C942.770401,69.8526735 942.914122,72.638888 941.91662,75.1368209 C941.19413,76.9456164 940.240909,78.7833161 940.088642,80.6620903 C939.913069,82.8283853 938.262218,84.3793248 938.160448,86.4976997 C938.125489,87.2203052 937.71064,87.933783 937.426305,88.6343299 C936.362768,91.2463584 935.149296,93.8089455 934.248902,96.4726974 C933.543503,98.5583649 933.240524,100.77258 932.711474,102.917577 C932.409272,104.147528 931.978108,105.346292 931.664252,106.5732 C931.216774,108.325709 930.869513,110.103318 930.391737,111.846699 C929.992426,113.303319 929.447062,114.721147 929.001138,116.166358 C928.433245,118.0071 927.838162,119.843279 927.363494,121.709122 C926.387744,125.539691 925.571252,129.412096 924.517038,133.221368 C923.962352,135.221844 923.047198,137.12648 922.287418,139.07219 C921.830618,140.24205 921.362942,141.408107 920.88905,142.572643 C920.802041,142.7841 920.712701,143.039674 920.541012,143.165179 C919.600998,143.851274 919.395904,144.884219 919.012907,145.881415 C918.215837,147.954912 916.99848,149.80174 915.570591,151.540556 C914.003642,153.449756 912.463107,155.403073 911.165732,157.489501 C910.318166,158.852563 909.977119,160.50847 909.310564,161.990952 C908.692175,163.367706 907.959585,164.696539 907.246418,166.030697 C906.82613,166.817957 906.059359,166.801223 905.60722,166.259649 C905.287149,165.874767 905.158188,164.998512 905.388919,164.571034 C906.407397,162.677047 907.58591,160.865209 908.709266,159.025228 C909.28182,158.087362 909.880011,157.163187 910.42382,156.210109 C910.558219,155.975072 910.666204,155.56737 910.55045,155.377211 C909.387474,153.468011 909.991103,151.698008 910.787396,149.853463 C911.194476,148.907991 911.251188,147.814955 911.444629,146.785052 C911.523093,146.369744 911.532415,145.943027 911.589904,145.523155 C911.797328,144.01405 912.033497,142.507988 912.217616,140.995841 C912.526033,138.445425 912.644895,135.863061 913.13277,133.347633 C913.705324,130.396361 913.900318,127.455737 913.946154,124.461868 C913.982667,122.046084 914.503947,119.640188 914.749438,117.224404 C914.799158,116.74216 914.530361,116.236337 914.482972,115.735077 C914.406061,114.92804 914.395962,114.114919 914.34935,113.30484 C914.318275,112.775437 914.253018,112.247554 914.234373,111.718151 C914.194752,110.546009 914.068122,109.363978 914.174554,108.203246 C914.329151,106.508546 914.573866,104.811564 914.934334,103.14729 C915.343745,101.257867 916.183542,99.426252 916.349793,97.5284619 C916.492737,95.9083045 917.12278,94.6684657 917.852261,93.2947547 C918.574752,91.9339745 919.53341,90.4956094 919.110016,88.7689627 C919.083602,88.6632341 919.078941,88.5369683 919.1139,88.4358036 C919.559824,87.13055 920.130047,85.8526793 920.439242,84.5170002 C920.814471,82.8907576 921.123666,81.2219194 921.1897,79.5606875 C921.292247,76.9874515 921.513655,74.4454016 922.302956,71.713953" id="Fill-6"></path>
                <path d="M467.718061,50.7186678 C467.369034,50.3158592 467.020007,49.9130506 466.5818,49.4076398 C466.745551,49.1469542 466.981567,48.7715061 467.173763,48.4674996 C466.571806,46.852465 467.524328,45.5703176 467.949465,44.1042462 C467.706529,43.9248824 467.409779,43.7044777 467.113029,43.484833 C467.224503,43.5197937 467.335976,43.5547544 467.44745,43.5897152 C467.97099,42.3964897 468.516826,41.2116243 469.006541,40.0054785 C469.215649,39.4894274 469.176441,38.8396135 469.475498,38.4003241 C470.405725,37.0315348 470.333459,35.4659013 470.482603,33.957269 C470.599458,32.7754437 470.847775,31.7547418 471.472795,30.6625984 C472.330756,29.1623263 472.595986,27.3420874 473.260214,25.7171726 C473.670744,24.7124311 474.265013,23.7510105 474.929241,22.8845919 C475.843324,21.6936464 476.882717,20.5939029 477.902123,19.4850391 C479.348203,17.9125655 480.763532,16.3043711 482.308785,14.8314595 C483.425057,13.7674367 484.930333,13.0621416 485.908224,11.9053969 C487.589552,9.91643429 489.618369,10.9006554 491.508036,10.9629767 C494.876841,11.0746991 496.655804,13.5249915 498.161849,16.0170849 C499.207393,17.7476419 499.85317,19.7191242 499.281196,21.8752903 C499.174335,22.279619 499.675582,22.840511 499.940043,23.4234435 C498.038075,24.2549013 497.941208,26.0508197 497.709805,27.9060194 C497.56758,29.0422438 496.863375,30.1047465 496.459764,31.2174103 C495.883177,32.8073644 495.339648,34.4094787 494.8015,36.012353 C494.096527,38.1092379 493.434605,40.2198031 492.709643,42.3098478 C491.970074,44.4424535 491.132101,46.5423784 490.418671,48.6833442 C489.411566,51.7021289 488.53131,54.7634744 487.480385,57.7670587 C487.209004,58.5430353 486.43484,59.134328 486.01816,59.879904 C485.695272,60.4567563 485.561503,61.1384909 485.360082,61.7791846 C484.748131,63.7210262 484.141562,65.6651478 483.54268,67.6115495 C483.46734,67.8570347 483.319734,68.2248826 483.428901,68.3594055 C484.478289,69.6521932 483.582657,70.8689792 483.300514,72.0933654 C483.224404,72.4224525 482.893828,72.6968183 482.669344,72.9894246 C482.490217,73.2212296 482.206536,73.4135137 482.122739,73.6719192 C481.546152,75.4473172 480.965721,77.2227152 480.476007,79.0216738 C480.114679,80.3486622 479.901726,81.7151714 479.59652,83.0581202 C479.4197,83.8356168 479.143707,84.592593 478.991488,85.3738897 C478.412595,88.3394732 477.453923,91.1690138 476.28768,93.9681537 C475.247517,96.4655672 473.676894,98.6437738 472.483744,101.034785 C471.688823,102.627779 471.097629,104.318815 470.360367,105.94221 C469.560833,107.700888 468.694415,109.429925 467.861823,111.173402 C466.913146,113.158565 465.923723,115.126247 465.043467,117.14105 C464.608336,118.139711 464.450735,119.254655 464.043281,120.267757 C462.463433,124.189441 460.467673,127.9044 458.340452,131.564639 C456.822875,134.175295 455.535933,136.918193 454.205171,139.631451 C453.701618,140.657473 453.444076,141.804338 452.924379,142.82124 C452.570739,143.512854 452.065649,144.22651 451.438322,144.665039 C450.037601,145.64394 449.894607,147.310656 449.020501,148.569243 C448.001096,150.034554 447.172348,151.629828 446.163706,153.1035 C445.961516,153.399146 445.324195,153.474388 444.881376,153.490364 C444.766828,153.494148 444.447783,152.819254 444.542343,152.579089 C444.724545,152.116999 445.162751,151.759791 445.444894,151.327342 C446.524265,149.673546 447.59441,148.012911 448.639954,146.337835 C448.791404,146.09463 448.832918,145.760223 448.8506,145.463816 C448.954386,143.669418 448.985137,141.868939 449.141969,140.079101 C449.307257,138.1897 449.470239,136.28738 449.850018,134.4337 C450.193663,132.761664 450.949377,131.17171 451.303017,129.500434 C451.694327,127.653595 452.257845,125.890357 452.231706,123.875554 C452.200186,121.33862 453.212672,118.788005 453.780034,116.244231 C453.829236,116.023826 453.967617,115.817862 453.988374,115.597457 C454.155969,113.809899 454.267442,112.0155 454.471169,110.231742 C454.689504,108.310421 455.066976,106.4043 455.231495,104.479179 C455.409853,102.394454 455.518251,100.293769 455.48135,98.2029644 C455.437529,95.7268314 455.833452,93.3973815 456.814419,91.0960523 C457.527849,89.4240165 457.814605,87.579457 458.396573,85.8458599 C459.216864,83.3993675 460.168617,80.995436 460.991214,78.5504637 C461.266438,77.7319261 461.321022,76.8411871 461.536281,75.6494816 C460.677551,75.527879 459.789607,75.3371149 458.893206,75.2869538 C457.267231,75.1965119 455.635875,75.203352 454.007594,75.1410307 C452.248619,75.0741492 450.485032,75.0391885 448.735283,74.8735049 C445.337264,74.5520181 441.918488,74.8864252 438.512013,74.2130508 C436.573912,73.8300026 434.468217,74.3004527 432.436325,74.3437736 C431.753646,74.3582139 431.068661,74.2328112 430.382907,74.1872103 C427.986612,74.0276068 425.617224,74.1324891 423.453101,74.8035835 C423.337015,75.8296054 423.213241,76.7271846 423.139438,77.6293239 C423.063328,78.5519837 423.1256,79.4936439 422.968768,80.3995833 C422.62666,82.3756256 422.32991,84.3797885 421.74256,86.2897094 C421.078332,88.4504356 420.347988,90.6552428 419.210959,92.5902442 C418.20616,94.3010409 418.10545,96.0635186 417.733359,97.8715973 C417.379719,99.5884741 416.435654,101.184508 415.786033,102.846664 C415.240966,104.239014 414.328421,105.423879 414.223098,107.074634 C414.113931,108.782391 413.38205,110.465827 412.822376,112.126462 C412.408771,113.353889 411.834491,114.528114 411.332476,115.7259 C411.274817,115.863462 411.174107,116.001025 411.169494,116.141628 C411.087234,118.974209 409.867945,121.543824 409.210636,124.241122 C408.73476,126.191324 407.853735,128.041963 407.227177,129.961004 C406.90967,130.933825 406.816647,131.978087 406.515285,132.958508 C405.84875,135.128355 405.441295,137.346842 405.367492,139.601051 C405.285233,142.147105 405.371336,144.69848 405.380562,147.247574 C405.382868,148.086632 405.600433,149.014612 405.308296,149.740428 C404.986945,150.539965 404.199712,151.159378 403.601599,151.844913 C403.154167,152.357924 402.838967,152.123839 402.510696,151.667069 C401.506666,150.271679 401.419794,148.646004 401.23298,147.03249 C400.990813,144.944725 401.211454,142.813639 400.307366,140.781356 C400.009847,140.113302 400.498793,139.133641 400.503405,138.296103 C400.518012,135.572964 401.007727,132.710743 400.325048,130.160129 C399.37022,126.587292 399.369451,123.068417 399.259515,119.46898 C399.153423,116.007866 398.509183,112.565752 398.254716,109.103878 C397.984874,105.439079 397.238386,101.814562 397.664291,98.0806018 C397.845724,96.4921678 397.218398,94.8132918 396.957012,93.1754568 C396.950861,93.139736 396.904734,93.1055353 396.907809,93.0736146 C397.093086,90.7304844 396.554169,88.3835542 397.253762,86.0267437 C398.144012,83.0246795 399.181099,79.9754942 399.396358,76.8951482 C399.588554,74.1385692 400.298909,71.5073929 400.641017,68.8009749 C400.954681,66.3240819 401.392118,63.8654293 401.607377,61.3626957 C401.808029,59.0248856 402.399223,56.7205163 402.795146,54.3979066 C402.869718,53.9586172 402.847423,53.5010874 402.848961,53.0511578 C402.854342,51.4140827 402.826666,49.7754876 402.863568,48.1384126 C402.876637,47.5410398 402.91892,46.8995861 403.147248,46.3607345 C404.330405,43.5767949 404.424965,40.6697327 404.407283,37.7102293 C404.400364,36.4554425 404.821657,35.1960955 405.07228,33.9435887 C405.355961,32.5284384 405.65963,31.1170882 405.973293,29.708018 C406.030183,29.4549326 406.129356,29.1767666 406.29695,28.9860025 C407.223333,27.9349 407.467037,26.5873912 408.016717,25.3698451 C408.673257,23.913654 409.477404,22.4582228 410.510647,21.2475169 C412.544846,18.8633458 414.778928,16.6463784 416.934594,14.3648095 C418.841175,12.3477263 421.0545,10.7562523 423.63684,9.68538935 C426.926461,8.31964011 430.091538,8.41084206 433.107472,10.4537658 C434.987145,11.726793 436.672317,13.1586637 437.507214,15.3399104 C437.654052,15.7252387 437.863161,16.1417276 437.832409,16.5278158 C437.725549,17.892045 437.6233,19.2691945 437.337313,20.6030231 C436.97983,22.2742989 436.443988,23.9083338 435.980412,25.5568091 C435.52068,27.1908441 435.094006,28.8355193 434.577384,30.4513139 C434.206062,31.6126188 433.736336,32.7465631 433.265072,33.8729072 C432.241054,36.3178795 431.06943,38.7104107 430.195324,41.2047841 C429.750199,42.4740113 429.853216,43.9241224 429.634881,45.2807514 C429.568766,45.6957203 429.236652,46.0628081 429.064445,46.4678968 C428.779226,47.1397512 428.526297,47.8252859 428.257992,48.5039804 C428.091935,48.9250294 427.894358,49.3369582 427.761358,49.7686475 C427.65911,50.1022946 427.634509,50.4610223 427.516885,50.7901094 C427.225517,52.1824592 426.904166,53.5687288 426.650468,54.9671588 C426.376012,56.4818712 426.55437,58.2367488 425.816339,59.463415 C425.0637,60.7151618 425.030643,62.1417124 424.260323,63.3242977 C424.065052,63.6245041 424.210352,64.131435 424.168069,64.5403237 C424.082734,65.3565812 423.976642,66.1705586 423.859018,67.1540197 C424.21804,67.1851803 424.66009,67.2976628 425.080614,67.2452216 C426.637398,67.0476174 428.182651,66.7458909 429.742511,66.5779273 C431.224724,66.4183239 432.721543,66.3940034 434.209137,66.2754409 C435.122451,66.2032393 436.029614,65.9706743 436.939084,65.9737144 C438.584279,65.9805546 440.229473,66.1796788 441.873899,66.1690386 C444.204848,66.1538383 446.535027,65.9638342 448.866745,65.9592741 C450.547303,65.955474 452.250157,66.001075 453.904577,66.2610006 C456.156341,66.6151681 458.386579,66.8583734 460.656794,66.5444866 C461.484772,66.4304842 462.320439,66.2914012 463.151493,66.2997614 C463.933345,66.3088816 464.168592,65.9243134 464.240858,65.2760195 C464.469955,63.199655 464.64985,61.1164504 464.949675,59.0499662 C465.24335,57.0237628 465.662337,55.0150398 466.020589,52.9979566 C466.054416,52.8102326 466.090548,52.6088283 466.057491,52.4256644 C465.851457,51.2932401 466.399599,50.8752312 467.718061,50.7186678" id="Fill-8"></path>
                <path d="M535.438829,52.9669011 C534.798398,52.9669011 534.317691,52.8953035 533.866932,52.9789596 C531.012638,53.5087814 528.334193,54.4764788 525.94832,56.1435711 C525.793972,56.2505906 525.61505,56.4525711 525.476828,56.4299613 C524.08846,56.2083858 523.061774,57.1497051 521.86231,57.5159831 C521.155072,57.7315294 520.52616,58.2312049 519.902623,58.6600365 C518.24856,59.7965533 516.572997,60.9089531 514.993421,62.1396772 C514.104958,62.8330429 513.406166,63.7562745 512.596029,64.5513841 C511.272165,65.8484301 509.896083,67.0964884 508.609847,68.4274491 C508.15448,68.8969783 507.914895,69.5624586 507.53939,70.1133829 C507.05254,70.8270974 506.534206,71.5197094 506.018175,72.2130752 C504.84482,73.7897285 503.593907,75.3158867 502.510396,76.9505717 C501.69258,78.1835569 501.556661,79.5989273 501.787032,81.0874026 C501.906057,81.8531195 501.755548,82.6942023 501.568179,83.4644411 C501.109742,85.3448188 501.60811,87.1453087 501.876876,88.9744376 C502.000509,89.816274 501.975168,90.6777055 502.05503,91.5270785 C502.131052,92.3387686 502.095729,93.2084904 502.390603,93.9433073 C503.144684,95.816902 503.888013,97.7311943 504.951558,99.4397379 C506.058874,101.219879 507.465672,102.838737 508.872469,104.416144 C510.147956,105.846588 511.790499,106.98838 512.924691,108.505495 C514.379867,110.453701 516.463187,111.364121 518.467413,112.461447 C522.045839,114.420206 526.008984,115.060061 529.977505,115.714237 C532.545371,116.137039 535.120149,116.048108 537.691855,115.94561 C538.901301,115.897376 540.122267,115.6758 541.299461,115.382627 C543.61392,114.806832 545.912252,114.162454 548.195995,113.478133 C550.487416,112.79155 552.420995,111.564594 553.929924,109.691753 C554.646377,108.80319 555.527161,108.045009 556.299671,107.198651 C558.07583,105.251198 558.998081,102.871898 559.582455,100.391608 C560.405647,96.9081994 561.490693,93.4820683 561.707242,89.8614935 C561.843928,87.5861988 562.417551,85.3387895 562.708587,83.0687705 C562.847577,81.9789805 562.780769,80.8635661 562.817629,79.7602102 C562.835291,79.2522444 562.854488,78.7427714 562.909777,78.2378203 C563.030338,77.144262 562.431374,76.4290401 561.35631,76.2361036 C560.834136,76.14265 560.255138,75.9346402 559.874258,75.593233 C558.809945,74.6406088 557.467651,74.3949162 556.218274,74.5358503 C553.962944,74.7898332 551.652325,75.1252111 549.547503,75.9037403 C548.199066,76.4019084 547.290638,76.1298378 546.206359,75.6188574 C544.966964,75.0332648 543.722962,74.4499332 542.447476,73.9495041 C542.131868,73.8259041 541.684948,74.0241163 541.34016,74.0693358 C540.182931,73.3134164 538.953519,72.6373848 537.876151,71.7782143 C535.918768,70.2173878 534.318459,68.3671564 533.622739,65.9004326 C533.380082,65.0405083 533.057562,64.2031939 532.804155,63.3462843 C532.74349,63.1412892 532.752705,62.7267771 532.832567,62.6988918 C534.302333,62.1946943 534.074266,60.8079629 534.322298,59.7671606 C534.624852,58.4972463 535.490278,57.8031269 536.374902,57.0027417 C537.943727,55.5828493 539.871162,54.8442641 541.749452,53.9737887 C542.778442,53.4974766 543.801288,52.9352474 544.67209,52.2283159 C545.379328,51.6547818 545.77403,50.818221 544.260494,50.361504 C545.405437,49.6832115 546.429819,49.1609262 547.34823,48.4984605 C547.858886,48.1291679 548.167582,47.5006168 548.616805,47.0341023 C548.9447,46.694956 549.339402,46.1982951 549.727961,46.1749317 C551.304465,46.0814781 552.890952,46.1560903 554.472831,46.1455391 C555.660008,46.1372488 556.861008,45.9654147 558.028988,46.0957976 C559.534077,46.2646171 561.000771,46.7620316 562.50586,46.935373 C564.314271,47.1441364 566.107324,47.4064095 567.954129,46.7077682 C568.943956,46.3339537 570.234032,46.3934927 571.306792,46.6248658 C574.392225,47.2895925 577.460764,48.0598313 580.485532,48.9491482 C582.303926,49.4842457 584.076245,50.242426 585.443112,51.6397087 C585.598228,51.7979769 585.774078,51.9878988 585.82092,52.1891256 C586.303163,54.2338008 588.020961,55.2120494 589.551391,56.3259565 C591.336764,57.6245099 592.525478,59.3240095 593.549092,61.2398091 C595.173206,64.2785597 595.499565,67.5034639 595.246925,70.8105169 C595.054181,73.3262286 594.528936,75.7484866 593.512233,78.1534105 C592.219852,81.2072343 590.985065,84.4585165 590.71246,87.7045232 C590.430639,91.0688542 588.824187,93.8001122 587.775232,96.7966579 C587.399728,97.8721284 586.656398,98.8187233 586.172619,99.8655548 C585.900014,100.456423 585.9123,101.17692 585.627408,101.759498 C584.392621,104.282747 583.149387,106.805995 581.808629,109.275733 C579.98486,112.634789 577.274932,115.3359 574.746228,118.166641 C574.447514,118.500512 574.273968,118.939895 574.012113,119.309187 C573.05761,120.656729 571.768302,121.52645 570.202548,122.127116 C567.909591,123.007389 565.700335,124.094918 563.408914,124.976698 C561.737958,125.618815 559.995587,126.084576 558.277021,126.604601 C556.219809,127.227122 554.156455,127.836078 552.090029,128.429208 C549.304846,129.228839 546.464374,129.428559 543.575525,129.203968 C542.758476,129.140661 541.926838,129.300437 541.100575,129.323046 C540.080032,129.352439 539.05565,129.401427 538.038179,129.343395 C533.919149,129.1075 529.797816,128.897983 525.690305,128.540749 C524.093835,128.402076 522.542672,127.817991 520.949274,127.581342 C519.210742,127.322837 517.426137,127.345447 515.699124,127.043983 C512.318048,126.453115 509.06982,125.454518 506.088054,123.693218 C504.35413,122.668243 502.58949,121.636485 500.717343,120.906943 C499.171555,120.305524 497.862281,119.449368 496.589867,118.471873 C496.439358,118.356563 496.260437,118.225427 496.195933,118.06339 C495.228375,115.658466 493.074409,114.359159 491.226067,112.739547 C490.044265,111.704021 489.137372,110.351204 488.181333,109.086565 C487.155415,107.728473 486.20168,106.316117 485.241034,104.910544 C483.720587,102.686498 482.656274,100.361462 482.468137,97.5744334 C482.266179,94.5816559 482.503461,91.6559541 483.163089,88.7852693 C483.720587,86.3562283 484.756487,84.0907313 486.435122,82.0935365 C488.071523,80.1460833 489.407673,77.9551984 490.897405,75.8864061 C491.228371,75.4266745 491.625376,75.0061331 492.032365,74.6066942 C493.846919,72.8220311 495.661472,71.0351071 497.512886,69.2873733 C497.918338,68.9052685 498.501944,68.7130856 498.959614,68.3754467 C501.016057,66.856825 502.961155,65.1701376 505.127408,63.8248574 C507.514817,62.3439187 510.096506,61.1659506 512.599101,59.8666436 C512.904726,59.7076216 513.277159,59.6601412 513.562818,59.4777558 C515.489486,58.248539 517.682616,57.730022 519.843494,57.0894124 C521.354726,56.6409857 522.771507,55.8926029 524.27506,55.4117689 C527.010329,54.5367715 529.552855,53.3128303 531.957926,51.7670769 C532.997666,51.0985819 534.660943,51.6517672 535.438829,52.9669011" id="Fill-10"></path>
                <path d="M796.647311,21.8887155 C798.098644,21.8887155 799.548446,21.8964166 800.998248,21.8864051 C802.590427,21.8748534 804.194854,21.9672672 805.773255,21.8032327 C809.899144,21.3735084 813.856628,22.7604859 817.937354,22.8544399 C819.047287,22.8798537 820.384564,22.7635663 821.321501,23.9356817 C821.636109,24.3284404 822.52329,24.2976358 823.159397,24.3808083 C825.532356,24.6919348 827.478184,25.8979352 829.291584,27.3496023 C830.089205,27.9880278 830.529351,28.858258 830.579872,29.9364193 C830.606663,30.5116953 830.841663,31.07773 831.040685,31.8809601 C830.359416,32.3584316 829.448506,31.7562015 828.575869,31.6892015 C826.833657,31.5552014 825.102162,31.2656381 823.359184,31.1547415 C819.943653,30.937569 816.523529,30.7658333 813.101874,30.6403046 C810.930233,30.5602126 808.753234,30.5679137 806.579296,30.589477 C804.935065,30.6056494 803.251794,30.5024539 801.658849,30.8220518 C799.454293,31.2633278 797.316332,32.0434545 795.155408,32.6949719 C792.430331,33.5166848 789.660858,34.0811793 786.84469,34.520915 C783.783572,34.9991566 780.796704,35.9741224 777.731759,36.3938352 C774.143996,36.8851687 771.152536,38.8027555 767.864838,39.9964341 C763.650155,41.5274231 760.201709,44.3699183 756.283263,46.3968615 C754.935269,47.0938157 753.868968,48.379138 752.759035,49.481943 C752.492651,49.7468626 752.470452,50.3591042 752.494948,50.8026905 C752.567667,52.129599 752.614361,53.4719098 752.858546,54.7726343 C753.852128,60.051774 757.658049,62.9836026 761.883449,65.5496264 C763.230677,66.3667186 764.480691,67.3955925 765.908295,68.0155353 C768.576726,69.1745586 771.379881,70.0162945 774.057498,71.1552949 C776.652445,72.2596401 779.172375,73.5441922 781.699195,74.8025605 C783.41538,75.6566182 785.104009,76.5715151 786.772736,77.5164464 C787.904867,78.1579524 788.950501,78.9550216 790.090287,79.5811253 C791.465073,80.3358382 792.904158,80.9727234 794.305735,81.6804593 C795.026809,82.0447238 795.722622,82.4582756 796.436806,82.8364022 C798.776085,84.0755176 801.077857,85.4016559 803.476077,86.5144724 C805.336171,87.3785416 807.329458,87.9445763 809.2439,88.6954386 C812.119775,89.8228873 814.977278,90.9957727 817.842435,92.1494053 C819.725494,92.9071986 821.649888,93.5787391 823.477832,94.4528198 C824.549492,94.9657165 825.478008,95.7874295 826.453218,96.4951653 C826.979096,96.8771425 827.433786,97.3661656 827.980332,97.7127174 C829.254076,98.5182579 829.96826,99.7180974 830.475768,101.082742 C830.514807,101.187477 830.543895,101.326098 830.509448,101.424673 C829.859564,103.264478 829.867984,105.331467 828.313312,106.855525 C826.474651,108.656054 824.794442,110.620618 823.026205,112.495849 C822.371727,113.189723 821.613911,113.788872 820.989286,114.50662 C819.402465,116.329482 817.905204,118.233207 816.29006,120.029886 C815.399052,121.019484 814.298305,121.814243 813.37132,122.774576 C812.357836,123.824243 811.466063,124.990968 810.461765,126.048336 C810.077498,126.452646 809.491148,126.653647 809.054829,127.016371 C807.128139,128.61898 805.150162,130.168452 803.328341,131.884269 C801.029632,134.047523 798.414018,135.648592 795.619283,137.067914 C792.450234,138.678225 789.431982,140.590421 786.278242,142.235387 C784.479385,143.172617 782.540447,143.835687 780.666574,144.625825 C778.719982,145.445227 776.763438,146.243837 774.832155,147.097124 C772.629895,148.07055 770.450599,149.097884 768.259056,150.095953 C766.590329,150.856057 764.927726,151.630023 763.242159,152.34777 C762.651216,152.599598 762.003627,152.729747 761.372114,152.873759 C758.110442,153.61846 754.865611,154.466357 751.575617,155.053955 C747.732187,155.740897 743.848953,156.206817 739.981029,156.749748 C737.136539,157.147898 734.296642,157.732415 731.439904,157.839461 C728.299942,157.957289 725.125534,157.779392 721.998586,157.439001 C719.238297,157.137886 716.52011,157.156369 713.764415,157.344277 C712.11406,157.456714 710.421603,157.308852 708.786557,157.046243 C708.133611,156.941507 707.49827,156.288449 706.997652,155.750909 C705.092395,153.705483 702.476781,153.493701 700.004309,152.900713 C699.107177,152.68508 698.200094,152.513345 697.307555,152.28077 C696.920993,152.179885 696.560456,151.975034 696.188437,151.817931 C696.203746,151.693172 696.219056,151.569183 696.234365,151.444425 C697.865584,151.444425 699.496802,151.424402 701.128021,151.449045 C704.336109,151.497563 707.546495,151.651586 710.753818,151.609229 C713.364839,151.573804 715.983515,151.416701 718.579227,151.130988 C721.510215,150.80908 724.41977,150.290022 727.336214,149.840275 C728.32061,149.688562 729.305006,149.519907 730.275623,149.295033 C731.379432,149.039355 732.464104,148.696654 733.564851,148.420953 C735.674489,147.894194 737.803264,147.444446 739.896827,146.861469 C743.649931,145.817193 747.398442,144.753664 751.116334,143.58925 C753.376005,142.882284 755.566782,141.955065 757.799661,141.157226 C762.279197,139.557697 766.350737,137.161098 770.381707,134.682868 C772.282371,133.513833 774.232026,132.412568 776.048488,131.122625 C777.763143,129.904303 779.344606,128.493452 780.962046,127.139589 C782.023754,126.251646 783.046423,125.314416 784.085167,124.397209 C786.015685,122.690634 787.948499,120.986369 789.874424,119.274403 C792.569647,116.877804 794.712966,113.991412 796.950437,111.188193 C799.063903,108.540537 801.155169,105.874398 802.42432,102.689972 C802.957853,101.349972 803.323748,99.9391205 803.704953,98.5429016 C803.760832,98.338051 803.544204,97.9329704 803.338292,97.7997405 C801.626699,96.6930849 799.984764,95.3985213 798.134621,94.6037624 C795.074268,93.2899459 791.827906,92.4166352 788.753009,91.1328532 C787.426448,90.5799105 786.338714,89.4563124 785.12927,88.6107259 C783.59297,87.5371854 782.109487,86.3635298 780.482861,85.4501732 C778.711561,84.4551843 776.833096,83.6342415 774.945444,82.8779884 C773.32877,82.2303215 771.594213,81.8799191 769.981365,81.2230109 C766.718928,79.8922518 763.491703,78.4752398 760.277491,77.0289635 C758.600344,76.2734805 756.986731,75.3732158 755.338672,74.5507328 C753.725059,73.7459624 752.103792,72.9573645 750.485586,72.1618355 C749.135296,71.4964559 747.775819,70.8449385 746.434714,70.1603061 C745.486296,69.6751335 744.57462,69.1175701 743.622374,68.6393286 C741.260131,67.4510408 738.95147,66.1118105 736.492778,65.1730401 C734.447439,64.390603 732.234463,64.0178673 730.06818,63.601235 C728.121588,63.2261889 726.317373,62.6963496 724.649412,61.4980504 C723.091678,60.379073 722.372135,57.6736583 722.894952,55.7668531 C723.445326,53.7614731 724.724428,52.2150818 726.095386,50.8450468 C728.897775,48.0456781 731.406989,44.9190104 734.828644,42.7673086 C736.278446,41.8554922 737.494014,40.5747906 738.887936,39.5605489 C739.902951,38.8220084 741.043502,38.2605944 742.112865,37.5936747 C743.992862,36.4207892 745.856784,35.2232601 747.733718,34.0449838 C748.873505,33.3280066 750.004871,32.5971673 751.170683,31.9263969 C753.161673,30.7804655 755.135057,29.5898674 757.193408,28.5779361 C759.868729,27.2633494 762.550174,25.8979352 765.358687,24.9376015 C768.340961,23.9171989 771.449539,23.2048424 774.552758,22.6280261 C776.536859,22.2591409 778.61205,22.4131639 780.64361,22.2722328 C782.636131,22.1343822 784.630948,21.9734282 786.608925,21.7054281 C787.204461,21.6253361 787.736464,21.1270716 788.318222,20.8660025 C789.05537,20.5340829 789.789457,20.1151402 790.568706,19.9749792 C791.674046,19.7755194 792.81766,19.7493355 793.946729,19.7344754 C795.25645,19.7169906 796.468956,20.7343128 796.647311,21.8887155" id="Fill-12"></path>
                <path d="M663.297645,163.889535 C663.922999,163.162663 664.580636,162.463748 665.148935,161.697585 C665.322353,161.463354 665.272805,161.045516 665.28782,160.710037 C665.338118,159.64693 665.367397,158.583068 665.410939,157.519961 C665.421449,157.254751 665.483759,156.990297 665.474751,156.727353 C665.404933,154.587539 666.185688,152.711424 667.043768,150.796019 C668.057999,148.535311 668.786955,146.144643 669.65104,143.814422 C669.807192,143.395073 670.064691,143.010481 670.194566,142.584331 C670.717072,140.862355 671.125467,139.099578 671.733555,137.410092 C672.370922,135.638247 673.201975,133.938183 673.924925,132.196562 C674.352088,131.168967 674.969936,130.149684 675.0878,129.079777 C675.394096,126.29545 676.761919,123.902515 677.671799,121.350908 C678.780622,118.246969 679.661975,115.122629 679.989291,111.833571 C680.089138,110.836956 680.475762,109.87132 680.70173,108.884527 C680.839113,108.284593 680.941963,107.674837 681.026044,107.064325 C681.287297,105.176876 681.580831,103.292449 681.767762,101.397444 C681.929168,99.7585826 681.944182,98.1053647 682.059794,96.4612138 C682.202432,94.4279371 681.653651,92.4203503 682.175406,90.3379607 C682.528247,88.9242629 682.182162,87.3390475 682.188168,85.8301462 C682.197928,83.28005 682.306783,80.7276871 682.247476,78.1798577 C682.17916,75.2874819 682.017003,72.3958617 681.801544,69.5102862 C681.72497,68.4706026 681.322581,67.4603867 681.167931,66.4214586 C680.9292,64.8264207 680.800075,63.2155155 680.580863,61.6174552 C680.361651,60.0193949 680.080129,58.4296461 679.840647,56.8338526 C679.701012,55.8999507 679.691253,54.9328031 679.44051,54.0321469 C679.090672,52.774855 678.522372,51.5802767 678.135748,50.3312962 C677.629759,48.6999902 677.252894,47.0286383 676.739397,45.4003547 C676.282205,43.9458554 675.44965,42.5601142 675.26347,41.0829474 C675.042005,39.3194142 674.034531,37.559659 674.921138,35.7077225 C675.026991,35.4878475 675.060023,35.1553905 674.976692,34.9324932 C673.980479,32.2924825 673.756762,29.6894955 675.066029,27.0608185 C675.373076,26.444262 675.423374,25.6886779 675.541238,24.9882515 C675.947381,22.5613155 677.177821,20.4456802 678.140252,18.2439082 C678.668013,17.0372405 679.592908,15.9643111 680.49453,14.9752516 C681.715211,13.6356011 682.989944,12.3057732 684.424582,11.2147098 C685.515387,10.3858341 686.856184,9.8448359 688.148184,9.33859459 C690.214182,8.52860848 692.376274,7.95814252 694.413745,7.08695411 C695.891924,6.45453026 697.337823,6.53462217 698.83327,6.68044989 C699.31899,6.7272961 699.801707,6.86103448 700.286676,6.86405681 C701.705548,6.87236824 702.484051,7.93396383 703.383421,8.75906162 C704.821813,10.079067 706.350291,11.3439147 707.561963,12.8581051 C708.913271,14.547591 710.3389,16.3050796 710.158725,18.7478828 C710.006328,20.8159164 710.237552,22.785724 710.798344,24.8552687 C711.502525,27.4506999 711.428954,30.2569391 711.0108,33.0087762 C710.848643,34.0741497 711.08362,35.2830842 711.43496,36.3250346 C711.91092,37.7387324 712.748731,39.0232253 713.293007,40.4180334 C714.104542,42.4974008 714.642813,44.6153029 714.058748,46.909256 C713.818516,47.8560029 713.938632,48.9017312 713.945388,49.9028801 C713.949142,50.5337927 714.041481,51.1647054 714.100789,51.7948625 C714.335015,54.2603333 714.583506,56.7242929 714.800466,59.1912748 C714.85677,59.8342768 714.801967,60.4863459 714.817732,61.1338814 C714.881544,63.8381167 714.342523,66.4479041 713.732933,69.0667584 C713.343306,70.7396215 713.265981,72.4842651 713.00623,74.1903739 C712.917644,74.7744403 712.62411,75.329039 712.553542,75.9131055 C712.333579,77.7408633 712.226976,79.5844884 711.969477,81.4062016 C711.867378,82.1209841 711.609879,82.8863907 711.201484,83.4704572 C710.288601,84.7738397 710.671471,86.3190091 710.250314,87.7017279 C710.203769,87.8528447 710.393703,88.0825423 710.340401,88.2230809 C709.591176,90.1762657 708.784146,92.1082941 708.066451,94.0728126 C707.695593,95.0898288 707.471126,96.1604914 707.18585,97.209242 C706.569503,99.4737274 706.081531,101.782792 705.30453,103.989853 C704.677673,105.770009 703.700228,107.423983 702.884939,109.137647 C701.651496,111.733079 700.451085,114.344377 699.187613,116.924697 C697.161403,121.058497 695.161468,125.207409 693.020397,129.280763 C691.919081,131.374486 690.505464,133.299714 689.290789,135.335258 C688.470996,136.710421 687.955998,138.322837 686.939514,139.515149 C685.382508,141.342151 684.708356,143.565079 683.621305,145.602134 C682.720433,147.292375 681.863854,149.029463 680.404443,150.378936 C679.633447,151.092208 679.134214,152.093356 678.431534,152.892764 C676.337759,155.275877 674.041287,157.374889 671.28387,159.041707 C669.265167,160.262731 667.534743,161.996797 665.779545,163.616013 C664.693995,164.617162 664.594149,164.7373 663.297645,163.889535" id="Fill-14"></path>
            </g>
        </g>
    </g>
</svg>