<?xml version="1.0" encoding="UTF-8"?>
<svg width="1440px" height="250px" viewBox="0 0 1440 250" version="1.1" xmlns="http://www.w3.org/2000/svg" xmlns:xlink="http://www.w3.org/1999/xlink">
    <!-- Generator: Sketch 54.1 (76490) - https://sketchapp.com -->
    <title>brand</title>
    <desc>Created with Sketch.</desc>
    <g id="Page-1" stroke="none" stroke-width="1" fill="none" fill-rule="evenodd">
        <g id="Desktop-HD" fill="#222222">
            <g id="brand">
                <path d="M1440,14.0869481 C1439.75072,14.5576019 1439.41352,15.0057415 1439.26885,15.5064142 C1438.91496,16.7339736 1438.6334,17.9819031 1438.35519,19.2276882 C1438.18603,19.9942428 1437.9757,20.7693742 1437.95678,21.5455777 C1437.8633,25.3858554 1435.92135,28.4499294 1433.65556,31.4067931 C1432.29675,33.1800536 1431.0559,35.0369383 1429.68151,36.7973335 C1428.33161,38.5266378 1426.7914,40.1240732 1425.50827,41.8941174 C1424.84166,42.815055 1424.61575,44.0201002 1424.06711,45.0343109 C1423.4094,46.2457887 1422.62929,47.3950845 1421.88255,48.561534 C1421.12469,49.742993 1420.29227,50.8826398 1419.5856,52.0919735 C1418.35477,54.2018747 1417.15844,56.3310739 1416.01664,58.4870756 C1415.17086,60.084511 1414.37516,61.7108933 1413.66961,63.3705107 C1412.73369,65.5736851 1411.93354,67.8304646 1410.0795,69.5372547 C1409.81464,69.7806223 1409.58428,70.1226236 1409.48635,70.4592644 C1408.56378,73.6434141 1407.68573,76.8393571 1406.76984,80.025651 C1405.96858,82.8088338 1405.13282,85.5834397 1404.31375,88.361262 C1403.72838,90.3435828 1402.32061,92.0321471 1402.2939,94.2471146 C1402.28166,95.2141527 1401.49375,96.1522439 1401.1955,97.1417962 C1400.51443,99.40072 1399.99583,101.707888 1399.26023,103.949659 C1398.59585,105.968431 1397.7178,107.921805 1396.96773,109.915919 C1396.85866,110.205387 1396.93323,110.561326 1396.93879,110.887245 C1396.94547,111.291429 1397.08569,111.730992 1396.9655,112.092291 C1395.98618,115.050226 1395.00241,118.008162 1393.93183,120.936079 C1393.20402,122.926977 1392.26921,124.847116 1391.54696,126.839085 C1390.90706,128.606985 1390.46971,130.441356 1389.8721,132.225337 C1388.74031,135.594961 1387.52173,138.937782 1386.4122,142.313839 C1385.63319,144.683189 1385.08789,147.126515 1384.2321,149.466919 C1383.54657,151.336669 1382.4504,153.062757 1381.72481,154.920713 C1381.09604,156.52887 1380.77442,158.245309 1380.24247,159.890989 C1379.69828,161.57312 1379.08955,163.235954 1378.46411,164.892355 C1377.37685,167.7731 1375.8767,170.51447 1375.87336,173.722206 C1375.87114,175.139528 1375.5217,176.593302 1375.10549,177.966667 C1373.62426,182.839381 1372.00282,187.672428 1370.52827,192.547286 C1369.83607,194.835156 1369.52113,197.237742 1368.731,199.489161 C1368.1089,201.259205 1366.82911,202.811612 1366.18365,204.576296 C1365.26331,207.097885 1362.67701,206.842725 1360.8942,207.912685 C1359.07244,209.006231 1358.40694,211.27266 1359.60327,213.185294 C1360.39452,214.450377 1359.93046,214.866353 1358.84207,215.378819 C1357.47214,216.023154 1356.57183,218.03871 1356.90569,219.492483 C1357.0014,219.910604 1357.20171,220.331941 1357.175,220.741485 C1357.15274,221.097423 1356.87898,221.438352 1356.71539,221.785714 C1356.3793,221.535914 1355.8251,221.339719 1355.74052,221.025592 C1354.95595,218.14592 1354.0345,215.405622 1354.96485,212.216111 C1355.73718,209.565869 1355.32097,206.596141 1355.4534,203.770074 C1355.51795,202.39778 1355.83845,201.006189 1355.68376,199.66177 C1355.34656,196.719916 1354.62654,193.816657 1354.34499,190.871587 C1353.96216,186.882287 1353.85532,182.8694 1353.60604,178.868307 C1353.4981,177.115416 1353.21098,175.366814 1353.21431,173.616068 C1353.21988,170.541273 1353.4291,167.465406 1353.47139,164.389538 C1353.49921,162.394352 1353.2221,160.385229 1353.37123,158.402908 C1353.52926,156.288718 1354.0434,154.200259 1354.3639,152.095718 C1354.41955,151.732275 1354.28934,151.339885 1354.22813,150.964648 C1354.18585,150.71056 1353.97106,150.350333 1354.07567,150.227041 C1355.36103,148.707869 1354.09125,146.846696 1354.92256,145.160276 C1355.70491,143.573561 1355.75276,141.655567 1356.15784,139.890883 C1356.86785,136.797862 1357.74145,133.731644 1358.28564,130.61182 C1358.7319,128.05914 1359.25717,125.577219 1360.49468,123.259329 C1360.67608,122.919472 1360.59595,122.443458 1360.61153,122.029625 C1360.68832,119.903643 1361.21025,117.880582 1361.89021,115.856449 C1362.17399,115.00627 1361.80341,113.962041 1361.78672,113.004651 C1361.77781,112.530781 1361.73998,111.958278 1361.98258,111.595906 C1363.05872,109.984534 1362.89736,108.161956 1363.20673,106.397273 C1363.55506,104.418168 1364.48319,102.539841 1365.01291,100.582179 C1365.55599,98.5741275 1365.9978,96.5339131 1366.34724,94.4861938 C1366.62768,92.8480185 1366.52975,91.13694 1366.91925,89.5298557 C1367.35104,87.744802 1368.15119,86.0423004 1368.7744,84.2979867 C1368.84562,84.0985753 1368.81335,83.8627123 1368.81557,83.6429309 C1368.82002,83.0286152 1368.70429,82.3907131 1368.84006,81.8064163 C1369.13385,80.5349006 1369.50555,79.2741059 1369.93512,78.0379697 C1370.96897,75.0628802 1371.99614,72.0824303 1373.13794,69.1437924 C1373.95145,67.0478285 1374.94746,65.0161908 1375.86224,62.9556064 C1376.4643,61.6015386 1377.09974,60.2603361 1377.66285,58.8923311 C1378.36396,57.1941178 1378.98827,55.4669578 1379.68048,53.7655283 C1380.53071,51.6727807 1381.38872,49.5811052 1382.30906,47.5162323 C1382.58394,46.8997724 1383.14037,46.4055323 1383.46422,45.8040818 C1385.56753,41.90055 1387.38373,37.8254816 1389.82536,34.1320822 C1391.20753,32.0404067 1392.31929,29.7643293 1393.78827,27.8377579 C1395.15376,26.0484158 1395.77028,23.7809152 1397.73226,22.3056997 C1398.9809,21.3676084 1399.65196,19.7412262 1400.67023,18.4890084 C1402.58324,16.1357394 1404.36939,13.6967022 1406.80879,11.7508329 C1408.77411,10.1823443 1410.50239,8.33189224 1412.27964,6.55434331 C1413.40808,5.42327327 1417.65923,4.38762052 1419.19498,5.0072968 C1421.94933,6.11799686 1424.8016,6.62081378 1427.7774,6.29918249 C1428.42064,6.22949571 1429.02826,5.89821548 1429.6715,5.7781398 C1431.12601,5.51011372 1432.58943,5.1809777 1434.05841,5.12844459 C1434.53361,5.11129092 1435.18686,5.79207715 1435.50625,6.29918249 C1437.05202,8.75966186 1438.50987,11.269458 1440,13.7621005 L1440,14.0869481 Z" id="Fill-1"></path>
                <path d="M290.718715,70.1262032 C290.552565,70.6825166 290.544044,70.9601373 290.406651,71.1316405 C288.846327,73.0857047 287.246595,75.0065402 285.699052,76.9691795 C284.776703,78.1407605 283.833054,79.3123415 283.066205,80.5868244 C280.932875,84.1305086 278.926287,87.7524411 276.789762,91.2961253 C275.763037,93.000438 274.042952,94.090555 272.878834,95.7948677 C271.40904,97.9461606 270.073446,100.054578 269.206481,102.685007 C270.356754,102.838288 271.399455,103.013007 272.450676,103.111622 C275.18151,103.37102 277.915538,103.592902 280.647436,103.841582 C280.844474,103.859804 281.029796,103.986288 281.226833,104.031307 C281.980901,104.203882 282.729644,104.436484 283.493297,104.515804 C286.471226,104.828797 289.45661,105.06247 292.434539,105.381895 C294.348466,105.586627 296.247481,105.95643 298.163538,106.09792 C298.601281,106.129005 299.485287,105.511594 299.477831,105.210392 C299.441619,103.837294 299.14766,102.470628 298.972989,101.098603 C298.714178,99.0512841 298.418089,97.0061088 298.249808,94.9502146 C298.050641,92.5052226 298.082593,90.0377208 297.809935,87.6034477 C297.541538,85.2184818 297.426511,82.6845225 296.504163,80.5375173 C295.269749,77.6659111 295.262294,74.6881874 294.787274,71.7469081 C294.73189,71.401758 295.125965,70.983719 295.311287,70.5989088 C295.449746,70.6042683 295.588204,70.6106996 295.726663,70.6160591 C295.352824,71.9473524 295.395427,72.8434565 297.037761,72.3150123 C297.350891,72.2142542 297.825911,72.3278751 298.11987,72.5143848 C299.45227,73.3611817 300.861354,74.1404492 302.026538,75.1887623 C303.619879,76.6197418 305.230261,76.4911144 305.92788,74.4534424 C304.853227,74.2894425 303.185331,74.8457559 303.375979,73.4501489 C302.46002,72.6054958 301.89873,72.0834831 301.331049,71.5668298 C301.036025,71.2967123 300.746327,71.0169477 300.425741,70.7789871 C299.682324,70.2280332 298.91441,69.7092361 298.169928,69.160426 C297.521302,68.681289 296.893977,68.1753547 296.248546,67.6919301 C295.969499,67.4839825 295.66915,67.3039042 295.379451,67.1109631 C295.400753,66.9330286 295.420989,66.7540222 295.441225,66.5760876 C296.038728,66.5760876 296.657532,66.6757738 297.226278,66.5503622 C297.855733,66.4110158 298.440455,66.0658657 299.097602,65.788245 C296.941905,63.7827298 293.910723,63.2317759 292.704001,64.6241672 C293.006481,64.8857095 293.307895,65.1483238 293.616764,65.4162975 C293.259967,66.2062839 292.983049,66.9662573 292.585779,67.6554857 C292.264128,68.2139429 291.884964,68.9203215 291.364146,69.1218378 C291.016934,69.2558246 290.374699,68.6180472 289.547141,68.1442697 C289.280874,68.6566354 288.853782,69.2654717 288.67059,69.9429092 C288.603491,70.1883731 289.121114,70.5935493 289.361819,70.9140458 C289.784651,70.6685819 290.107367,70.4810003 290.718715,70.1262032 M543.214286,39.8901949 C541.583667,40.6212272 539.915771,41.5055404 538.149889,42.0950825 C537.37026,42.3544811 536.364836,42.1175923 535.524498,41.8807036 C535.284858,41.8131742 535.265686,40.9524427 535.08356,40.1913974 C534.225115,39.5086004 533.251644,38.5471108 531.502803,38.8847576 C530.698677,39.0391105 529.729465,38.0079477 528.773034,37.7378302 C525.131568,36.7055955 521.418743,36.3658049 517.622842,36.313282 C514.107054,36.262903 510.598721,35.6519229 507.089324,35.263897 C503.215673,34.8340672 499.353738,34.1791395 495.468371,34.0022769 C493.001675,33.8897279 490.509417,34.5864595 488.018224,34.7118712 C484.996627,34.8630084 481.960119,34.723662 478.936392,34.8490737 C477.236545,34.9198188 475.546282,35.4707727 473.854955,35.4493348 C470.734307,35.4096747 468.382638,37.5180918 465.539972,38.1740914 C462.543937,38.8654635 459.632043,39.7283388 456.395302,39.0219602 C454.790245,38.6714506 452.859278,39.522535 451.144519,40.0541948 C447.835354,41.08107 444.442049,41.9836055 441.328856,43.4606765 C437.699106,45.1821395 433.74664,46.0300083 430.273455,48.2691965 C428.058114,49.6980323 425.118528,49.996019 422.499527,50.7870774 C419.24255,51.7732206 415.971727,52.7154161 412.725401,53.7369318 C411.181054,54.2225002 409.679308,54.8474148 408.173303,55.4026563 C407.503375,58.0866809 409.534459,59.3675952 410.947804,60.9539995 C411.515485,61.5917769 412.109792,62.2124039 412.740312,62.7880114 C414.890684,64.7527946 417.041055,66.7186496 419.234029,68.6362694 C421.122394,70.2869874 423.02993,71.9194832 424.998175,73.4705149 C426.461578,74.6228018 428.077286,75.578932 429.554534,76.7162123 C432.342881,78.8632176 435.266492,80.8837393 437.780051,83.3255156 C439.895275,85.3814098 442.528122,86.4554484 444.85636,88.0750814 C446.737269,89.3817212 448.591552,90.7312367 450.515064,91.9692752 C453.016908,93.5792612 455.684902,94.9480708 458.077044,96.7006188 C460.14434,98.2152062 461.970931,100.077087 463.824149,101.868224 C466.110849,104.076327 468.359206,106.328378 470.542595,108.639383 C473.395911,111.658911 476.210885,114.71917 478.956629,117.837312 C480.017436,119.042122 481.183685,120.238357 481.269955,122.069153 C481.289127,122.475401 481.96438,123.036002 482.435139,123.166773 C482.731228,123.249309 483.210509,122.661911 483.85807,122.194565 C485.91791,124.402668 488.172658,126.796209 490.39865,129.214403 C491.217687,130.105148 492.066546,130.992677 492.735408,131.993827 C494.131712,134.085093 495.395947,136.266399 496.760298,138.38232 C497.303483,139.224829 497.986191,139.975155 498.569848,140.793011 C499.382495,141.931363 500.161059,143.093297 500.954534,144.245584 C501.429555,144.935884 501.869427,145.654054 502.38492,146.313269 C503.625724,147.898602 504.98049,149.399254 506.146739,151.036038 C508.52397,154.372846 510.952324,157.687145 513.077134,161.183666 C514.533081,163.581494 515.476731,166.2891 516.713274,168.826275 C517.482253,170.404105 518.470636,171.876888 519.182101,173.478299 C520.255689,175.896493 521.420873,178.32112 522.069499,180.86687 C522.495526,182.541169 523.606392,183.057823 524.772641,183.726685 C525.967646,184.411626 527.309632,184.869325 528.417302,185.666815 C531.018197,187.538343 531.213104,189.753949 529.131962,192.287909 C528.566411,192.976065 527.850686,193.547385 527.341584,194.26877 C527.030584,194.710391 527.007152,195.348168 526.80905,195.8809 C526.624793,196.377187 526.499115,197.009605 526.129537,197.292585 C525.749308,197.583069 524.895123,197.797448 524.609685,197.574494 C522.173876,195.678312 519.616648,196.604429 517.289476,197.452298 C513.692743,198.764297 509.941575,198.83933 506.256441,199.295957 C502.476516,199.764375 498.622036,199.868349 494.81016,199.760087 C490.141968,199.628244 485.489753,199.01512 480.821562,198.790022 C477.196072,198.616375 473.551411,198.56814 469.928051,198.736428 C465.58151,198.939016 461.248815,199.449238 456.9076,199.784741 C456.071522,199.849054 455.221598,199.673264 454.379129,199.690414 C450.44264,199.768662 446.505085,200.003407 442.57179,199.935878 C438.535184,199.866205 434.504968,199.469604 430.468362,199.300244 C428.62686,199.223068 426.766187,199.481395 424.931076,199.351695 C421.270439,199.093369 417.620452,198.673186 413.96727,198.316245 C413.65201,198.28516 413.337815,198.167252 413.028946,198.185474 C409.168076,198.419147 405.309336,198.836114 401.447401,198.871486 C397.301093,198.910075 393.122833,198.842545 389.009542,198.373055 C383.666098,197.764219 378.555904,196.204612 373.912209,193.299777 C372.699097,192.540876 371.271906,192.132484 369.958678,191.529007 C368.840357,191.014498 367.772094,190.378864 366.631407,189.926524 C364.599258,189.121531 362.560719,188.307963 360.467861,187.691624 C357.812647,186.909141 355.119092,186.228487 352.407429,185.672174 C349.951384,185.168383 347.439954,184.938998 344.971128,184.492018 C343.294711,184.189743 341.665158,183.501587 339.986611,183.378319 C337.110929,183.165012 336.797799,183.720254 337.82985,186.488958 C338.127003,187.286448 338.913023,188.081793 338.832078,188.804251 C338.640366,190.524642 339.478574,191.955621 339.753362,193.528091 C340.133591,195.709397 341.094282,197.825317 341.221025,200.003407 C341.300905,201.359354 341.275343,202.654203 341.759949,203.950124 C342.203017,205.13028 342.414965,206.404763 342.908092,207.559194 C343.898605,209.874486 344.946631,212.170485 346.094774,214.408601 C346.89251,215.963921 347.898998,217.410979 348.590227,219.212834 C348.171656,218.939501 347.632732,218.755135 347.355814,218.376756 C345.300234,215.570535 343.413999,212.633544 341.248716,209.919506 C338.602024,206.599848 336.96608,202.751746 335.126708,199.001186 C333.945548,196.592638 332.903912,194.114417 331.705711,191.715517 C329.775809,187.849192 327.862947,183.967861 325.727487,180.216229 C325.188562,179.268674 323.924327,178.419734 322.843284,178.158191 C317.421025,176.849408 312.499347,174.393697 307.554239,171.924051 C303.923423,170.110405 300.153084,168.57974 296.471145,166.867924 C294.09711,165.763872 291.817865,164.441154 289.405487,163.435717 C287.296653,162.556763 285.071727,161.948998 282.874493,161.306934 C282.401603,161.169731 281.825401,161.435561 281.293932,161.455927 C279.621776,161.519169 278.246774,160.273627 278.048672,158.547876 C277.886781,157.131903 278.604637,156.517708 279.941297,156.958256 C280.390755,157.106178 280.897727,157.246596 281.232159,157.553158 C283.461345,159.587614 286.141055,158.894098 288.715323,158.890883 C293.47724,158.885523 298.03573,159.472922 302.207599,162.207325 C304.26531,163.555769 306.745852,164.283585 309.084741,165.158251 C311.928471,166.221571 314.846756,167.084446 317.686226,168.158485 C318.610705,168.508995 319.38927,169.250746 320.234933,169.813491 C320.359546,169.690223 320.484159,169.566955 320.608772,169.443687 C319.932454,167.745806 319.298739,166.029702 318.571298,164.35433 C317.066357,160.889966 315.585913,157.411668 313.957425,154.006258 C312.383255,150.714469 310.685537,147.479491 308.948412,144.269166 C307.34229,141.303233 305.310141,138.531313 304.019279,135.439968 C302.614455,132.073147 301.797548,128.451214 300.829402,124.910746 C300.48219,123.642694 300.458758,122.287819 300.252135,120.977964 C300.01782,119.498749 299.070975,118.870619 297.705559,118.904919 C294.629644,118.983168 291.542013,119.074279 288.475683,118.898488 C284.555169,118.674462 280.655957,118.121364 276.737573,117.843744 C272.360146,117.531822 267.972067,117.337809 263.586119,117.155587 C261.340956,117.063404 259.203366,117.45679 257.819843,119.500893 C257.029563,120.669258 256.437385,121.973754 255.662016,123.15391 C253.99625,125.692157 253.313542,128.700966 251.403876,131.187762 C249.465453,133.712074 248.343937,136.85487 246.608942,139.561404 C245.308494,141.592645 243.50427,143.291598 242.110096,145.271387 C240.98645,146.868511 240.162088,148.677869 239.164119,150.368247 C238.175737,152.042547 237.202265,153.730781 236.107375,155.333264 C234.093333,158.278831 231.888643,161.097914 229.959805,164.097076 C227.727424,167.568943 225.714446,171.1823 223.591766,174.724912 C222.731192,176.16018 222.032507,177.764806 220.902471,178.946034 C219.358123,180.557092 217.666795,182.040594 216.272622,183.792071 C215.348143,184.954004 214.526976,186.21884 213.80273,187.517977 C213.210553,188.580225 212.849495,189.773243 212.342523,190.888014 C212.103948,191.408955 211.772711,191.889164 211.467037,192.376876 C209.54459,195.436064 207.616818,198.492036 205.692241,201.551223 C205.665614,201.594099 205.67733,201.660557 205.652833,201.706648 C204.826341,203.311275 204.158543,205.030594 203.126493,206.490515 C201.840956,208.30952 200.163475,209.845545 198.826815,211.634538 C197.835237,212.961543 197.020461,214.448262 196.300475,215.947842 C194.662401,219.356468 193.121248,222.812257 191.559859,226.258398 C190.372309,228.880253 189.307241,231.565349 187.989753,234.118603 C187.572246,234.926811 186.603035,235.692144 185.729679,235.956902 C184.551714,236.314915 184.206632,237.139202 184.003205,238.047097 C183.53564,240.137292 182.798613,240.767566 180.034763,240.608926 C180.961372,239.422338 181.561005,238.334365 182.450336,237.601189 C183.428068,236.795124 183.862616,236.04051 183.294935,234.865713 C182.303357,232.816251 182.694237,230.884696 183.449369,228.820227 C183.965927,227.409613 183.873266,225.777118 184.08841,224.248596 C184.184266,223.575446 184.140598,222.625747 184.550649,222.296675 C187.00989,220.329748 188.10904,217.578194 189.21245,214.785908 C191.112531,209.973101 193.034978,205.16994 195.008548,200.387146 C196.304735,197.245422 197.770268,194.173372 199.029178,191.016641 C199.512719,189.8054 199.621356,188.445166 199.918509,187.15782 C200.061228,186.537193 200.124067,185.85654 200.430807,185.323808 C202.685555,181.402817 203.684588,177.000545 205.304556,172.83945 C206.738137,169.157491 208.729813,165.695271 210.436052,162.118358 C211.006928,160.922123 211.411654,159.646568 211.974009,158.446046 C213.442737,155.315042 215.081876,152.257998 216.420666,149.072326 C217.962884,145.397871 219.271852,141.623729 220.65218,137.881745 C222.336052,133.315473 224.634468,129.083632 227.27477,125.006145 C228.949056,122.420734 230.34749,119.655246 231.898228,116.986228 C232.371118,116.17266 232.939865,115.41483 233.713104,114.260399 C232.446738,114.106046 231.507349,113.992426 230.141932,113.826282 C231.275164,112.951616 232.105917,111.825054 233.118796,111.622466 C235.917793,111.061865 236.783693,108.769082 238.113963,106.800012 C239.663636,104.507229 241.351768,102.309844 242.939784,100.041715 C243.984615,98.5507092 244.926135,96.9878866 245.967771,95.4947372 C247.405612,93.4345554 249.045816,91.5019291 250.328158,89.3517081 C252.897101,85.043763 255.201907,80.5771774 257.778305,76.2745917 C259.10751,74.0536257 260.783926,72.043823 262.367682,69.8496543 C262.869328,70.0490267 263.397602,70.2591181 264.118653,70.5463859 C262.086504,66.5675125 265.282772,64.6252391 267.105102,62.1566654 C267.253147,61.9551492 267.510893,61.835097 267.652547,61.631437 C269.014768,59.6698695 270.326932,57.6707857 271.747732,55.7531659 C272.015064,55.3930093 272.702032,55.3469178 272.895875,55.2729571 C273.347463,53.8441213 273.745799,52.5867887 274.16437,51.2640706 C275.206006,51.341247 276.141136,51.5470508 276.591659,52.8011677 C276.68858,53.0680695 277.490576,53.3028144 277.855894,53.1891936 C278.335175,53.0412721 278.703688,52.5321221 279.12013,52.1783968 C278.833626,51.8525408 278.607832,51.3948417 278.248904,51.2265542 C277.253066,50.7581362 276.201844,50.4097704 275.162338,50.0110255 C279.145691,43.9655389 283.62643,38.6071369 289.875182,34.6754268 C288.790943,34.7472437 287.703509,34.7858319 286.624596,34.897309 C283.441109,35.2242369 280.255492,35.5372302 277.080525,35.9381188 C274.926958,36.2093082 272.800019,36.690589 270.644322,36.944628 C268.806015,37.1611508 266.945342,37.1986671 265.09319,37.2962095 C262.338925,37.4398434 259.5804,37.5041571 256.83146,37.7142485 C250.9214,38.1644443 245.021991,38.7722087 239.106606,39.1430843 C235.623835,39.3617508 232.119762,39.2706397 228.625276,39.2620646 C228.073571,39.2609927 227.521866,38.9576465 227.028739,39.1109274 C226.111716,39.24813 225.194693,39.3853325 223.937913,39.573986 C224.639793,38.5589016 225.118008,37.8675295 225.596224,37.1761573 C225.53445,36.9853601 225.472676,36.7945628 225.411967,36.6048374 C224.301101,36.6895171 223.190236,36.7752687 221.701271,36.8899614 C222.39463,37.8546667 222.780185,38.391686 223.173195,38.9362086 C221.901504,39.4496462 218.977894,38.8858295 218.328202,37.9372026 C217.620998,39.4014109 216.492026,39.0562608 215.260808,38.8483132 C213.913497,38.6199996 212.513999,38.7025355 211.136866,38.6425094 C207.906516,38.5020912 204.676166,38.3584573 201.446881,38.2158953 C198.538182,38.0883398 195.630547,37.8953987 192.720783,37.8589543 C191.10827,37.8385883 190.106042,38.789359 190.402131,40.3028744 C190.600233,41.3125993 190.445798,42.1058015 190.312665,43.047997 C189.981429,45.3879433 189.878117,47.7621903 189.729008,50.1257183 C189.501083,53.7380037 189.392447,57.3610081 189.073991,60.9668622 C188.89293,63.0334753 188.362526,65.0679317 188.060047,67.1270416 C187.941824,67.9341783 188.053657,68.7724001 187.992948,69.5913277 C187.8694,71.2495489 187.827862,72.9302799 187.504082,74.5520568 C187.276157,75.690409 187.626564,76.7815979 187.067404,78.0303554 C186.270733,79.8075569 186.313336,81.9674249 186.006597,83.9654368 C185.703052,85.939867 185.054426,87.9410946 185.186495,89.8876555 C185.515601,94.7208291 182.809264,98.8701339 182.540867,103.59719 C182.329983,107.315593 180.798416,110.947172 180.483156,114.672007 C180.14979,118.625155 178.797154,122.28246 178.085689,126.110196 C177.71185,128.117855 177.331621,130.125514 176.91518,132.124598 C176.760745,132.866349 176.521105,133.594166 176.274009,134.312335 C175.33888,137.041379 174.415466,139.774711 173.426018,142.483389 C172.840231,144.085872 171.836938,145.591884 171.55789,147.234027 C171.042397,150.270705 168.451088,152.110076 167.641636,155.026702 C167.007921,157.315197 165.317659,159.292843 164.204663,161.464502 C161.196913,167.333126 158.324425,173.272495 155.24212,179.100387 C153.664755,182.081326 151.712486,184.86075 150.005182,187.776303 C148.841064,189.764668 147.821794,191.839857 146.711994,193.862522 C145.556395,195.972011 144.251687,198.009683 143.231353,200.182414 C142.306874,202.151484 141.727477,204.281339 140.890334,206.296502 C140.59105,207.014671 139.920058,207.565625 139.525983,208.254853 C137.769686,211.329048 136.001674,214.398954 134.346559,217.528887 C133.607402,218.924494 133.17605,220.481957 132.513578,221.923656 C131.673239,223.75338 130.758346,225.549876 129.841323,227.343156 C129.091516,228.808436 128.582413,230.567415 127.440661,231.620016 C125.991104,232.955597 125.749334,234.755308 124.82379,236.259177 C123.751267,238.001006 122.859805,239.856456 121.761721,241.580062 C120.730735,243.198624 120.720084,244.801106 121.28244,246.555798 C121.495454,247.219301 121.670125,248.156137 121.36019,248.645993 C121.110964,249.041522 119.972407,249.241966 119.46863,249.00615 C118.849826,248.71781 118.221436,247.944974 118.073391,247.273968 C117.900851,246.496844 118.178833,245.587877 118.375871,244.762518 C119.080945,241.800873 120.274886,238.879959 120.467663,235.889373 C120.765882,231.250212 123.090925,227.128777 123.326305,222.524989 C123.358257,221.902218 123.683102,221.299813 123.80878,220.674898 C124.253979,218.457148 124.550067,216.200809 125.133724,214.020575 C125.77809,211.614172 126.747302,209.296735 127.448116,206.903194 C128.563242,203.092608 130.66036,199.556427 130.628408,195.423201 C130.597521,191.572955 131.495373,187.901715 132.740437,184.292645 C133.917337,180.879732 135.264647,177.506479 136.150783,174.01639 C136.948519,170.872523 137.233957,167.59574 137.721758,164.372553 C138.192518,161.260842 138.69736,158.152347 139.069069,155.027774 C139.32575,152.860403 139.389654,150.668378 139.527048,148.486 C139.774143,144.552146 139.934969,140.610789 140.27792,136.684438 C140.534602,133.760309 140.954238,130.845827 141.424998,127.947424 C141.867001,125.229099 142.47196,122.537571 143.003428,119.834252 C143.065202,119.521259 143.11313,119.203978 143.18236,118.892057 C143.673356,116.691457 143.97051,114.421183 144.718187,112.312766 C145.527638,110.032846 145.540419,107.760429 145.513793,105.425842 C145.499947,104.139569 145.620299,102.850079 145.725741,101.565949 C145.87272,99.7608784 146.014374,97.9525919 146.244429,96.1571682 C146.683237,92.7324643 147.182753,89.3152637 147.657774,85.8959193 C147.68014,85.7351351 147.780256,85.5314751 147.717417,85.4221418 C146.519216,83.3255156 147.758955,81.2106672 147.666294,79.103322 C147.484168,74.9347232 147.384051,70.7607649 147.341448,66.5878785 C147.322277,64.6927685 147.581089,62.7955147 147.609846,60.897189 C147.681205,56.0307867 147.651383,51.1633124 147.747239,46.297982 C147.791972,44.0427154 148.105102,41.7928082 148.151965,39.5375415 C148.166876,38.7829276 147.731263,38.0197385 147.589609,37.5513205 C144.160092,37.5513205 140.873293,37.4655689 137.59182,37.5727584 C133.741601,37.7003139 129.897772,38.0283137 126.049683,38.2051763 C121.744679,38.4034769 117.431156,38.4506402 113.130413,38.7089669 C108.006373,39.0155288 102.890853,39.4732279 97.7721384,39.8698289 C94.0348163,40.1603124 90.2836483,40.3446783 86.5623022,40.7787957 C82.1358813,41.2943771 77.7371522,42.0414878 73.3224471,42.6599711 C69.3966081,43.210925 65.4601183,43.6814868 61.5396045,44.2624538 C58.8055761,44.66763 56.1045647,45.3182702 53.3630808,45.6419824 C50.3531998,45.9967796 47.3113668,46.3054853 44.28764,46.2658251 C40.4565919,46.216518 36.6138281,45.9335378 32.8115368,45.4651197 C31.396062,45.2904009 30.0114742,44.4275256 28.7301979,43.6750554 C24.4070886,41.1378805 19.6196098,40.8763381 14.8225455,40.6984036 C10.7593127,40.5483383 6.68968945,40.5472664 2.62432651,40.4486521 C1.7935738,40.4282861 0.966016292,40.2696457 0.137393717,40.1742471 C0.0915958115,39.9641557 0.0457979058,39.7551362 0,39.5450448 C3.87045557,38.3552416 7.74197621,37.1654384 11.6379934,35.96706 C10.7891345,33.8307737 10.8796653,33.7514535 12.9320505,33.0847349 C16.2838182,31.9956898 19.6771235,30.9859649 22.915994,29.6160834 C24.6307528,28.8904106 26.0046899,27.3897579 27.6278529,26.3950395 C29.6536115,25.1516416 31.2682539,23.3326361 33.9852413,23.1021787 C37.6299025,22.7945449 41.2095947,21.7869638 44.84041,21.2338661 C47.9312361,20.7622324 51.0646649,20.5703632 54.1629465,20.1330302 C55.683863,19.9186512 57.1632419,19.4180763 58.6660522,19.0675667 C62.8634835,18.0878549 67.0257676,16.8637511 71.2743222,16.2195423 C75.2129421,15.6235688 79.2410277,15.5463924 83.2350311,15.4370591 C87.1203976,15.3298696 91.0174799,15.6042747 94.9007162,15.4670721 C98.4143742,15.3416604 101.912056,14.7853471 105.425714,14.6138439 C107.542003,14.5120139 109.675334,14.8518045 111.802274,14.8732424 C117.323584,14.928981 122.85022,14.7939222 128.36727,14.9707849 C133.716039,15.1444318 139.059483,15.5678302 144.398667,15.9826535 C145.531899,16.0716208 146.65874,16.5271761 147.741914,16.9409275 C149.393834,17.5722735 150.334288,16.7887184 151.460065,15.6407191 C153.567834,13.4904981 155.914177,11.5750222 158.188097,9.59308869 C159.684517,8.28752083 161.360933,7.16095941 162.702918,5.71497334 C163.595445,4.75348371 164.110937,3.40289628 164.666903,2.16807348 C165.692563,-0.111846741 166.420004,-0.447349811 168.648125,0.484126762 C173.624121,2.56467455 178.524497,4.78885624 182.847606,8.09457977 C185.028865,9.76351996 187.308109,11.3584994 188.025965,14.2987068 C188.144187,14.7853471 188.74382,15.1465756 188.880149,15.6342877 C189.099553,16.4199866 189.118724,17.2635678 189.253988,18.3301031 C190.578932,18.4094233 189.359429,21.1652648 191.338325,21.2585197 C191.685537,18.9710962 192.014643,16.8090844 192.342684,14.6460007 C192.460906,14.6267066 192.579129,14.6074125 192.698416,14.5881184 C193.054149,16.6182871 193.409881,18.6495278 193.77946,20.7633043 C202.175388,21.7376567 210.516997,22.7066496 218.983219,23.6895771 C219.039668,23.6006098 219.254811,23.2661786 219.31978,23.1643486 C220.604252,23.3605054 221.681035,23.6359823 222.764209,23.6681392 C227.153352,23.7999822 231.548886,23.7699692 235.934835,23.9607665 C242.555295,24.2491062 249.169364,24.6939425 255.788759,25.0208704 C257.607895,25.1109096 259.436616,24.9651319 261.258946,25.0176547 C264.714026,25.116269 268.16804,25.391746 271.622054,25.3831708 C274.577616,25.3756676 277.534244,24.9243999 280.486611,24.9597724 C282.331308,24.9822822 284.157899,25.687589 286.011117,25.8205039 C287.766348,25.9469875 289.545011,25.7261772 291.5729,25.6479289 C293.880901,26.8237974 296.454104,28.4230645 299.701495,27.4487121 C301.8295,26.8098628 303.95218,25.7851314 306.108942,25.6961641 C308.786522,25.5846871 311.489663,26.3500199 314.194935,26.5772616 C317.851312,26.8848954 319.338146,29.2988025 320.333984,32.4276634 C321.20947,35.1781454 322.427907,37.821438 323.235229,40.5890703 C323.958409,43.0694349 324.308817,45.6591327 324.856261,48.193092 C325.525124,51.2908679 326.214223,54.3843563 326.920362,57.4735571 C327.556208,60.2540522 328.329447,63.006678 328.827898,65.8096829 C329.016415,66.8762182 328.607429,68.049943 328.425303,69.5559551 C329.346586,70.6214186 329.501021,72.2624895 328.69796,73.8896258 C328.945056,75.1051545 329.305049,75.9926834 329.266706,76.8609181 C329.149549,79.5235048 328.875826,82.1775163 328.670268,84.8358154 C328.654292,85.0469787 328.630861,85.2945864 328.719261,85.4703771 C329.656521,87.3408335 329.030261,89.241303 328.971683,91.1578509 C328.901388,93.4270521 329.32209,95.7069723 329.421141,97.9879645 C329.556405,101.093244 329.583031,104.203882 329.670367,107.312377 C329.703384,108.447514 329.769418,109.583722 329.837582,110.717787 C329.849298,110.918231 329.994147,111.114388 329.993082,111.310545 C329.969651,114.337576 329.847168,117.365678 329.928113,120.389494 C329.985627,122.481832 330.421239,124.56238 330.50751,126.654719 C330.657684,130.286298 330.618277,133.924309 330.759931,137.555889 C330.819575,139.090842 331.29779,140.615076 331.305246,142.145742 C331.327612,146.557661 331.274359,150.970652 331.120989,155.379355 C331.014482,158.463197 331.638612,161.345522 332.497056,164.296448 C333.186155,166.668551 332.995508,169.291478 333.331004,171.784705 C333.405559,172.339947 333.945548,172.97558 334.447195,173.304652 C336.927737,174.936076 339.908861,174.450507 342.624784,175.125801 C344.780481,175.661749 346.964934,176.078716 349.142997,176.512833 C353.876158,177.455029 358.582691,178.630897 363.360584,179.224727 C367.391865,179.727445 371.520067,179.390871 375.5833,179.709223 C379.377071,180.00721 383.139954,180.696438 386.920944,181.178791 C388.645289,181.398529 390.376023,181.595758 392.111019,181.694372 C394.80777,181.848725 397.353281,182.298921 399.817848,183.625927 C401.455921,184.508096 403.444403,184.902554 405.322117,185.131939 C409.329966,185.619651 413.378288,185.769716 417.390397,186.229559 C419.808101,186.50718 422.178941,187.178186 424.591319,187.528696 C425.914133,187.721637 427.280615,187.575859 428.623665,187.653036 C433.74025,187.942447 438.852574,188.409793 443.972354,188.510551 C447.06105,188.571649 450.162527,188.093584 453.256548,187.834186 C459.037735,187.350761 464.79123,187.568356 470.5394,188.339048 C474.027496,188.806394 477.533698,189.129035 481.030315,189.528851 C481.503205,189.582446 482.029349,189.592093 482.430879,189.808616 C485.604781,191.527935 488.785072,190.950184 492.017552,189.997269 C495.538666,188.958603 499.095992,188.048565 502.626691,187.045271 C503.443597,186.813742 504.217901,186.432147 505.444859,185.948723 C504.735524,185.105142 504.126306,184.473796 503.621464,183.766345 C501.806588,181.220595 499.868166,178.744518 498.28228,176.057278 C496.927514,173.761279 495.99345,171.214457 494.874064,168.77804 C493.493736,165.770303 492.354114,162.616789 490.673437,159.78913 C488.536912,156.193995 485.99566,152.837893 483.568371,149.421764 C479.83957,144.174839 476.079881,138.950424 472.294631,133.745303 C469.867342,130.40635 467.666912,126.82515 464.814661,123.89459 C462.192465,121.198774 458.998327,118.975664 455.372837,117.601495 C453.482342,116.88547 451.535399,116.277705 449.735435,115.37517 C448.265641,114.638778 446.886379,113.645132 445.627469,112.575381 C443.710347,110.947172 442.074404,108.950232 440.046515,107.493527 C438.355188,106.280143 436.251679,105.661659 434.367575,104.703385 C429.557729,102.25625 424.488008,100.382577 419.895436,97.4209321 C417.340339,95.7745017 414.19839,95.047757 411.317382,93.9147643 C408.865597,92.9500589 406.413811,91.991785 404.939758,89.5703747 C402.616845,85.7533573 398.862482,86.2196316 395.194389,86.1285205 C392.733018,86.0674225 390.280167,85.5475535 387.826252,85.2131223 C385.787712,84.9344297 383.759824,84.5571227 381.714894,84.3448876 C375.260584,83.6760252 369.107689,81.9341962 363.271119,79.1129691 C362.138952,78.5663028 361.041932,77.7570222 360.205854,76.8191142 C358.87878,75.3313243 358.916057,73.7738611 360.467861,72.5851298 C362.770537,70.8229348 363.245557,68.0938907 364.543874,65.8011077 C365.693082,63.7720109 366.889153,61.7643519 368.17895,59.8242223 C368.874439,58.7769811 369.730754,57.8037007 370.652037,56.9472567 C374.691838,53.1945531 378.705013,49.405405 382.896054,45.829564 C384.32857,44.606532 386.321311,44.0759441 387.935954,43.0362061 C389.783846,41.8442591 391.571029,40.67375 392.616926,38.4388494 C394.231568,34.9852044 397.32772,34.4621197 400.796645,35.1920801 C401.470832,35.3346421 402.239811,35.1706422 402.93743,35.019505 C405.499983,34.4642635 408.060406,33.8940155 410.603787,33.2583819 C413.971531,32.4169445 417.308387,31.4554548 420.682521,30.6451024 C424.157837,29.8100963 427.631022,28.8636132 431.160656,28.4026985 C433.766877,28.0618359 436.464693,28.4905938 439.118841,28.4466462 C440.662124,28.4209207 442.201147,28.1293653 443.742299,27.9728687 C448.833322,27.4551435 453.932866,27.0178104 459.012173,26.4079023 C462.898605,25.941628 466.750954,25.1902298 470.636321,24.7035895 C472.694031,24.4452629 474.79754,24.566387 476.864836,24.3616551 C479.511529,24.1001128 482.13692,23.6306229 484.781483,23.3476426 C487.026646,23.1086101 489.212164,23.2640348 491.248574,24.5020733 C491.816255,24.8461516 492.682155,24.6692889 493.403205,24.7850536 C497.888205,25.5032231 502.38066,26.1742292 506.846488,26.9974444 C508.449415,27.2932874 509.985242,27.9610778 511.546631,28.4745154 C514.231667,29.3566848 516.826171,28.3544632 519.469669,28.1711692 C523.300717,27.9053393 526.694023,29.080136 529.441897,31.9710362 C530.956423,33.5649438 532.802185,34.3313486 535.033502,33.3269831 C535.559645,33.0900944 536.180579,33.0675846 536.756781,32.9421729 C539.600511,32.3236896 540.402507,32.9228788 541.238585,35.7280275 C541.668873,37.1707979 542.530512,38.483869 543.214286,39.8901949" id="Fill-3"></path>
                <path d="M1297.43797,101.403656 C1295.83952,101.496535 1294.44388,101.441021 1293.10384,101.681223 C1289.21021,102.381545 1285.36346,103.369041 1281.44912,103.918836 C1278.06141,104.394969 1274.60064,104.340523 1271.18785,104.682144 C1268.71167,104.928751 1266.27148,105.495627 1263.79966,105.813761 C1261.48267,106.112679 1259.1526,106.34434 1256.81925,106.472448 C1254.00943,106.626177 1251.18979,106.627244 1248.3756,106.715852 C1245.95285,106.792717 1243.52573,107.047864 1241.10952,106.961392 C1237.09813,106.818338 1236.0405,107.795159 1235.75155,111.691765 C1235.52585,114.726848 1234.78333,117.724566 1234.526,120.759649 C1234.37881,122.504047 1233.79874,124.305027 1234.80295,126.088925 C1235.15731,126.718788 1234.84329,127.712689 1234.82803,128.540051 C1234.79423,130.381598 1234.68301,132.22528 1234.73862,134.063624 C1234.81822,136.727195 1234.72009,139.319239 1233.95248,141.935836 C1232.90575,145.505769 1232.29733,149.197403 1231.35418,152.799362 C1230.64328,155.513108 1229.71866,158.173476 1228.86274,160.850925 C1228.12021,163.180348 1227.30245,165.48842 1226.59154,167.827452 C1226.07908,169.520607 1225.74107,171.263939 1225.2297,172.957094 C1224.38468,175.759448 1223.69231,178.637599 1222.50383,181.300102 C1221.49962,183.551593 1219.85538,185.524451 1218.55568,187.657442 C1218.10646,188.396196 1217.86222,189.252382 1217.49804,190.042379 C1217.16767,190.757646 1216.78387,191.449427 1216.45458,192.164695 C1215.03277,195.251021 1213.83993,198.411008 1211.55347,201.098066 C1209.91686,203.021815 1208.84068,205.397143 1207.45921,207.535473 C1206.0603,209.697289 1204.53817,211.783308 1203.17306,213.963272 C1201.64112,216.40906 1200.13099,218.876199 1198.78332,221.42127 C1197.51197,223.821153 1196.54919,226.3769 1195.25495,228.763971 C1194.95292,229.321239 1193.74046,229.880643 1193.16039,229.716238 C1192.11802,229.420523 1192.6741,228.598499 1193.10697,227.932339 C1194.11881,226.375832 1195.12084,224.809716 1196.04,223.199831 C1197.76493,220.180762 1199.41245,217.120057 1201.12647,214.09565 C1201.62585,213.215978 1202.34548,212.4484 1202.77944,211.544174 C1203.14798,210.775528 1203.71169,210.030369 1202.71838,209.022589 C1202.25716,208.553928 1202.73692,207.167164 1202.83723,206.202086 C1203.13707,203.337814 1203.54486,200.482081 1203.7444,197.612471 C1203.87197,195.780532 1203.58521,193.920837 1203.70951,192.088898 C1203.81418,190.551607 1204.26449,189.037802 1204.51964,187.506916 C1204.64284,186.771365 1204.693,186.020868 1204.72789,185.274641 C1204.77805,184.181456 1204.58615,183.256946 1205.5849,182.160558 C1206.33943,181.332129 1205.82696,179.415853 1205.92291,177.986385 C1206.06466,175.87688 1206.21076,173.766307 1206.41793,171.661072 C1206.55531,170.274307 1206.5226,168.779718 1207.06342,167.54348 C1207.98367,165.443583 1207.20734,163.366104 1207.43195,161.293964 C1207.62713,159.500457 1207.97822,157.582046 1207.53554,155.901701 C1207.00781,153.897885 1207.30329,151.759555 1206.62837,149.942562 C1205.48241,146.858371 1205.74519,143.685573 1205.2349,140.577896 C1204.88272,138.431026 1204.56325,136.271345 1204.38879,134.105259 C1204.27649,132.704616 1204.51527,131.280486 1204.47275,129.871302 C1204.43786,128.730077 1204.17181,127.599527 1204.08677,126.458302 C1203.91994,124.258054 1203.63427,122.048198 1203.71496,119.854355 C1203.86216,115.845654 1204.63848,111.867913 1203.59502,107.835726 C1203.25374,106.51942 1203.74331,105.006683 1203.79128,103.581486 C1203.82835,102.484031 1203.92212,101.355616 1203.72259,100.28912 C1203.0891,96.9156199 1202.30841,93.5698762 1201.62803,90.2049163 C1201.32274,88.6953817 1201.12102,87.1666309 1200.87024,85.6464206 C1200.8179,85.3314894 1200.80373,85.0016123 1200.69251,84.7069648 C1199.13877,80.644886 1197.55231,76.5934828 1196.01383,72.5249987 C1194.8428,69.4258621 1193.46678,66.3929145 1193.27706,63.0023331 C1193.15603,60.8479901 1192.90525,58.6840391 1192.49092,56.5659933 C1192.17908,54.9785265 1191.37549,53.4828701 1191.05384,51.8954034 C1190.79979,50.6484893 1190.92191,49.3225755 1190.92409,48.0318914 C1190.92736,46.9931522 1190.89247,45.9341293 1191.07129,44.9167413 C1191.38967,43.110424 1191.88142,41.3350661 1192.24995,39.5362218 C1192.40042,38.8038733 1192.46693,38.0459032 1192.48329,37.2975413 C1192.53889,34.9510369 1193.8713,33.0198147 1194.6171,30.9007013 C1195.09031,29.5598417 1195.68346,28.2563468 1196.27552,26.9592572 C1197.08128,25.1913722 1199.76572,23.9092286 1201.71635,24.1312817 C1203.49798,24.3341188 1205.30796,24.4579561 1207.09722,24.3960375 C1212.81718,24.1985382 1218.00615,25.9173153 1222.85819,28.6353318 C1225.90353,30.3434332 1227.83781,33.1618006 1229.32832,36.2203698 C1230.03704,37.6754587 1230.52443,39.2319662 1231.18845,40.7084064 C1231.34437,41.0553645 1231.94406,41.2080261 1232.1087,41.5539166 C1232.47724,42.3321703 1232.6288,43.2097074 1232.99952,43.985826 C1233.47273,44.9722546 1234.11494,45.8775484 1234.61759,46.8511662 C1236.25857,50.0314376 1237.1363,53.370776 1237.32384,56.9695322 C1237.52337,60.821301 1238.12415,64.6538537 1238.57883,68.4906766 C1239.07821,72.7064845 1239.80547,76.9073465 1240.05298,81.1359652 C1240.19908,83.6052393 1239.59721,86.1150809 1239.34207,88.6078415 C1239.14035,90.5689554 1238.95172,92.531137 1238.75001,94.585129 C1239.17961,94.6481152 1239.54924,94.7719526 1239.90578,94.7431284 C1245.71079,94.2776707 1251.52779,93.9211046 1257.311,93.2741611 C1262.29171,92.7179606 1267.22226,91.7507481 1272.19424,91.1027372 C1277.43009,90.4194966 1282.69102,89.9006608 1287.94105,89.3124333 C1288.1046,89.2932172 1288.29759,89.349798 1288.4317,89.2825415 C1291.02782,87.9950601 1293.84855,88.9985697 1296.49155,88.4808014 C1297.21663,88.3388155 1298.18595,87.2744548 1298.28081,86.5389036 C1298.67661,83.5038208 1299.22505,80.3801303 1298.85652,77.3909527 C1298.51851,74.6419769 1298.85543,71.9869467 1298.88159,69.2998896 C1298.9154,65.7406332 1298.06601,62.3660653 1297.23081,58.9594704 C1296.94514,57.7979614 1297.14467,56.520088 1296.84592,55.3649844 C1296.32037,53.3440869 1297.15776,51.4758509 1297.22754,49.5467638 C1297.29732,47.580312 1296.6213,45.5967792 1296.6213,43.6207194 C1296.62021,40.5301233 1296.45557,37.4235138 1297.34966,34.3628095 C1298.23284,31.3448077 1298.78237,28.2339279 1299.60559,25.1977776 C1299.8749,24.2060112 1300.54547,23.3199336 1301.07319,22.3046807 C1300.96089,22.1445462 1300.75481,21.8498987 1300.52475,21.5210892 C1300.68939,21.3812384 1300.79297,21.2712794 1300.91727,21.1944148 C1301.85606,20.6093901 1302.73052,19.8407444 1303.75218,19.4820431 C1309.1385,17.5913883 1314.68946,17.1269982 1320.26986,18.3760474 C1323.20071,19.0325989 1326.39652,19.1745848 1328.69606,21.5669944 C1330.24327,23.1758125 1331.66835,24.7643468 1331.42738,27.21654 C1331.35324,27.9702398 1331.62037,28.7623718 1331.77193,29.5299499 C1332.30075,32.2106016 1332.82739,34.8923209 1333.39219,37.5654997 C1333.87194,39.8362071 1334.45964,42.0855632 1334.89251,44.3637435 C1335.20762,46.0248722 1335.49983,47.7169602 1335.52927,49.3994401 C1335.57179,51.9861462 1335.39407,54.5792578 1335.28285,57.1670315 C1335.14874,60.2949923 1335.07242,63.4282909 1334.80528,66.545576 C1334.65699,68.2654207 1334.19469,69.9639141 1333.81743,71.6592048 C1333.65387,72.3990262 1333.22319,73.0929424 1333.12505,73.8338314 C1332.57334,78.0272205 1332.31493,82.2985417 1330.89529,86.2976342 C1330.39264,87.7132233 1330.43299,89.222758 1329.60868,90.6778469 C1328.86289,91.993085 1328.78656,93.9168343 1327.99388,95.3890042 C1326.16427,98.7913288 1326.36599,102.701814 1324.96598,106.207692 C1323.95196,108.746358 1322.6141,111.325591 1322.40039,113.962472 C1322.15398,117.002893 1319.83699,119.179655 1319.69415,122.152819 C1319.64509,123.167004 1319.06284,124.168379 1318.66377,125.151605 C1317.17109,128.817617 1315.46796,132.414238 1314.20425,136.152846 C1313.21422,139.080104 1312.78898,142.187781 1312.04645,145.19831 C1311.62231,146.92456 1311.01716,148.60704 1310.57666,150.32902 C1309.94862,152.788686 1309.46124,155.283582 1308.79067,157.730437 C1308.23024,159.774821 1307.46481,161.764759 1306.83895,163.79313 C1306.04191,166.376633 1305.2067,168.953731 1304.5405,171.572464 C1303.17102,176.948714 1302.02507,182.383679 1300.54547,187.730037 C1299.76696,190.537728 1298.48253,193.210907 1297.41617,195.941734 C1296.77504,197.583647 1296.11865,199.220222 1295.45354,200.854661 C1295.33142,201.151444 1295.20603,201.510145 1294.96507,201.686293 C1293.64575,202.649235 1293.35789,204.098986 1292.82035,205.498562 C1291.70166,208.40874 1289.99308,211.000784 1287.98902,213.441234 C1285.78979,216.120818 1283.62763,218.862321 1281.80675,221.790647 C1280.61718,223.703721 1280.13852,226.027806 1279.203,228.108487 C1278.33508,230.040777 1277.30689,231.90581 1276.30595,233.778317 C1275.71607,234.883245 1274.63989,234.859758 1274.00531,234.099653 C1273.55609,233.559466 1273.37509,232.329633 1273.69892,231.729662 C1275.12837,229.07143 1276.78243,226.528494 1278.35907,223.946058 C1279.16266,222.629752 1280.00222,221.332662 1280.76547,219.995005 C1280.9541,219.665128 1281.10566,219.092914 1280.94319,218.826024 C1279.31094,216.146439 1280.15814,213.662219 1281.27575,211.073378 C1281.84709,209.746397 1281.92669,208.212308 1282.19818,206.766827 C1282.30831,206.183938 1282.32139,205.585035 1282.40208,204.99574 C1282.6932,202.877694 1283.02467,200.763918 1283.28308,198.641602 C1283.71595,195.062062 1283.88277,191.437684 1284.56751,187.907252 C1285.3711,183.765106 1285.64477,179.637906 1285.7091,175.435976 C1285.76035,172.045395 1286.49197,168.668692 1286.83652,165.27811 C1286.90631,164.601275 1286.52905,163.891346 1286.46253,163.187821 C1286.35459,162.055137 1286.34042,160.913911 1286.27499,159.776956 C1286.23138,159.033932 1286.13979,158.293043 1286.11362,157.550019 C1286.05802,155.904904 1285.88029,154.24591 1286.02967,152.616808 C1286.24665,150.238277 1286.59011,147.856543 1287.09603,145.520714 C1287.67064,142.868887 1288.84931,140.298194 1289.08264,137.634624 C1289.28326,135.360713 1290.16754,133.620585 1291.19137,131.692566 C1292.2054,129.782695 1293.55089,127.763932 1292.95665,125.340563 C1292.91957,125.192172 1292.91303,125.014956 1292.9621,124.872971 C1293.58796,123.041032 1294.38827,121.247525 1294.82223,119.372884 C1295.34887,117.090433 1295.78283,114.748199 1295.87551,112.416641 C1296.01943,108.805074 1296.33018,105.237277 1297.43797,101.403656" id="Fill-6"></path>
                <path d="M657.097498,72.0187926 C656.607634,71.4506858 656.11777,70.8825791 655.502743,70.1697659 C655.732569,69.8021043 656.06382,69.272586 656.333569,68.8438261 C655.488716,66.5660396 656.825591,64.7577451 657.422276,62.6900509 C657.081313,62.4370826 656.664821,62.1262318 656.248329,61.8164528 C656.404783,61.8657602 656.561237,61.9150676 656.717692,61.9643749 C657.452487,60.2814927 658.218574,58.6104013 658.905894,56.9092967 C659.199381,56.181477 659.144352,55.2650029 659.564081,54.6454449 C660.869666,52.7149539 660.76824,50.5068408 660.977565,48.3791202 C661.141572,46.7123165 661.490088,45.2727554 662.367311,43.7324358 C663.57147,41.6165061 663.943723,39.0493067 664.875975,36.7575855 C665.452159,35.3405343 666.286222,33.9845814 667.218474,32.7626159 C668.501399,31.0829494 669.960201,29.5319108 671.390949,27.9680093 C673.420539,25.7502492 675.406969,23.4821098 677.57575,21.4047685 C679.142451,19.9041091 681.255124,18.9093864 682.627606,17.2779553 C684.987369,14.4727942 687.834837,15.8609041 690.487008,15.9487999 C695.215165,16.1063691 697.711961,19.5621732 699.825712,23.0769318 C701.293146,25.517647 702.199502,28.2981544 701.39673,31.3391334 C701.246749,31.9093839 701.950254,32.7004458 702.321429,33.5225927 C699.651994,34.6952508 699.516041,37.2281494 699.191263,39.8446562 C698.991649,41.447146 698.003289,42.9456615 697.436817,44.5149224 C696.62757,46.7573363 695.864721,49.0169005 695.109424,51.2775366 C694.119985,54.2349074 693.19097,57.2115724 692.173478,60.1592961 C691.135484,63.1670462 689.959379,66.1287046 688.958072,69.1482456 C687.544588,73.4058306 686.309138,77.7234419 684.834152,81.9595888 C684.453266,83.0539983 683.366718,83.8879361 682.781902,84.9394695 C682.328724,85.7530413 682.140979,86.7145352 681.858282,87.6181465 C680.999402,90.3568498 680.148075,93.0987688 679.307538,95.8439035 C679.201796,96.190127 678.994629,96.7089264 679.147846,96.8986526 C680.620675,98.7219537 679.363645,100.438065 678.967654,102.164895 C678.860833,102.629028 678.396865,103.015983 678.081799,103.428665 C677.830393,103.755594 677.432244,104.026785 677.314633,104.39123 C676.505387,106.895188 675.690745,109.399145 675.003425,111.936331 C674.496297,113.807868 674.197416,115.735143 673.769055,117.62919 C673.520886,118.725743 673.133526,119.793355 672.919885,120.895267 C672.107402,125.077819 670.761895,129.068501 669.125059,133.016307 C667.665178,136.538569 665.460791,139.610633 663.78619,142.982829 C662.670509,145.229531 661.840761,147.614507 660.806005,149.904085 C659.68385,152.38446 658.467822,154.823032 657.29927,157.281969 C655.96779,160.081771 654.579123,162.856919 653.343673,165.698524 C652.732962,167.107 652.511768,168.679477 651.9399,170.108319 C649.722565,175.63932 646.921493,180.878765 643.935913,186.041034 C641.805976,189.723008 639.999738,193.591494 638.131997,197.418175 C637.425255,198.86524 637.063792,200.482736 636.334391,201.916938 C635.838053,202.892366 635.129153,203.89888 634.248693,204.517366 C632.282764,205.897972 632.082071,208.248648 630.855253,210.023714 C629.424505,212.090336 628.261348,214.340253 626.845706,216.418666 C626.561931,216.835635 625.667444,216.941753 625.045942,216.964263 C624.885172,216.969623 624.437389,216.017776 624.570105,215.679056 C624.825827,215.027341 625.440855,214.523548 625.836846,213.913637 C627.351755,211.581184 628.853717,209.239083 630.32115,206.876617 C630.533712,206.533609 630.591978,206.061973 630.616795,205.643932 C630.762459,203.113177 630.805619,200.573847 631.025734,198.049524 C631.257718,195.384782 631.486465,192.701817 632.019489,190.087454 C632.5018,187.729275 633.562452,185.486861 634.05879,183.129754 C634.607999,180.525039 635.398902,178.038232 635.362216,175.196626 C635.317978,171.618625 636.739014,168.02133 637.535313,164.433683 C637.604369,164.122832 637.798588,163.832347 637.827721,163.521496 C638.062942,161.000389 638.219396,158.469634 638.50533,155.953886 C638.811764,153.244124 639.341551,150.555799 639.572456,147.840678 C639.822783,144.900458 639.974921,141.937727 639.92313,138.988932 C639.861627,135.496683 640.417309,132.211311 641.794107,128.965599 C642.795415,126.60742 643.19788,124.00592 644.01468,121.560917 C645.165968,118.110472 646.501764,114.720054 647.656289,111.271753 C648.042569,110.117318 648.119178,108.861051 648.421297,107.180313 C647.216059,107.008809 645.969819,106.739762 644.711711,106.669017 C642.429636,106.541461 640.140008,106.551108 637.854696,106.463212 C635.385954,106.368885 632.910739,106.319578 630.454946,106.085904 C625.685786,105.63249 620.887494,106.104126 616.106466,105.154423 C613.386319,104.614185 610.430951,105.277691 607.579166,105.33879 C606.621018,105.359156 605.659633,105.182292 604.69717,105.117978 C601.333941,104.892879 598.008478,105.040801 594.971106,105.987289 C594.808178,107.434353 594.634459,108.700266 594.530876,109.972611 C594.424055,111.273897 594.511454,112.601981 594.291339,113.879685 C593.811186,116.666624 593.394694,119.493223 592.570341,122.186906 C591.638089,125.234317 590.613044,128.343897 589.01721,131.072954 C587.606963,133.485799 587.465614,135.971534 586.943381,138.521583 C586.447043,140.943004 585.122037,143.193993 584.210286,145.538238 C583.445278,147.501958 582.16451,149.173049 582.016688,151.501215 C581.863471,153.909773 580.836267,156.284031 580.050759,158.626131 C579.470259,160.357249 578.66425,162.013334 577.959666,163.702647 C577.878741,163.896661 577.737393,164.090675 577.730919,164.288976 C577.615466,168.283946 575.90418,171.908038 574.981639,175.71221 C574.313741,178.462704 573.077212,181.072779 572.197831,183.779326 C571.752206,185.151357 571.621647,186.624147 571.198681,188.006897 C570.263192,191.06717 569.691325,194.196045 569.587741,197.375299 C569.472289,200.966163 569.593136,204.564529 569.606084,208.15968 C569.609321,209.343057 569.914677,210.651847 569.504658,211.675511 C569.053638,212.803149 567.948747,213.676747 567.109289,214.643601 C566.481314,215.367133 566.038926,215.036988 565.578195,214.392776 C564.169027,212.424769 564.0471,210.131976 563.784904,207.856333 C563.445021,204.911825 563.754692,201.906219 562.485794,199.039959 C562.068223,198.097759 562.754464,196.716081 562.760938,195.534848 C562.781439,191.694232 563.468759,187.657458 562.510611,184.060163 C561.170499,179.021163 561.16942,174.058269 561.015123,168.981752 C560.866222,164.100322 559.962024,159.245689 559.604876,154.363187 C559.226149,149.194487 558.178445,144.082598 558.776208,138.816356 C559.030851,136.576086 558.150391,134.20826 557.783532,131.898316 C557.7749,131.847937 557.710161,131.799701 557.714477,131.754682 C557.974515,128.450015 557.218139,125.13999 558.200025,121.816029 C559.449501,117.582026 560.905066,113.281565 561.207185,108.937156 C561.476933,105.049377 562.473925,101.33846 562.954078,97.5214263 C563.394308,94.0281057 564.008256,90.5605107 564.310375,87.0307455 C564.591993,83.7335826 565.42174,80.4835832 565.977423,77.2078582 C566.082085,76.5883003 566.050794,75.9430168 566.052952,75.3084522 C566.060505,72.9995806 566.021662,70.6885652 566.073453,68.3796936 C566.091796,67.5371806 566.151141,66.6324974 566.471603,65.8725206 C568.132176,61.9461526 568.264893,57.8461369 568.240076,53.6721601 C568.230365,51.902454 568.821654,50.1263165 569.173407,48.3598261 C569.571556,46.3639491 569.997759,44.3734317 570.437989,42.38613 C570.517835,42.0291874 570.657025,41.6368722 570.892246,41.3678254 C572.192436,39.8853883 572.534477,37.9849105 573.305959,36.2677274 C574.227421,34.2139679 575.35605,32.1612803 576.80622,30.4537444 C579.661241,27.0911955 582.796802,23.9644646 585.822305,20.7466222 C588.498213,17.9018008 591.60464,15.6572432 595.228986,14.1469367 C599.846007,12.2207333 604.28823,12.3493612 608.521129,15.2306272 C611.159273,17.0260589 613.52443,19.0455176 614.696219,22.1218693 C614.902307,22.6653223 615.195794,23.2527233 615.152634,23.7972482 C615.002654,25.7213079 614.859147,27.6635899 614.457761,29.5447735 C613.956028,31.9018806 613.203969,34.2064646 612.553334,36.5314147 C611.908095,38.8359987 611.309253,41.1555893 610.584168,43.4344477 C610.063013,45.0723102 609.403747,46.6715843 608.742323,48.2601394 C607.305101,51.7084402 605.660712,55.0827799 604.433895,58.6007542 C603.809156,60.3908264 603.953742,62.4360107 603.647307,64.3493514 C603.554514,64.9346085 603.088388,65.452336 602.846693,66.0236585 C602.446385,66.9712177 602.091396,67.938071 601.714827,68.8952773 C601.481764,69.4891097 601.204462,70.0700792 601.017796,70.6789181 C600.874289,71.149482 600.839761,71.6554186 600.674675,72.1195511 C600.265736,74.0832711 599.814716,76.0384158 599.458647,78.010711 C599.073446,80.1470067 599.323773,82.6220227 598.287937,84.3520686 C597.231601,86.1174871 597.185204,88.1294425 596.104051,89.7973182 C595.829986,90.2207185 596.033916,90.9356755 595.974572,91.5123575 C595.854803,92.6635776 595.705902,93.811582 595.540815,95.19862 C596.044706,95.2425679 596.665129,95.401209 597.255339,95.3272479 C599.440304,95.048554 601.609085,94.6230099 603.798367,94.3861201 C605.878669,94.1610212 607.979473,94.1267204 610.067329,93.9595041 C611.349176,93.8576737 612.62239,93.5296724 613.898842,93.53396 C616.207892,93.5436071 618.516942,93.8244448 620.824913,93.8094382 C624.096426,93.7880002 627.366861,93.5200253 630.639454,93.5135939 C632.998138,93.5082344 635.388112,93.5725484 637.71011,93.939138 C640.870487,94.4386432 644.000653,94.7816511 647.186926,94.3389565 C648.349004,94.1781716 649.521872,93.982014 650.688266,93.9938049 C651.785604,94.0066677 652.115777,93.4642865 652.217202,92.5499562 C652.538743,89.6215267 652.791228,86.6834501 653.212036,83.7689552 C653.624212,80.9112711 654.212265,78.0782406 654.715076,75.2334193 C654.762552,74.9686601 654.813265,74.6846067 654.766868,74.4262789 C654.477697,72.8291486 655.247021,72.2396039 657.097498,72.0187926" id="Fill-8"></path>
                <path d="M752.946409,74.028961 C752.044066,74.028961 751.366768,73.9281498 750.731666,74.0459398 C746.710073,74.7919427 742.936246,76.1544857 739.57464,78.5017951 C739.357169,78.6524813 739.105076,78.936875 738.910326,78.9050399 C736.954167,78.5930557 735.507606,79.9184578 733.817606,80.4341867 C732.821134,80.7376815 731.935021,81.4412376 731.056481,82.0450436 C728.725969,83.6452889 726.365163,85.2115767 724.139601,86.9444682 C722.887789,87.9207452 721.903219,89.2206791 720.761766,90.3402141 C718.896491,92.1664887 716.957644,93.9237872 715.145385,95.7978144 C714.503791,96.4589237 714.166224,97.3959373 713.637152,98.171653 C712.951199,99.1765816 712.220885,100.151797 711.493818,101.128074 C709.840604,103.348043 708.078115,105.496914 706.551489,107.798593 C705.399217,109.534668 705.207712,111.527546 705.532296,113.623358 C705.699998,114.701507 705.487936,115.885774 705.223942,116.97029 C704.57802,119.617911 705.280203,122.153047 705.658884,124.728508 C705.833077,125.913836 705.797373,127.126754 705.909895,128.322693 C706.017008,129.465574 705.967238,130.690164 706.382706,131.724806 C707.445176,134.362876 708.4925,137.058249 709.990995,139.463923 C711.551161,141.970408 713.533286,144.249802 715.51541,146.470832 C717.312523,148.484934 719.626805,150.092607 721.224839,152.228744 C723.275126,154.97187 726.210445,156.253764 729.034324,157.798828 C734.076191,160.556811 739.660114,161.457744 745.25161,162.37884 C748.869637,162.974157 752.497402,162.848939 756.120838,162.70462 C757.824903,162.636705 759.545197,162.324721 761.20382,161.911925 C764.464805,161.101191 767.703068,160.19389 770.920775,159.230347 C774.149302,158.263621 776.873641,156.536035 778.999665,153.899026 C780.009121,152.647906 781.250112,151.580369 782.33855,150.388674 C784.841091,147.646609 786.140508,144.296494 786.963868,140.804181 C788.123714,135.899451 789.652504,131.075369 789.957613,125.977506 C790.150199,122.773832 790.958413,119.609421 791.36847,116.413175 C791.564302,114.878723 791.470173,113.30819 791.522106,111.754637 C791.546991,111.039408 791.57404,110.322056 791.65194,109.611072 C791.821805,108.071313 790.977888,107.064263 789.463163,106.792603 C788.72744,106.661018 787.911653,106.368135 787.375008,105.887424 C785.875431,104.546105 783.98419,104.200163 782.223864,104.398602 C779.046189,104.756217 775.790614,105.228437 772.825,106.324627 C770.925103,107.02606 769.645161,106.642978 768.117454,105.923504 C766.371193,105.098975 764.618441,104.277629 762.821329,103.573011 C762.376649,103.398979 761.746957,103.678067 761.261163,103.741737 C759.63067,102.677383 757.898475,101.725513 756.380505,100.515779 C753.622625,98.3180946 751.36785,95.7129208 750.387607,92.2397095 C750.045712,91.0289138 749.591295,89.8499533 749.234253,88.6434023 C749.148779,88.3547639 749.161762,87.7711201 749.274285,87.7318568 C751.345129,87.0219337 751.023791,85.0693798 751.37326,83.6039032 C751.799546,81.8158308 753.018899,80.8384927 754.265301,79.7115295 C756.475716,77.7122841 759.1914,76.672337 761.83784,75.4466849 C763.287647,74.7760251 764.728799,73.9843919 765.955726,72.9890139 C766.952198,72.1814631 767.508318,71.0035637 765.375803,70.3604943 C766.988984,69.4054408 768.4323,68.6700496 769.726307,67.7372806 C770.445801,67.2173071 770.880743,66.3322908 771.513682,65.6754262 C771.975673,65.1978994 772.531793,64.498588 773.079257,64.4656917 C775.300492,64.3341066 777.535792,64.4391625 779.764601,64.4243061 C781.437289,64.4126332 783.129452,64.1706863 784.775092,64.3542688 C786.895706,64.591971 788.962222,65.2923436 791.082836,65.5364128 C793.630819,65.8303571 796.157162,66.1996445 798.759242,65.2159393 C800.15387,64.6895987 801.971539,64.7734312 803.483018,65.0992106 C807.830276,66.035163 812.153732,67.1196794 816.415516,68.3718606 C818.977564,69.1252918 821.474695,70.1928294 823.400559,72.1602396 C823.619112,72.3830855 823.866877,72.6505004 823.932876,72.933833 C824.612338,75.8127888 827.032651,77.1901882 829.188969,78.7585983 C831.704493,80.5869953 833.379345,82.9799349 834.821579,85.6774306 C837.109895,89.9560704 837.569722,94.4968193 837.213761,99.1532358 C836.942193,102.695423 836.202142,106.106025 834.769646,109.492221 C832.948731,113.792084 831.208962,118.369974 830.824871,122.940436 C830.427797,127.677501 828.164366,131.523183 826.686428,135.742398 C826.157357,137.256688 825.110033,138.589518 824.428407,140.063484 C824.044317,140.895442 824.061628,141.909921 823.660226,142.730206 C821.920457,146.283005 820.168787,149.835804 818.279709,153.31326 C815.710088,158.042897 811.891901,161.846133 808.329053,165.83189 C807.908176,166.301988 807.663656,166.920651 807.294713,167.440624 C805.949854,169.337997 804.133267,170.562588 801.92718,171.408341 C798.696489,172.647788 795.583731,174.179057 792.355205,175.420627 C790.00089,176.324744 787.545955,176.980548 785.124561,177.712755 C782.226028,178.589282 779.318839,179.446708 776.407323,180.281849 C772.483105,181.407751 768.480988,181.688962 764.410707,181.372733 C763.259517,181.283594 762.08777,181.508563 760.923596,181.540398 C759.48569,181.581783 758.042374,181.650759 756.608796,181.569049 C750.805238,181.236903 744.998435,180.941898 739.211106,180.438903 C736.961741,180.243647 734.77621,179.42124 732.531173,179.088033 C730.081647,178.724051 727.567205,178.755886 725.133909,178.331418 C720.370101,177.49946 715.793471,176.093409 711.592275,173.613453 C709.149241,172.170261 706.66293,170.717519 704.025146,169.690306 C701.847189,168.843492 700.002471,167.638002 698.209687,166.261664 C697.997625,166.099305 697.745532,165.914661 697.654648,165.686509 C696.291397,162.300314 693.256539,160.470856 690.652295,158.1904 C688.98718,156.732352 687.709402,154.827551 686.36238,153.046906 C684.9169,151.134677 683.573123,149.146043 682.219609,147.16696 C680.077356,144.035446 678.577779,140.761734 678.312702,136.837526 C678.028151,132.623617 678.362472,128.504153 679.291863,124.462154 C680.077356,121.042001 681.536901,117.852123 683.902035,115.040021 C686.207661,112.297956 688.090247,109.213133 690.189222,106.30022 C690.655541,105.652906 691.214907,105.060772 691.788338,104.498352 C694.344976,101.9855 696.901614,99.4694647 699.510186,97.0086101 C700.081453,96.4705966 700.903732,96.1999981 701.548571,95.7245937 C704.446022,93.5863349 707.186591,91.2114352 710.238761,89.3172457 C713.60253,87.2320455 717.240032,85.5734358 720.766094,83.7439777 C721.196708,83.5200708 721.721452,83.453217 722.123936,83.1964137 C724.838538,81.4656445 727.928575,80.7355591 730.973171,79.8335641 C733.10244,79.2021676 735.09863,78.1484253 737.21708,77.4713984 C741.070971,76.2393794 744.653294,74.5160383 748.041949,72.3395775 C749.506903,71.3983192 751.850398,72.1772184 752.946409,74.028961" id="Fill-10"></path>
                <path d="M1120.02542,30.3539951 C1122.06643,30.3539951 1124.10529,30.3648361 1126.14415,30.3507428 C1128.38323,30.3344812 1130.63954,30.4645739 1132.85924,30.2336593 C1138.66149,29.6287279 1144.2269,31.5812036 1149.96563,31.7134645 C1151.52653,31.7492401 1153.40714,31.58554 1154.72476,33.23555 C1155.16719,33.7884443 1156.41484,33.74508 1157.30939,33.8621635 C1160.64649,34.3001425 1163.38291,35.9978532 1165.93309,38.0413938 C1167.05479,38.940118 1167.67377,40.1651583 1167.74481,41.6829073 C1167.78249,42.4927348 1168.11297,43.289553 1168.39286,44.420276 C1167.43479,45.092422 1166.15377,44.2446508 1164.92658,44.1503335 C1162.47651,43.961699 1160.04151,43.554075 1157.59035,43.3979636 C1152.78709,43.0922456 1147.97737,42.8504899 1143.16549,42.6737805 C1140.11151,42.5610335 1137.04999,42.5718745 1133.99278,42.6022295 C1131.6805,42.6249958 1129.31331,42.4797255 1127.07315,42.9296297 C1123.97288,43.5508227 1120.96626,44.6490225 1117.92735,45.5661765 C1114.09508,46.7229181 1110.20036,47.5175681 1106.23998,48.1365928 C1101.93513,48.8098229 1097.73469,50.1823017 1093.42446,50.7731397 C1088.37898,51.4647996 1084.17209,54.1642246 1079.5486,55.8445896 C1073.62149,57.9997931 1068.77193,62.00123 1063.26142,64.8545981 C1061.36573,65.8357144 1059.86619,67.6450881 1058.30529,69.1975285 C1057.93068,69.5704611 1057.89946,70.4323257 1057.9339,71.056771 C1058.03617,72.9246864 1058.10184,74.8142839 1058.44523,76.6453396 C1059.84251,84.0768892 1065.19478,88.2040824 1071.13696,91.816325 C1073.03157,92.9665619 1074.78947,94.4149281 1076.79711,95.2876338 C1080.54973,96.919214 1084.49181,98.1041423 1088.25734,99.7075357 C1091.90662,101.262144 1095.4504,103.070434 1099.00387,104.841864 C1101.41734,106.044138 1103.79206,107.332056 1106.13879,108.662255 C1107.73091,109.565315 1109.20139,110.687366 1110.80427,111.568744 C1112.73763,112.631168 1114.76142,113.527724 1116.73246,114.524018 C1117.74651,115.036801 1118.72503,115.618966 1119.72939,116.151262 C1123.01912,117.895589 1126.2561,119.762421 1129.62872,121.328954 C1132.24457,122.545322 1135.04773,123.34214 1137.74002,124.399144 C1141.78436,125.986276 1145.80287,127.63737 1149.83214,129.261361 C1152.48029,130.328122 1155.18657,131.273463 1157.75721,132.503923 C1159.26428,133.225938 1160.57006,134.38268 1161.9415,135.378974 C1162.68104,135.91669 1163.32047,136.605098 1164.08908,137.092946 C1165.88035,138.226921 1166.88471,139.915959 1167.59841,141.836996 C1167.65331,141.984434 1167.69422,142.179573 1167.64578,142.318339 C1166.73184,144.908269 1166.74369,147.818011 1164.55735,149.963457 C1161.97164,152.498098 1159.60876,155.263654 1157.12208,157.903453 C1156.20169,158.880233 1155.13597,159.723668 1154.25756,160.734055 C1152.02602,163.300135 1149.92042,165.980046 1147.64904,168.509266 C1146.39601,169.902343 1144.84803,171.021141 1143.54441,172.373021 C1142.11915,173.850659 1140.86504,175.49308 1139.4527,176.981558 C1138.91231,177.550714 1138.08772,177.833666 1137.47412,178.34428 C1134.76462,180.600305 1131.98299,182.781527 1129.42096,185.196916 C1126.18828,188.242171 1122.50994,190.496029 1118.5797,192.494037 C1114.12307,194.760903 1109.87849,197.45274 1105.44339,199.768391 C1102.91365,201.087748 1100.18692,202.021164 1097.55169,203.133457 C1094.8142,204.286947 1092.06271,205.411165 1089.34674,206.612355 C1086.2497,207.982665 1083.18496,209.428863 1080.10299,210.833865 C1077.75625,211.903878 1075.41813,212.993405 1073.04772,214.003792 C1072.21668,214.358295 1071.30597,214.541509 1070.41787,214.744237 C1065.83098,215.792568 1061.26777,216.986169 1056.64105,217.813342 C1051.23603,218.780365 1045.77503,219.43625 1040.33557,220.200545 C1036.33536,220.761028 1032.34161,221.583865 1028.32418,221.734555 C1023.90844,221.900424 1019.44427,221.649995 1015.04684,221.17082 C1011.16504,220.746934 1007.34245,220.772953 1003.46712,221.037475 C1001.14622,221.195755 998.766117,220.987606 996.46675,220.617926 C995.54851,220.470487 994.65503,219.551165 993.95101,218.794459 C991.271645,215.915072 987.593304,215.616943 984.116266,214.782181 C982.854628,214.478631 981.578996,214.236875 980.323818,213.909475 C979.780194,213.767457 979.273171,213.479085 978.75,213.257927 C978.77153,213.082302 978.793059,212.907761 978.814589,212.732136 C981.108573,212.732136 983.402558,212.703949 985.696542,212.73864 C990.20808,212.806939 994.722848,213.02376 999.23331,212.964134 C1002.90519,212.914266 1006.58784,212.693108 1010.23819,212.290904 C1014.36004,211.837748 1018.45175,211.10706 1022.55315,210.473942 C1023.93751,210.260373 1025.32187,210.022954 1026.68685,209.706395 C1028.23913,209.346471 1029.76451,208.864044 1031.31249,208.475934 C1034.27928,207.734405 1037.27297,207.101287 1040.21715,206.280618 C1045.49515,204.81057 1050.76668,203.313419 1055.99516,201.67425 C1059.17294,200.67904 1062.25383,199.373776 1065.39393,198.250642 C1071.6935,195.998953 1077.41932,192.625214 1083.08807,189.136559 C1085.76098,187.490886 1088.50278,185.940613 1091.05727,184.124735 C1093.46859,182.409679 1095.69261,180.423596 1097.96721,178.517737 C1099.4603,177.267762 1100.89848,175.948404 1102.35926,174.657234 C1105.07415,172.254854 1107.79227,169.855726 1110.5007,167.445758 C1114.291,164.072019 1117.30515,160.008788 1120.45171,156.06264 C1123.42387,152.335482 1126.36482,148.582306 1128.14963,144.099526 C1128.89994,142.213181 1129.4145,140.227098 1129.95059,138.261613 C1130.02917,137.97324 1129.72453,137.403 1129.43495,137.21545 C1127.02794,135.657589 1124.71888,133.835206 1122.11702,132.716408 C1117.81325,130.866923 1113.24788,129.637546 1108.92365,127.830341 C1107.05811,127.051952 1105.52843,125.470241 1103.82759,124.279892 C1101.66709,122.768648 1099.58086,121.116469 1097.29334,119.830719 C1094.80236,118.430054 1092.16067,117.274396 1089.50606,116.209804 C1087.23253,115.29807 1084.79322,114.804802 1082.52507,113.880059 C1077.9371,112.006723 1073.39865,110.011967 1068.8785,107.976015 C1066.51993,106.912507 1064.2507,105.645187 1061.93304,104.487361 C1059.66381,103.35447 1057.38382,102.244345 1055.10814,101.124463 C1053.20922,100.187795 1051.29739,99.2706408 1049.41139,98.3068702 C1048.07763,97.6238832 1046.79554,96.8389901 1045.4564,96.16576 C1042.13437,94.4929838 1038.8877,92.6077227 1035.43004,91.286197 C1032.55368,90.1847448 1029.44156,89.6600373 1026.39512,89.0735357 C1023.65762,88.5455759 1021.12035,87.7997107 1018.7747,86.1128411 C1016.58406,84.5376344 1015.57216,80.7291686 1016.3074,78.044921 C1017.08139,75.2219079 1018.88019,73.0450222 1020.80817,71.1163968 C1024.74918,67.17567 1028.27789,62.7741979 1033.08976,59.7452045 C1035.12862,58.4616225 1036.83808,56.6587535 1038.79835,55.2309853 C1040.22577,54.1913273 1041.82973,53.4010137 1043.33357,52.4621775 C1045.97741,50.8110834 1048.59865,49.1252979 1051.23818,47.4666151 C1052.84107,46.457312 1054.43211,45.428495 1056.07159,44.4842383 C1058.87152,42.8710879 1061.64669,41.1950594 1064.54135,39.7705435 C1068.30366,37.9199739 1072.07458,35.9978532 1076.02419,34.6459724 C1080.21817,33.2095314 1084.58977,32.206733 1088.95383,31.3947373 C1091.74407,30.8754503 1094.66241,31.0922716 1097.5194,30.8938801 C1100.32148,30.699825 1103.1268,30.4732468 1105.90843,30.0959778 C1106.74593,29.9832307 1107.49409,29.2818138 1108.31221,28.9143017 C1109.34886,28.4470519 1110.38121,27.857298 1111.47707,27.6599906 C1113.03151,27.379207 1114.63978,27.3423474 1116.22759,27.3217494 C1118.06945,27.2968149 1119.7746,28.7289195 1120.02542,30.3539951" id="Fill-12"></path>
                <path d="M932.142857,230.635658 C933.02055,229.614541 933.94355,228.632696 934.741166,227.556383 C934.984559,227.227333 934.915018,226.640349 934.936091,226.169064 C935.006686,224.6756 935.047779,223.181074 935.108891,221.687609 C935.123642,221.315039 935.211095,220.943531 935.198451,220.574145 C935.100461,217.56811 936.196261,214.932522 937.400586,212.241739 C938.824071,209.065871 939.847168,205.707434 941.059923,202.433913 C941.279083,201.844806 941.640486,201.304527 941.822768,200.705867 C942.55611,198.286816 943.129298,195.810446 943.982757,193.437037 C944.877308,190.94793 946.043702,188.55966 947.05837,186.113011 C947.657899,184.669435 948.525055,183.237535 948.690479,181.734517 C949.120369,177.823063 951.040125,174.461441 952.317153,170.876914 C953.873398,166.516465 955.110387,162.127357 955.56978,157.506852 C955.709915,156.106796 956.252547,154.750259 956.569696,153.364001 C956.762515,152.521207 956.906865,151.664615 957.024874,150.806961 C957.391546,148.155451 957.803524,145.508187 958.065884,142.846063 C958.292419,140.543771 958.313492,138.221312 958.475755,135.91159 C958.675949,133.05522 957.905728,130.234939 958.638017,127.309575 C959.133234,125.323596 958.6475,123.096668 958.655929,120.976946 C958.669627,117.394542 958.822407,113.808954 958.739168,110.229734 C958.643286,106.166492 958.415696,102.104311 958.113298,98.0506223 C958.005825,96.5900629 957.441067,95.1709002 957.224015,93.7114023 C956.888953,91.470675 956.707725,89.2076571 956.400058,86.9626839 C956.092391,84.7177108 955.697272,82.4844136 955.361156,80.2426248 C955.165177,78.9306689 955.151479,77.572009 954.799559,76.306757 C954.308557,74.5404992 953.510941,72.8623419 952.96831,71.1077601 C952.258148,68.816083 951.729214,66.4681489 951.008515,64.1807176 C950.366841,62.1374206 949.198339,60.1907157 948.937033,58.115575 C948.626206,55.6381437 947.212203,53.1660196 948.456568,50.5643982 C948.605133,50.2555154 948.651493,49.7884761 948.534538,49.4753474 C947.13634,45.7666305 946.822352,42.1099249 948.659923,38.4171298 C949.090867,37.5509841 949.161462,36.4895311 949.326885,35.5055641 C949.896911,32.096177 951.623849,29.1241085 952.974632,26.0310344 C953.71535,24.3358939 955.013451,22.8286306 956.278888,21.4391886 C957.992128,19.5572324 959.781231,17.6890751 961.794762,16.1563369 C963.32572,14.9919229 965.207544,14.2319226 967.020881,13.520749 C969.920534,12.3828714 972.955055,11.5814744 975.81467,10.357619 C977.889313,9.46918285 979.918648,9.58169687 982.017525,9.7865573 C982.699239,9.85236739 983.376738,10.0402446 984.057398,10.0444904 C986.048802,10.0561664 987.14144,11.5475079 988.403717,12.7066146 C990.422516,14.560973 992.567754,16.3378454 994.26835,18.4649972 C996.164925,20.8384062 998.165812,23.307346 997.912936,26.7390236 C997.699044,29.6442205 998.023569,32.4114286 998.810648,35.3187484 C999.798975,38.9648395 999.695717,42.9070761 999.108832,46.772888 C998.881243,48.2695368 999.211036,49.9678616 999.704146,51.4316053 C1000.37216,53.417584 1001.54804,55.2220541 1002.31194,57.1814964 C1003.45094,60.1026151 1004.20641,63.0778679 1003.38666,66.3004393 C1003.04949,67.63044 1003.21808,69.099491 1003.22756,70.5059162 C1003.23283,71.3922295 1003.36243,72.2785428 1003.44567,73.1637946 C1003.77441,76.6273158 1004.12317,80.0887141 1004.42767,83.5543583 C1004.5067,84.4576548 1004.42978,85.3736888 1004.45191,86.283354 C1004.54147,90.0822944 1003.78494,93.7485531 1002.92938,97.4275493 C1002.38253,99.7776063 1002.27401,102.228501 1001.90944,104.625262 C1001.78511,105.445765 1001.37313,106.224872 1001.27409,107.045375 C1000.96537,109.61303 1000.81575,112.202975 1000.45435,114.762139 C1000.31105,115.766273 999.949647,116.841525 999.37646,117.662028 C998.095218,119.493035 998.632581,121.663706 998.041481,123.606165 C997.976155,123.818456 998.242729,124.141138 998.16792,124.338568 C997.116374,127.082424 995.983697,129.796559 994.976404,132.556337 C994.4559,133.985053 994.140858,135.489132 993.740469,136.962429 C992.87542,140.143603 992.190546,143.387404 991.100015,146.487908 C990.220214,148.988692 988.848358,151.312212 987.704091,153.719588 C985.972939,157.365679 984.288148,161.03406 982.51485,164.658923 C979.67104,170.466132 976.864108,176.294571 973.85909,182.016864 C972.313381,184.95815 970.329352,187.662733 968.624541,190.522287 C967.473952,192.454132 966.751146,194.719272 965.3245,196.394245 C963.139223,198.960839 962.193043,202.083633 960.667353,204.945311 C959.402969,207.319781 958.200751,209.760062 956.15245,211.655817 C955.070348,212.657828 954.369669,214.064254 953.383449,215.187271 C950.444811,218.535094 947.221686,221.48381 943.351619,223.825376 C940.518345,225.540684 938.089675,227.976719 935.626234,230.251412 C934.102652,231.657838 933.962516,231.826609 932.142857,230.635658" id="Fill-14"></path>
            </g>
        </g>
    </g>
</svg>