<?xml version="1.0" encoding="UTF-8"?>
<svg width="24px" height="17px" viewBox="0 0 24 17" version="1.1" xmlns="http://www.w3.org/2000/svg" xmlns:xlink="http://www.w3.org/1999/xlink">
    <!-- Generator: Sketch 54.1 (76490) - https://sketchapp.com -->
    <title>icon__youtube</title>
    <desc>Created with Sketch.</desc>
    <g id="Page-1" stroke="none" stroke-width="1" fill="none" fill-rule="evenodd">
        <g id="Desktop-HD" transform="translate(-162.000000, -174.000000)" fill="#FFFFFF" fill-rule="nonzero">
            <path d="M185.498947,176.589977 C185.216033,175.576257 184.423891,174.784115 183.410171,174.5012 C181.539476,174.000014 174.010679,174.000014 174.010679,174.000014 C174.010679,174.000014 166.500888,173.99001 164.611186,174.5012 C163.597466,174.784115 162.805324,175.576257 162.52241,176.589977 C162.167799,178.505199 161.992974,180.449373 162.000216,182.397134 C161.994343,184.337545 162.169162,186.274288 162.52241,188.182284 C162.805324,189.196004 163.597466,189.988146 164.611186,190.27106 C166.479881,190.773246 174.010679,190.773246 174.010679,190.773246 C174.010679,190.773246 181.519469,190.773246 183.410171,190.27106 C184.423891,189.988146 185.216033,189.196004 185.498947,188.182284 C185.844815,186.273597 186.012266,184.33686 185.999133,182.397134 C186.013635,180.450061 185.846178,178.505892 185.498947,176.589977 L185.498947,176.589977 Z M171.607786,185.989469 L171.607786,178.793795 L177.874114,182.397134 L171.607786,185.989469 Z" id="icon__youtube"></path>
        </g>
    </g>
</svg>