<?xml version="1.0" encoding="UTF-8"?>
<svg width="24px" height="17px" viewBox="0 0 24 17" version="1.1" xmlns="http://www.w3.org/2000/svg" xmlns:xlink="http://www.w3.org/1999/xlink">
    <!-- Generator: Sketch 54.1 (76490) - https://sketchapp.com -->
    <title>icon__youtube</title>
    <desc>Created with Sketch.</desc>
    <g id="Page-1" stroke="none" stroke-width="1" fill="none" fill-rule="evenodd">
        <g id="Desktop-HD" transform="translate(-708.000000, -1497.000000)" fill="#000000" fill-rule="nonzero">
            <path d="M731.498947,1499.62499 C731.216033,1498.59757 730.423891,1497.79471 729.410171,1497.50798 C727.539476,1497.00001 720.010679,1497.00001 720.010679,1497.00001 C720.010679,1497.00001 712.500888,1496.98988 710.611186,1497.50798 C709.597466,1497.79471 708.805324,1498.59757 708.52241,1499.62499 C708.167799,1501.5661 707.992974,1503.53656 708.000216,1505.51065 C707.994343,1507.4773 708.169162,1509.44022 708.52241,1511.37401 C708.805324,1512.40143 709.597466,1513.20429 710.611186,1513.49102 C712.479881,1514 720.010679,1514 720.010679,1514 C720.010679,1514 727.519469,1514 729.410171,1513.49102 C730.423891,1513.20429 731.216033,1512.40143 731.498947,1511.37401 C731.844815,1509.43952 732.012266,1507.4766 731.999133,1505.51065 C732.013635,1503.53726 731.846178,1501.56681 731.498947,1499.62499 L731.498947,1499.62499 Z M717.607786,1509.15155 L717.607786,1501.8586 L723.874114,1505.51065 L717.607786,1509.15155 Z" id="icon__youtube"></path>
        </g>
    </g>
</svg>