<?xml version="1.0" encoding="UTF-8"?>
<svg width="24px" height="18px" viewBox="0 0 24 18" version="1.1" xmlns="http://www.w3.org/2000/svg" xmlns:xlink="http://www.w3.org/1999/xlink">
    <!-- Generator: Sketch 54.1 (76490) - https://sketchapp.com -->
    <title>icon__gmail</title>
    <desc>Created with Sketch.</desc>
    <g id="Page-1" stroke="none" stroke-width="1" fill="none" fill-rule="evenodd">
        <g id="Desktop-HD" transform="translate(-150.000000, -274.000000)" fill="#FFFFFF" fill-rule="nonzero">
            <path d="M174,275.5 L174,290.5 C174,291.35 173.35,292 172.5,292 L171,292 L171,278.387 L162,284.85 L153,278.387 L153,292 L151.5,292 C150.649,292 150,291.35 150,290.5 L150,275.5 C150,275.075 150.162,274.7 150.431,274.432 C150.7,274.16 151.076,274 151.5,274 L152,274 L162,281.25 L172,274 L172.5,274 C172.925,274 173.3,274.162 173.569,274.432 C173.839,274.7 174,275.075 174,275.5 Z" id="icon__gmail"></path>
        </g>
    </g>
</svg>