<?xml version="1.0" encoding="UTF-8"?>
<svg width="24px" height="24px" viewBox="0 0 24 24" version="1.1" xmlns="http://www.w3.org/2000/svg" xmlns:xlink="http://www.w3.org/1999/xlink">
    <!-- Generator: Sketch 54.1 (76490) - https://sketchapp.com -->
    <title>icon__discogs</title>
    <desc>Created with Sketch.</desc>
    <g id="Page-1" stroke="none" stroke-width="1" fill="none" fill-rule="evenodd">
        <g id="icon__discogs">
            <path d="M8.61458541,11.9808192 C8.61458541,10.1034965 10.1370629,8.58101898 12.011988,8.58101898 L12.011988,8.58101898 C13.8893107,8.58101898 15.4093906,10.1010989 15.4093906,11.9808192 L15.4093906,11.9808192 C15.4093906,13.8581419 13.8869131,15.3782218 12.011988,15.3782218 L12.011988,15.3782218 C10.1370629,15.3782218 8.61458541,13.8581419 8.61458541,11.9808192 L8.61458541,11.9808192 Z M8.76323676,11.9808192 C8.76803197,13.7766234 10.2185814,15.2271728 12.011988,15.2295704 L12.011988,15.2295704 C13.8053946,15.2295704 15.2631369,13.7742258 15.2631369,11.9808192 L15.2631369,11.9808192 C15.2607393,10.185015 13.8077922,8.73206793 12.011988,8.72967033 L12.011988,8.72967033 C10.2185814,8.72967033 8.76323676,10.185015 8.76323676,11.9808192 L8.76323676,11.9808192 Z" id="Shape" fill="#FFFFFF" fill-rule="nonzero"></path>
            <path d="M12.5514486,11.9808192 C12.5514486,12.2757243 12.3092907,12.5154845 12.0143856,12.5154845 C11.7194805,12.5154845 11.4773227,12.2757243 11.4773227,11.9808192 C11.4773227,11.6835165 11.7170829,11.4437562 12.0143856,11.4437562 C12.3092907,11.4437562 12.5514486,11.6835165 12.5514486,11.9808192 Z" id="Path" fill="#FFFFFF" fill-rule="nonzero"></path>
            <g id="Group">
                <path d="M12.0143856,7.54765235 C9.56403596,7.54765235 7.58121878,9.53286713 7.58121878,11.9808192 C7.58121878,13.2323676 8.1014985,14.3592408 8.93586414,15.1648352 C8.93106893,15.16004 8.92627373,15.1552448 8.92147852,15.1504496 L7.76583417,16.3996004 C8.16863137,16.788012 8.62417582,17.1212787 9.12287712,17.3898102 L9.95724276,15.9032967 L9.95724276,15.9032967 C10.5734266,16.226973 11.2735265,16.4115884 12.0167832,16.4115884 C14.4647353,16.4115884 16.44995,14.4263736 16.44995,11.9784216 C16.44995,10.794006 15.9824176,9.71988012 15.2271728,8.92627373 L16.39001,7.67472527 C15.9944056,7.27432567 15.5460539,6.92667333 15.0545455,6.64615385 L14.2345654,8.14225774 C13.5776224,7.76583417 12.8223776,7.54765235 12.0143856,7.54765235 Z" id="Path"></path>
                <path d="M6.29130869,17.994006 L5.11168831,19.2695305 C5.73986014,19.8641359 6.43996004,20.3796204 7.2047952,20.7968032 L8.05594406,19.2815185 C7.41338661,18.9314685 6.82117882,18.4951049 6.29130869,17.994006 Z" id="Path"></path>
                <path d="M17.8645355,6.08511489 L19.0465534,4.81198801 C18.415984,4.19340659 17.7038961,3.65634366 16.9294705,3.21998002 L16.0951049,4.74485514 C16.7424575,5.11408591 17.3370629,5.56483516 17.8645355,6.08511489 Z" id="Path"></path>
                <path d="M16.5362637,7.51408591 L17.7134865,6.24815185 C17.2003996,5.73746254 16.6201798,5.2987013 15.9872128,4.93906094 L15.1576424,6.45434565 C15.6635365,6.74445554 16.1286713,7.1016983 16.5362637,7.51408591 Z" id="Path"></path>
                <path d="M7.61478521,16.5626374 L6.44235764,17.830969 C6.95784216,18.3224775 7.53566434,18.7468531 8.16623377,19.0897103 L9.01258741,17.584016 C8.4995005,17.3082917 8.02957043,16.963037 7.61478521,16.5626374 Z" id="Path"></path>
                <path d="M5.87652348,11.9808192 C5.87652348,13.7166833 6.6005994,15.2847153 7.76343656,16.401998 L8.91908092,15.1528472 C8.92387612,15.1576424 8.92867133,15.1624376 8.93346653,15.1672328 C8.0991009,14.3616384 7.57882118,13.2323676 7.57882118,11.9832168 C7.57882118,9.53526474 9.56163836,7.55004995 12.011988,7.55004995 C12.81998,7.55004995 13.5752248,7.76823177 14.2273726,8.14705295 L15.0473526,6.65094905 C14.1506494,6.13786214 13.1148851,5.84535465 12.011988,5.84535465 C8.63136863,5.84055944 5.87652348,8.5954046 5.87652348,11.9808192 Z" id="Path" fill="#FFFFFF" fill-rule="nonzero"></path>
                <path d="M16.4475524,11.9808192 C16.4475524,14.4287712 14.4623377,16.413986 12.0143856,16.413986 C11.2711289,16.413986 10.571029,16.2293706 9.95484515,15.9056943 L9.95484515,15.9056943 L9.12047952,17.3922078 C9.98361638,17.8549451 10.969031,18.1186813 12.0143856,18.1186813 C15.3998002,18.1186813 18.1522478,15.3662338 18.1522478,11.9808192 C18.1522478,10.3048951 17.4761239,8.78481518 16.3852148,7.67712288 L15.2247752,8.92627373 C15.98002,9.72227772 16.4475524,10.7964036 16.4475524,11.9808192 Z" id="Path" fill="#FFFFFF" fill-rule="nonzero"></path>
                <path d="M3.92967033,11.9808192 C3.92967033,14.2801199 4.8959041,16.3588412 6.44235764,17.8333666 L7.61478521,16.565035 C6.40879121,15.406993 5.65594406,13.7814186 5.65594406,11.9808192 C5.65594406,8.47312687 8.50909091,5.62237762 12.0143856,5.62237762 C13.1556444,5.62237762 14.2273726,5.92687313 15.1552448,6.45674326 L15.9848152,4.94145854 C14.80999,4.27732268 13.4553447,3.89370629 12.0143856,3.89370629 C7.55724276,3.89370629 3.92967033,7.52127872 3.92967033,11.9808192 Z" id="Path" fill="#FFFFFF" fill-rule="nonzero"></path>
                <path d="M18.3752248,11.9808192 C18.3752248,15.4885115 15.5220779,18.3392607 12.0167832,18.3392607 C10.9306693,18.3392607 9.90929071,18.0659341 9.01258741,17.584016 L8.16623377,19.0897103 C9.31228771,19.7130869 10.6237762,20.0655345 12.0167832,20.0655345 C16.4763237,20.0655345 20.1038961,16.437962 20.1038961,11.9784216 C20.1038961,9.74145854 19.1904096,7.71308691 17.7158841,6.24575425 L16.5386613,7.51168831 C17.6727273,8.66253746 18.3752248,10.2401598 18.3752248,11.9808192 Z" id="Path" fill="#FFFFFF" fill-rule="nonzero"></path>
                <path d="M20.3220779,11.9808192 C20.3220779,16.5626374 16.5962038,20.2885115 12.0143856,20.2885115 C10.583017,20.2885115 9.23316683,19.9240759 8.05594406,19.2839161 L7.2047952,20.7992008 C8.63376623,21.5808192 10.2737263,22.0267732 12.0143856,22.0267732 C17.5528472,22.0267732 22.0603397,17.5192807 22.0603397,11.9808192 C22.0603397,9.17562438 20.9046953,6.63896104 19.0465534,4.81438561 L17.8645355,6.08751249 C19.3822178,7.59320679 20.3220779,9.67672328 20.3220779,11.9808192 Z" id="Path" fill="#FFFFFF" fill-rule="nonzero"></path>
                <path d="M1.96843157,11.9808192 C1.96843157,14.8483516 3.17922078,17.4377622 5.11168831,19.2695305 L6.29130869,17.994006 C4.7016983,16.4787213 3.70669331,14.3448551 3.70669331,11.9808192 C3.70669331,7.399001 7.43256743,3.67312687 12.0143856,3.67312687 C13.4961039,3.67312687 14.8867133,4.06393606 16.0927073,4.74725275 L16.9270729,3.22237762 C15.4741259,2.4023976 13.7982018,1.93486513 12.0143856,1.93486513 C6.47592408,1.93246753 1.96843157,6.43996004 1.96843157,11.9808192 Z" id="Path" fill="#FFFFFF" fill-rule="nonzero"></path>
                <path d="M20.3508492,3.41178821 L19.1976024,4.65134865 C21.0989011,6.51668332 22.2833167,9.11088911 22.2833167,11.9808192 C22.2833167,17.6415584 17.6775225,22.2473526 12.0167832,22.2473526 C10.2353646,22.2473526 8.55944056,21.7918082 7.0993007,20.991009 L6.24575425,22.5110889 C7.95284715,23.4485514 9.91168831,23.9832168 11.9952048,23.9856144 C18.614985,23.9856144 23.9856144,18.6173826 23.9856144,11.9976024 C23.9808192,8.62897103 22.5878122,5.58881119 20.3508492,3.41178821 Z" id="Path" fill="#FFFFFF" fill-rule="nonzero"></path>
                <path d="M1.74785215,11.9808192 C1.74785215,6.31768232 6.35364635,1.71188811 12.0143856,1.71188811 C13.8365634,1.71188811 15.5484515,2.19140859 17.034965,3.02817183 L17.8477522,1.54165834 C16.1694306,0.597002997 14.2417582,0.0455544456 12.187013,0.011988012 L11.9928072,0.011988012 C5.41138861,0.023976024 0.0791208791,5.31548452 0.00719280719,11.8849151 L0.00719280719,11.8849151 L0.00719280719,12 C0.0143856144,15.4357642 1.46253746,18.5286713 3.77862138,20.7128871 L4.96303696,19.4325674 C2.98501499,17.56004 1.74785215,14.9106893 1.74785215,11.9808192 Z" id="Path" fill="#FFFFFF" fill-rule="nonzero"></path>
            </g>
        </g>
    </g>
</svg>