<?xml version="1.0" encoding="UTF-8"?>
<svg width="24px" height="18px" viewBox="0 0 24 18" version="1.1" xmlns="http://www.w3.org/2000/svg" xmlns:xlink="http://www.w3.org/1999/xlink">
    <!-- Generator: Sketch 54.1 (76490) - https://sketchapp.com -->
    <title>icon__gmail</title>
    <desc>Created with Sketch.</desc>
    <g id="Page-1" stroke="none" stroke-width="1" fill="none" fill-rule="evenodd">
        <g id="Desktop-HD" transform="translate(-759.000000, -1497.000000)" fill="#000000" fill-rule="nonzero">
            <path d="M783,1498.5 L783,1513.5 C783,1514.35 782.35,1515 781.5,1515 L780,1515 L780,1501.387 L771,1507.85 L762,1501.387 L762,1515 L760.5,1515 C759.649,1515 759,1514.35 759,1513.5 L759,1498.5 C759,1498.075 759.162,1497.7 759.431,1497.432 C759.7,1497.16 760.076,1497 760.5,1497 L761,1497 L771,1504.25 L781,1497 L781.5,1497 C781.925,1497 782.3,1497.162 782.569,1497.432 C782.839,1497.7 783,1498.075 783,1498.5 Z" id="icon__gmail"></path>
        </g>
    </g>
</svg>